<ttFont>
    <TTGlyph name="A" xMin="48" yMin="0" xMax="1342" yMax="1426">
      <contour>
        <pt x="1337" y="108" on="1"/>
        <pt x="1342" y="91" on="0"/>
        <pt x="1342" y="80" on="1"/>
        <pt x="1342" y="62" on="0"/>
        <pt x="1326" y="32" on="0"/>
        <pt x="1299" y="11" on="0"/>
        <pt x="1265" y="0" on="0"/>
        <pt x="1248" y="0" on="1"/>
        <pt x="1224" y="0" on="0"/>
        <pt x="1182" y="25" on="0"/>
        <pt x="1173" y="53" on="1"/>
        <pt x="1045" y="373" on="1"/>
        <pt x="338" y="373" on="1"/>
        <pt x="211" y="53" on="1"/>
        <pt x="201" y="24" on="0"/>
        <pt x="161" y="0" on="0"/>
        <pt x="138" y="0" on="1"/>
        <pt x="121" y="0" on="0"/>
        <pt x="89" y="11" on="0"/>
        <pt x="64" y="32" on="0"/>
        <pt x="48" y="61" on="0"/>
        <pt x="48" y="78" on="1"/>
        <pt x="48" y="91" on="0"/>
        <pt x="54" y="108" on="1"/>
        <pt x="530" y="1270" on="1"/>
        <pt x="549" y="1320" on="0"/>
        <pt x="587" y="1382" on="0"/>
        <pt x="626" y="1415" on="0"/>
        <pt x="669" y="1426" on="0"/>
        <pt x="694" y="1426" on="1"/>
        <pt x="719" y="1426" on="0"/>
        <pt x="762" y="1415" on="0"/>
        <pt x="802" y="1381" on="0"/>
        <pt x="839" y="1320" on="0"/>
        <pt x="859" y="1270" on="1"/>
      </contour>
      <contour>
        <pt x="691" y="1279" on="1"/>
        <pt x="388" y="508" on="1"/>
        <pt x="995" y="508" on="1"/>
        <pt x="693" y="1279" on="1"/>
      </contour>
    </TTGlyph>
    <TTGlyph name="AE" xMin="52" yMin="-1" xMax="1918" yMax="1426">
      <contour>
        <pt x="1252" y="0" on="1"/>
        <pt x="1237" y="0" on="0"/>
        <pt x="1207" y="4" on="0"/>
        <pt x="1182" y="16" on="0"/>
        <pt x="1165" y="36" on="0"/>
        <pt x="1162" y="53" on="1"/>
        <pt x="1107" y="373" on="1"/>
        <pt x="416" y="373" on="1"/>
        <pt x="211" y="53" on="1"/>
        <pt x="195" y="24" on="0"/>
        <pt x="149" y="-1" on="0"/>
        <pt x="126" y="-1" on="1"/>
        <pt x="97" y="-1" on="0"/>
        <pt x="52" y="34" on="0"/>
        <pt x="52" y="63" on="1"/>
        <pt x="52" y="73" on="0"/>
        <pt x="58" y="96" on="0"/>
        <pt x="66" y="108" on="1"/>
        <pt x="805" y="1278" on="1"/>
        <pt x="833" y="1327" on="0"/>
        <pt x="882" y="1386" on="0"/>
        <pt x="929" y="1417" on="0"/>
        <pt x="974" y="1426" on="0"/>
        <pt x="998" y="1426" on="1"/>
        <pt x="1816" y="1426" on="1"/>
        <pt x="1836" y="1426" on="0"/>
        <pt x="1867" y="1411" on="0"/>
        <pt x="1888" y="1388" on="0"/>
        <pt x="1899" y="1359" on="0"/>
        <pt x="1899" y="1344" on="1"/>
        <pt x="1899" y="1319" on="0"/>
        <pt x="1868" y="1281" on="0"/>
        <pt x="1834" y="1281" on="1"/>
        <pt x="1139" y="1281" on="1"/>
        <pt x="1215" y="806" on="1"/>
        <pt x="1785" y="806" on="1"/>
        <pt x="1805" y="806" on="0"/>
        <pt x="1836" y="792" on="0"/>
        <pt x="1857" y="769" on="0"/>
        <pt x="1868" y="740" on="0"/>
        <pt x="1868" y="725" on="1"/>
        <pt x="1868" y="700" on="0"/>
        <pt x="1836" y="662" on="0"/>
        <pt x="1802" y="662" on="1"/>
        <pt x="1236" y="662" on="1"/>
        <pt x="1321" y="145" on="1"/>
        <pt x="1835" y="145" on="1"/>
        <pt x="1855" y="145" on="0"/>
        <pt x="1886" y="130" on="0"/>
        <pt x="1907" y="107" on="0"/>
        <pt x="1918" y="78" on="0"/>
        <pt x="1918" y="63" on="1"/>
        <pt x="1918" y="39" on="0"/>
        <pt x="1887" y="0" on="0"/>
        <pt x="1853" y="0" on="1"/>
      </contour>
      <contour>
        <pt x="495" y="508" on="1"/>
        <pt x="1090" y="508" on="1"/>
        <pt x="967" y="1293" on="1"/>
        <pt x="964" y="1293" on="1"/>
      </contour>
    </TTGlyph>
    <TTGlyph name="Aacute" xMin="48" yMin="0" xMax="1342" yMax="1939">
      <component glyphName="A" x="0" y="0" flags="0x1204"/>
      <component glyphName="acute" x="391" y="439" flags="0x1004"/>
    </TTGlyph>
    <TTGlyph name="Acircumflex" xMin="48" yMin="0" xMax="1342" yMax="1963">
      <component glyphName="A" x="0" y="0" flags="0x1204"/>
      <component glyphName="circumflex" x="412" y="439" flags="0x1004"/>
    </TTGlyph>
    <TTGlyph name="Adieresis" xMin="48" yMin="0" xMax="1342" yMax="1835">
      <component glyphName="A" x="0" y="0" flags="0x1204"/>
      <component glyphName="dieresis" x="411" y="439" flags="0x1004"/>
    </TTGlyph>
    <TTGlyph name="Agrave" xMin="48" yMin="0" xMax="1342" yMax="1938">
      <component glyphName="A" x="0" y="0" flags="0x1204"/>
      <component glyphName="grave" x="435" y="439" flags="0x1004"/>
    </TTGlyph>
    <TTGlyph name="Aring" xMin="48" yMin="0" xMax="1342" yMax="1909">
      <component glyphName="A" x="0" y="0" flags="0x1204"/>
      <component glyphName="ring" x="411" y="439" flags="0x1004"/>
    </TTGlyph>
    <TTGlyph name="Atilde" xMin="48" yMin="0" xMax="1342" yMax="1807">
      <component glyphName="A" x="0" y="0" flags="0x1204"/>
      <component glyphName="tilde" x="417" y="439" flags="0x1004"/>
    </TTGlyph>
    <TTGlyph name="B" xMin="195" yMin="0" xMax="1237" yMax="1426">
      <contour>
        <pt x="195" y="1341" on="1"/>
        <pt x="195" y="1359" on="0"/>
        <pt x="209" y="1390" on="0"/>
        <pt x="233" y="1413" on="0"/>
        <pt x="265" y="1426" on="0"/>
        <pt x="283" y="1426" on="1"/>
        <pt x="742" y="1426" on="1"/>
        <pt x="837" y="1426" on="0"/>
        <pt x="998" y="1375" on="0"/>
        <pt x="1112" y="1282" on="0"/>
        <pt x="1178" y="1150" on="0"/>
        <pt x="1178" y="1068" on="1"/>
        <pt x="1178" y="1009" on="0"/>
        <pt x="1136" y="904" on="0"/>
        <pt x="1063" y="819" on="0"/>
        <pt x="962" y="759" on="0"/>
        <pt x="903" y="746" on="1"/>
        <pt x="903" y="742" on="1"/>
        <pt x="978" y="730" on="0"/>
        <pt x="1102" y="671" on="0"/>
        <pt x="1189" y="580" on="0"/>
        <pt x="1237" y="458" on="0"/>
        <pt x="1237" y="383" on="1"/>
        <pt x="1237" y="312" on="0"/>
        <pt x="1188" y="175" on="0"/>
        <pt x="1071" y="67" on="0"/>
        <pt x="884" y="0" on="0"/>
        <pt x="761" y="0" on="1"/>
        <pt x="283" y="0" on="1"/>
        <pt x="265" y="0" on="0"/>
        <pt x="233" y="13" on="0"/>
        <pt x="209" y="36" on="0"/>
        <pt x="195" y="67" on="0"/>
        <pt x="195" y="85" on="1"/>
      </contour>
      <contour>
        <pt x="370" y="138" on="1"/>
        <pt x="671" y="138" on="1"/>
        <pt x="762" y="138" on="0"/>
        <pt x="904" y="162" on="0"/>
        <pt x="1001" y="223" on="0"/>
        <pt x="1052" y="326" on="0"/>
        <pt x="1052" y="405" on="1"/>
        <pt x="1052" y="490" on="0"/>
        <pt x="984" y="595" on="0"/>
        <pt x="864" y="653" on="0"/>
        <pt x="698" y="672" on="0"/>
        <pt x="599" y="672" on="1"/>
        <pt x="370" y="672" on="1"/>
      </contour>
      <contour>
        <pt x="370" y="1288" on="1"/>
        <pt x="370" y="801" on="1"/>
        <pt x="666" y="801" on="1"/>
        <pt x="729" y="801" on="0"/>
        <pt x="848" y="827" on="0"/>
        <pt x="940" y="886" on="0"/>
        <pt x="995" y="980" on="0"/>
        <pt x="995" y="1049" on="1"/>
        <pt x="995" y="1122" on="0"/>
        <pt x="938" y="1215" on="0"/>
        <pt x="844" y="1268" on="0"/>
        <pt x="724" y="1288" on="0"/>
        <pt x="661" y="1288" on="1"/>
      </contour>
    </TTGlyph>
    <TTGlyph name="C" xMin="118" yMin="-22" xMax="1205" yMax="1438">
      <contour>
        <pt x="118" y="704" on="1"/>
        <pt x="118" y="846" on="0"/>
        <pt x="197" y="1117" on="0"/>
        <pt x="358" y="1320" on="0"/>
        <pt x="602" y="1438" on="0"/>
        <pt x="767" y="1438" on="1"/>
        <pt x="869" y="1438" on="0"/>
        <pt x="1049" y="1394" on="0"/>
        <pt x="1126" y="1359" on="1"/>
        <pt x="1149" y="1348" on="0"/>
        <pt x="1170" y="1308" on="0"/>
        <pt x="1170" y="1288" on="1"/>
        <pt x="1170" y="1260" on="0"/>
        <pt x="1136" y="1216" on="0"/>
        <pt x="1107" y="1216" on="1"/>
        <pt x="1095" y="1216" on="0"/>
        <pt x="1084" y="1220" on="1"/>
        <pt x="1005" y="1249" on="0"/>
        <pt x="846" y="1283" on="0"/>
        <pt x="780" y="1283" on="1"/>
        <pt x="690" y="1283" on="0"/>
        <pt x="551" y="1235" on="0"/>
        <pt x="446" y="1152" on="0"/>
        <pt x="373" y="1039" on="0"/>
        <pt x="327" y="908" on="0"/>
        <pt x="307" y="769" on="0"/>
        <pt x="307" y="706" on="1"/>
        <pt x="307" y="645" on="0"/>
        <pt x="327" y="506" on="0"/>
        <pt x="373" y="375" on="0"/>
        <pt x="446" y="262" on="0"/>
        <pt x="551" y="179" on="0"/>
        <pt x="690" y="131" on="0"/>
        <pt x="780" y="131" on="1"/>
        <pt x="814" y="131" on="0"/>
        <pt x="895" y="142" on="0"/>
        <pt x="981" y="165" on="0"/>
        <pt x="1068" y="199" on="0"/>
        <pt x="1109" y="223" on="1"/>
        <pt x="1118" y="228" on="0"/>
        <pt x="1137" y="232" on="0"/>
        <pt x="1145" y="232" on="1"/>
        <pt x="1171" y="232" on="0"/>
        <pt x="1205" y="193" on="0"/>
        <pt x="1205" y="167" on="1"/>
        <pt x="1205" y="138" on="0"/>
        <pt x="1163" y="88" on="0"/>
        <pt x="1093" y="46" on="0"/>
        <pt x="1002" y="13" on="0"/>
        <pt x="906" y="-10" on="0"/>
        <pt x="809" y="-22" on="0"/>
        <pt x="769" y="-22" on="1"/>
        <pt x="602" y="-22" on="0"/>
        <pt x="357" y="95" on="0"/>
        <pt x="196" y="297" on="0"/>
        <pt x="118" y="566" on="0"/>
      </contour>
    </TTGlyph>
    <TTGlyph name="Ccedilla" xMin="118" yMin="-392" xMax="1205" yMax="1438">
      <component glyphName="C" x="0" y="0" flags="0x1204"/>
      <component glyphName="cedilla" x="420" y="0" flags="0x1004"/>
    </TTGlyph>
    <TTGlyph name="D" xMin="178" yMin="0" xMax="1371" yMax="1426">
      <contour>
        <pt x="267" y="0" on="1"/>
        <pt x="249" y="0" on="0"/>
        <pt x="216" y="14" on="0"/>
        <pt x="192" y="37" on="0"/>
        <pt x="178" y="68" on="0"/>
        <pt x="178" y="86" on="1"/>
        <pt x="178" y="1340" on="1"/>
        <pt x="178" y="1358" on="0"/>
        <pt x="192" y="1389" on="0"/>
        <pt x="216" y="1412" on="0"/>
        <pt x="249" y="1426" on="0"/>
        <pt x="267" y="1426" on="1"/>
        <pt x="607" y="1426" on="1"/>
        <pt x="793" y="1426" on="0"/>
        <pt x="1078" y="1334" on="0"/>
        <pt x="1272" y="1153" on="0"/>
        <pt x="1371" y="885" on="0"/>
        <pt x="1371" y="710" on="1"/>
        <pt x="1371" y="535" on="0"/>
        <pt x="1269" y="270" on="0"/>
        <pt x="1074" y="91" on="0"/>
        <pt x="792" y="0" on="0"/>
        <pt x="611" y="0" on="1"/>
      </contour>
      <contour>
        <pt x="355" y="140" on="1"/>
        <pt x="630" y="140" on="1"/>
        <pt x="777" y="140" on="0"/>
        <pt x="986" y="220" on="0"/>
        <pt x="1119" y="369" on="0"/>
        <pt x="1181" y="581" on="0"/>
        <pt x="1181" y="712" on="1"/>
        <pt x="1181" y="860" on="0"/>
        <pt x="1100" y="1077" on="0"/>
        <pt x="946" y="1218" on="0"/>
        <pt x="723" y="1286" on="0"/>
        <pt x="582" y="1286" on="1"/>
        <pt x="355" y="1286" on="1"/>
      </contour>
    </TTGlyph>
    <TTGlyph name="Delta" xMin="74" yMin="240" xMax="1124" yMax="1525">
      <contour>
        <pt x="1124" y="240" on="1"/>
        <pt x="74" y="240" on="1"/>
        <pt x="534" y="1475" on="1"/>
        <pt x="543" y="1500" on="0"/>
        <pt x="580" y="1525" on="0"/>
        <pt x="600" y="1525" on="1"/>
        <pt x="620" y="1525" on="0"/>
        <pt x="656" y="1500" on="0"/>
        <pt x="665" y="1475" on="1"/>
      </contour>
      <contour>
        <pt x="600" y="1342" on="1"/>
        <pt x="593" y="1342" on="1"/>
        <pt x="230" y="332" on="1"/>
        <pt x="965" y="332" on="1"/>
      </contour>
    </TTGlyph>
    <TTGlyph name="E" xMin="199" yMin="0" xMax="1129" yMax="1426">
      <contour>
        <pt x="287" y="0" on="1"/>
        <pt x="270" y="0" on="0"/>
        <pt x="239" y="14" on="0"/>
        <pt x="214" y="38" on="0"/>
        <pt x="199" y="69" on="0"/>
        <pt x="199" y="86" on="1"/>
        <pt x="199" y="1340" on="1"/>
        <pt x="199" y="1356" on="0"/>
        <pt x="211" y="1387" on="0"/>
        <pt x="234" y="1411" on="0"/>
        <pt x="264" y="1426" on="0"/>
        <pt x="282" y="1426" on="1"/>
        <pt x="1028" y="1426" on="1"/>
        <pt x="1065" y="1426" on="0"/>
        <pt x="1101" y="1381" on="0"/>
        <pt x="1101" y="1354" on="1"/>
        <pt x="1101" y="1326" on="0"/>
        <pt x="1065" y="1281" on="0"/>
        <pt x="1028" y="1281" on="1"/>
        <pt x="374" y="1281" on="1"/>
        <pt x="374" y="806" on="1"/>
        <pt x="996" y="806" on="1"/>
        <pt x="1034" y="806" on="0"/>
        <pt x="1070" y="761" on="0"/>
        <pt x="1070" y="734" on="1"/>
        <pt x="1070" y="707" on="0"/>
        <pt x="1033" y="662" on="0"/>
        <pt x="996" y="662" on="1"/>
        <pt x="374" y="662" on="1"/>
        <pt x="374" y="145" on="1"/>
        <pt x="1056" y="145" on="1"/>
        <pt x="1093" y="145" on="0"/>
        <pt x="1129" y="100" on="0"/>
        <pt x="1129" y="73" on="1"/>
        <pt x="1129" y="45" on="0"/>
        <pt x="1093" y="0" on="0"/>
        <pt x="1056" y="0" on="1"/>
      </contour>
    </TTGlyph>
    <TTGlyph name="Eacute" xMin="199" yMin="0" xMax="1129" yMax="1939">
      <component glyphName="acute" x="323" y="439" flags="0x1004"/>
      <component glyphName="E" x="0" y="0" flags="0x1004"/>
    </TTGlyph>
    <TTGlyph name="Ecircumflex" xMin="199" yMin="0" xMax="1129" yMax="1963">
      <component glyphName="circumflex" x="343" y="439" flags="0x1004"/>
      <component glyphName="E" x="0" y="0" flags="0x1004"/>
    </TTGlyph>
    <TTGlyph name="Edieresis" xMin="199" yMin="0" xMax="1129" yMax="1835">
      <component glyphName="dieresis" x="342" y="439" flags="0x1004"/>
      <component glyphName="E" x="0" y="0" flags="0x1004"/>
    </TTGlyph>
    <TTGlyph name="Egrave" xMin="199" yMin="0" xMax="1129" yMax="1938">
      <component glyphName="E" x="0" y="0" flags="0x1204"/>
      <component glyphName="grave" x="367" y="439" flags="0x1004"/>
    </TTGlyph>
    <TTGlyph name="Eth" xMin="0" yMin="0" xMax="1371" yMax="1426">
      <contour>
        <pt x="267" y="0" on="1"/>
        <pt x="249" y="0" on="0"/>
        <pt x="216" y="14" on="0"/>
        <pt x="192" y="37" on="0"/>
        <pt x="178" y="68" on="0"/>
        <pt x="178" y="86" on="1"/>
        <pt x="178" y="648" on="1"/>
        <pt x="64" y="648" on="1"/>
        <pt x="32" y="648" on="0"/>
        <pt x="0" y="688" on="0"/>
        <pt x="0" y="712" on="1"/>
        <pt x="0" y="736" on="0"/>
        <pt x="32" y="775" on="0"/>
        <pt x="64" y="775" on="1"/>
        <pt x="178" y="775" on="1"/>
        <pt x="178" y="1340" on="1"/>
        <pt x="178" y="1358" on="0"/>
        <pt x="192" y="1389" on="0"/>
        <pt x="216" y="1412" on="0"/>
        <pt x="249" y="1426" on="0"/>
        <pt x="267" y="1426" on="1"/>
        <pt x="607" y="1426" on="1"/>
        <pt x="793" y="1426" on="0"/>
        <pt x="1078" y="1334" on="0"/>
        <pt x="1272" y="1153" on="0"/>
        <pt x="1371" y="885" on="0"/>
        <pt x="1371" y="710" on="1"/>
        <pt x="1371" y="535" on="0"/>
        <pt x="1269" y="270" on="0"/>
        <pt x="1074" y="91" on="0"/>
        <pt x="792" y="0" on="0"/>
        <pt x="611" y="0" on="1"/>
      </contour>
      <contour>
        <pt x="355" y="648" on="1"/>
        <pt x="355" y="140" on="1"/>
        <pt x="630" y="140" on="1"/>
        <pt x="777" y="140" on="0"/>
        <pt x="986" y="220" on="0"/>
        <pt x="1119" y="369" on="0"/>
        <pt x="1181" y="581" on="0"/>
        <pt x="1181" y="712" on="1"/>
        <pt x="1181" y="860" on="0"/>
        <pt x="1100" y="1077" on="0"/>
        <pt x="946" y="1218" on="0"/>
        <pt x="723" y="1286" on="0"/>
        <pt x="582" y="1286" on="1"/>
        <pt x="355" y="1286" on="1"/>
        <pt x="355" y="775" on="1"/>
        <pt x="483" y="775" on="1"/>
        <pt x="515" y="775" on="0"/>
        <pt x="548" y="735" on="0"/>
        <pt x="548" y="712" on="1"/>
        <pt x="548" y="688" on="0"/>
        <pt x="515" y="648" on="0"/>
        <pt x="483" y="648" on="1"/>
      </contour>
    </TTGlyph>
    <TTGlyph name="Euro" xMin="3" yMin="-28" xMax="1142" yMax="1452">
      <contour>
        <pt x="133" y="829" on="1"/>
        <pt x="66" y="829" on="1"/>
        <pt x="36" y="829" on="0"/>
        <pt x="5" y="867" on="0"/>
        <pt x="5" y="890" on="1"/>
        <pt x="5" y="913" on="0"/>
        <pt x="35" y="950" on="0"/>
        <pt x="66" y="950" on="1"/>
        <pt x="153" y="950" on="1"/>
        <pt x="178" y="1059" on="0"/>
        <pt x="280" y="1243" on="0"/>
        <pt x="434" y="1377" on="0"/>
        <pt x="642" y="1452" on="0"/>
        <pt x="772" y="1452" on="1"/>
        <pt x="857" y="1452" on="0"/>
        <pt x="1017" y="1426" on="0"/>
        <pt x="1087" y="1400" on="1"/>
        <pt x="1108" y="1389" on="0"/>
        <pt x="1127" y="1354" on="0"/>
        <pt x="1127" y="1334" on="1"/>
        <pt x="1127" y="1306" on="0"/>
        <pt x="1092" y="1260" on="0"/>
        <pt x="1063" y="1260" on="1"/>
        <pt x="1050" y="1260" on="0"/>
        <pt x="1037" y="1266" on="1"/>
        <pt x="980" y="1286" on="0"/>
        <pt x="852" y="1305" on="0"/>
        <pt x="782" y="1305" on="1"/>
        <pt x="686" y="1305" on="0"/>
        <pt x="540" y="1249" on="0"/>
        <pt x="434" y="1152" on="0"/>
        <pt x="364" y="1023" on="0"/>
        <pt x="345" y="950" on="1"/>
        <pt x="965" y="950" on="1"/>
        <pt x="996" y="950" on="0"/>
        <pt x="1026" y="913" on="0"/>
        <pt x="1026" y="890" on="1"/>
        <pt x="1026" y="867" on="0"/>
        <pt x="995" y="829" on="0"/>
        <pt x="965" y="829" on="1"/>
        <pt x="322" y="829" on="1"/>
        <pt x="318" y="801" on="0"/>
        <pt x="315" y="747" on="0"/>
        <pt x="315" y="719" on="1"/>
        <pt x="315" y="652" on="0"/>
        <pt x="324" y="580" on="1"/>
        <pt x="963" y="580" on="1"/>
        <pt x="994" y="580" on="0"/>
        <pt x="1024" y="543" on="0"/>
        <pt x="1024" y="520" on="1"/>
        <pt x="1024" y="497" on="0"/>
        <pt x="993" y="459" on="0"/>
        <pt x="963" y="459" on="1"/>
        <pt x="349" y="459" on="1"/>
        <pt x="370" y="388" on="0"/>
        <pt x="440" y="265" on="0"/>
        <pt x="545" y="172" on="0"/>
        <pt x="689" y="119" on="0"/>
        <pt x="782" y="119" on="1"/>
        <pt x="848" y="119" on="0"/>
        <pt x="990" y="140" on="0"/>
        <pt x="1053" y="161" on="1"/>
        <pt x="1058" y="163" on="0"/>
        <pt x="1069" y="165" on="0"/>
        <pt x="1074" y="165" on="1"/>
        <pt x="1103" y="165" on="0"/>
        <pt x="1142" y="117" on="0"/>
        <pt x="1142" y="88" on="1"/>
        <pt x="1142" y="69" on="0"/>
        <pt x="1123" y="36" on="0"/>
        <pt x="1100" y="26" on="1"/>
        <pt x="1024" y="0" on="0"/>
        <pt x="859" y="-28" on="0"/>
        <pt x="770" y="-28" on="1"/>
        <pt x="642" y="-28" on="0"/>
        <pt x="437" y="44" on="0"/>
        <pt x="284" y="173" on="0"/>
        <pt x="182" y="352" on="0"/>
        <pt x="156" y="459" on="1"/>
        <pt x="64" y="459" on="1"/>
        <pt x="34" y="459" on="0"/>
        <pt x="3" y="497" on="0"/>
        <pt x="3" y="520" on="1"/>
        <pt x="3" y="543" on="0"/>
        <pt x="33" y="580" on="0"/>
        <pt x="64" y="580" on="1"/>
        <pt x="134" y="580" on="1"/>
        <pt x="130" y="612" on="0"/>
        <pt x="127" y="676" on="0"/>
        <pt x="127" y="709" on="1"/>
        <pt x="127" y="767" on="0"/>
      </contour>
    </TTGlyph>
    <TTGlyph name="F" xMin="186" yMin="0" xMax="1048" yMax="1426">
      <contour>
        <pt x="186" y="1341" on="1"/>
        <pt x="186" y="1379" on="0"/>
        <pt x="236" y="1426" on="0"/>
        <pt x="270" y="1426" on="1"/>
        <pt x="975" y="1426" on="1"/>
        <pt x="1012" y="1426" on="0"/>
        <pt x="1048" y="1381" on="0"/>
        <pt x="1048" y="1354" on="1"/>
        <pt x="1048" y="1326" on="0"/>
        <pt x="1012" y="1281" on="0"/>
        <pt x="975" y="1281" on="1"/>
        <pt x="364" y="1281" on="1"/>
        <pt x="364" y="815" on="1"/>
        <pt x="949" y="815" on="1"/>
        <pt x="986" y="815" on="0"/>
        <pt x="1023" y="770" on="0"/>
        <pt x="1023" y="743" on="1"/>
        <pt x="1023" y="715" on="0"/>
        <pt x="986" y="670" on="0"/>
        <pt x="949" y="670" on="1"/>
        <pt x="364" y="670" on="1"/>
        <pt x="364" y="84" on="1"/>
        <pt x="364" y="63" on="0"/>
        <pt x="349" y="31" on="0"/>
        <pt x="323" y="10" on="0"/>
        <pt x="291" y="0" on="0"/>
        <pt x="275" y="0" on="1"/>
        <pt x="241" y="0" on="0"/>
        <pt x="186" y="42" on="0"/>
        <pt x="186" y="84" on="1"/>
      </contour>
    </TTGlyph>
    <TTGlyph name="G" xMin="123" yMin="-22" xMax="1321" yMax="1438">
      <contour>
        <pt x="1247" y="735" on="1"/>
        <pt x="1282" y="735" on="0"/>
        <pt x="1321" y="695" on="0"/>
        <pt x="1321" y="660" on="1"/>
        <pt x="1321" y="138" on="1"/>
        <pt x="1321" y="101" on="0"/>
        <pt x="1283" y="57" on="0"/>
        <pt x="1255" y="50" on="1"/>
        <pt x="1145" y="16" on="0"/>
        <pt x="915" y="-22" on="0"/>
        <pt x="815" y="-22" on="1"/>
        <pt x="661" y="-22" on="0"/>
        <pt x="406" y="65" on="0"/>
        <pt x="224" y="248" on="0"/>
        <pt x="123" y="528" on="0"/>
        <pt x="123" y="712" on="1"/>
        <pt x="123" y="795" on="0"/>
        <pt x="161" y="984" on="0"/>
        <pt x="238" y="1149" on="0"/>
        <pt x="354" y="1286" on="0"/>
        <pt x="511" y="1384" on="0"/>
        <pt x="708" y="1438" on="0"/>
        <pt x="828" y="1438" on="1"/>
        <pt x="937" y="1438" on="0"/>
        <pt x="1141" y="1401" on="0"/>
        <pt x="1227" y="1365" on="1"/>
        <pt x="1248" y="1356" on="0"/>
        <pt x="1266" y="1323" on="0"/>
        <pt x="1266" y="1305" on="1"/>
        <pt x="1266" y="1278" on="0"/>
        <pt x="1231" y="1232" on="0"/>
        <pt x="1202" y="1232" on="1"/>
        <pt x="1194" y="1232" on="1"/>
        <pt x="1190" y="1232" on="0"/>
        <pt x="1186" y="1234" on="1"/>
        <pt x="1142" y="1246" on="0"/>
        <pt x="1050" y="1265" on="0"/>
        <pt x="958" y="1279" on="0"/>
        <pt x="872" y="1287" on="0"/>
        <pt x="835" y="1287" on="1"/>
        <pt x="694" y="1287" on="0"/>
        <pt x="495" y="1192" on="0"/>
        <pt x="369" y="1029" on="0"/>
        <pt x="312" y="812" on="0"/>
        <pt x="312" y="709" on="1"/>
        <pt x="312" y="580" on="0"/>
        <pt x="367" y="359" on="0"/>
        <pt x="490" y="205" on="0"/>
        <pt x="689" y="123" on="0"/>
        <pt x="834" y="123" on="1"/>
        <pt x="913" y="123" on="0"/>
        <pt x="1072" y="147" on="0"/>
        <pt x="1145" y="167" on="1"/>
        <pt x="1145" y="601" on="1"/>
        <pt x="862" y="601" on="1"/>
        <pt x="829" y="601" on="0"/>
        <pt x="795" y="642" on="0"/>
        <pt x="795" y="668" on="1"/>
        <pt x="795" y="694" on="0"/>
        <pt x="828" y="735" on="0"/>
        <pt x="862" y="735" on="1"/>
      </contour>
    </TTGlyph>
    <TTGlyph name="H" xMin="193" yMin="0" xMax="1301" yMax="1426">
      <contour>
        <pt x="1123" y="1342" on="1"/>
        <pt x="1123" y="1363" on="0"/>
        <pt x="1138" y="1394" on="0"/>
        <pt x="1163" y="1415" on="0"/>
        <pt x="1195" y="1426" on="0"/>
        <pt x="1212" y="1426" on="1"/>
        <pt x="1246" y="1426" on="0"/>
        <pt x="1301" y="1384" on="0"/>
        <pt x="1301" y="1342" on="1"/>
        <pt x="1301" y="84" on="1"/>
        <pt x="1301" y="63" on="0"/>
        <pt x="1286" y="31" on="0"/>
        <pt x="1260" y="10" on="0"/>
        <pt x="1228" y="0" on="0"/>
        <pt x="1211" y="0" on="1"/>
        <pt x="1178" y="0" on="0"/>
        <pt x="1123" y="42" on="0"/>
        <pt x="1123" y="84" on="1"/>
        <pt x="1123" y="666" on="1"/>
        <pt x="371" y="666" on="1"/>
        <pt x="371" y="84" on="1"/>
        <pt x="371" y="63" on="0"/>
        <pt x="356" y="31" on="0"/>
        <pt x="330" y="10" on="0"/>
        <pt x="298" y="0" on="0"/>
        <pt x="281" y="0" on="1"/>
        <pt x="248" y="0" on="0"/>
        <pt x="193" y="42" on="0"/>
        <pt x="193" y="84" on="1"/>
        <pt x="193" y="1342" on="1"/>
        <pt x="193" y="1363" on="0"/>
        <pt x="208" y="1394" on="0"/>
        <pt x="234" y="1415" on="0"/>
        <pt x="266" y="1426" on="0"/>
        <pt x="283" y="1426" on="1"/>
        <pt x="316" y="1426" on="0"/>
        <pt x="371" y="1384" on="0"/>
        <pt x="371" y="1342" on="1"/>
        <pt x="371" y="814" on="1"/>
        <pt x="1123" y="814" on="1"/>
      </contour>
    </TTGlyph>
    <TTGlyph name="I" xMin="208" yMin="0" xMax="386" yMax="1426">
      <contour>
        <pt x="208" y="1341" on="1"/>
        <pt x="208" y="1362" on="0"/>
        <pt x="223" y="1394" on="0"/>
        <pt x="249" y="1415" on="0"/>
        <pt x="281" y="1426" on="0"/>
        <pt x="298" y="1426" on="1"/>
        <pt x="331" y="1426" on="0"/>
        <pt x="386" y="1384" on="0"/>
        <pt x="386" y="1341" on="1"/>
        <pt x="386" y="84" on="1"/>
        <pt x="386" y="63" on="0"/>
        <pt x="371" y="31" on="0"/>
        <pt x="345" y="10" on="0"/>
        <pt x="313" y="0" on="0"/>
        <pt x="296" y="0" on="1"/>
        <pt x="263" y="0" on="0"/>
        <pt x="208" y="42" on="0"/>
        <pt x="208" y="84" on="1"/>
      </contour>
    </TTGlyph>
    <TTGlyph name="Iacute" xMin="77" yMin="0" xMax="499" yMax="1939">
      <component glyphName="I" x="0" y="0" flags="0x1204"/>
      <component glyphName="acute" x="-6" y="439" flags="0x1004"/>
    </TTGlyph>
    <TTGlyph name="Icircumflex" xMin="6" yMin="0" xMax="588" yMax="1963">
      <component glyphName="I" x="0" y="0" flags="0x1204"/>
      <component glyphName="circumflex" x="12" y="439" flags="0x1004"/>
    </TTGlyph>
    <TTGlyph name="Idieresis" xMin="4" yMin="0" xMax="588" yMax="1835">
      <component glyphName="I" x="0" y="0" flags="0x1204"/>
      <component glyphName="dieresis" x="11" y="439" flags="0x1004"/>
    </TTGlyph>
    <TTGlyph name="Igrave" xMin="94" yMin="0" xMax="517" yMax="1938">
      <component glyphName="I" x="0" y="0" flags="0x1204"/>
      <component glyphName="grave" x="35" y="439" flags="0x1004"/>
    </TTGlyph>
    <TTGlyph name="J" xMin="59" yMin="-22" xMax="887" yMax="1426">
      <contour>
        <pt x="708" y="1343" on="1"/>
        <pt x="708" y="1364" on="0"/>
        <pt x="723" y="1395" on="0"/>
        <pt x="749" y="1416" on="0"/>
        <pt x="781" y="1426" on="0"/>
        <pt x="798" y="1426" on="1"/>
        <pt x="815" y="1426" on="0"/>
        <pt x="847" y="1416" on="0"/>
        <pt x="872" y="1395" on="0"/>
        <pt x="887" y="1364" on="0"/>
        <pt x="887" y="1343" on="1"/>
        <pt x="887" y="441" on="1"/>
        <pt x="887" y="314" on="0"/>
        <pt x="812" y="138" on="0"/>
        <pt x="689" y="28" on="0"/>
        <pt x="530" y="-22" on="0"/>
        <pt x="446" y="-22" on="1"/>
        <pt x="384" y="-22" on="0"/>
        <pt x="267" y="13" on="0"/>
        <pt x="167" y="79" on="0"/>
        <pt x="90" y="176" on="0"/>
        <pt x="69" y="239" on="1"/>
        <pt x="59" y="262" on="0"/>
        <pt x="59" y="282" on="1"/>
        <pt x="59" y="315" on="0"/>
        <pt x="104" y="353" on="0"/>
        <pt x="131" y="353" on="1"/>
        <pt x="150" y="353" on="0"/>
        <pt x="184" y="334" on="0"/>
        <pt x="195" y="312" on="1"/>
        <pt x="227" y="221" on="0"/>
        <pt x="349" y="121" on="0"/>
        <pt x="446" y="121" on="1"/>
        <pt x="571" y="121" on="0"/>
        <pt x="708" y="281" on="0"/>
        <pt x="708" y="456" on="1"/>
      </contour>
    </TTGlyph>
    <TTGlyph name="K" xMin="206" yMin="0" xMax="1186" yMax="1426">
      <contour>
        <pt x="381" y="83" on="1"/>
        <pt x="381" y="62" on="0"/>
        <pt x="366" y="31" on="0"/>
        <pt x="340" y="10" on="0"/>
        <pt x="308" y="0" on="0"/>
        <pt x="292" y="0" on="1"/>
        <pt x="276" y="0" on="0"/>
        <pt x="245" y="10" on="0"/>
        <pt x="221" y="31" on="0"/>
        <pt x="206" y="62" on="0"/>
        <pt x="206" y="83" on="1"/>
        <pt x="206" y="1342" on="1"/>
        <pt x="206" y="1384" on="0"/>
        <pt x="261" y="1426" on="0"/>
        <pt x="294" y="1426" on="1"/>
        <pt x="310" y="1426" on="0"/>
        <pt x="341" y="1415" on="0"/>
        <pt x="366" y="1394" on="0"/>
        <pt x="381" y="1363" on="0"/>
        <pt x="381" y="1342" on="1"/>
        <pt x="381" y="797" on="1"/>
        <pt x="983" y="1395" on="1"/>
        <pt x="997" y="1412" on="0"/>
        <pt x="1031" y="1426" on="0"/>
        <pt x="1048" y="1426" on="1"/>
        <pt x="1080" y="1426" on="0"/>
        <pt x="1128" y="1384" on="0"/>
        <pt x="1128" y="1353" on="1"/>
        <pt x="1128" y="1328" on="0"/>
        <pt x="1108" y="1302" on="1"/>
        <pt x="568" y="779" on="1"/>
        <pt x="1164" y="139" on="1"/>
        <pt x="1186" y="111" on="0"/>
        <pt x="1186" y="84" on="1"/>
        <pt x="1186" y="67" on="0"/>
        <pt x="1171" y="36" on="0"/>
        <pt x="1145" y="13" on="0"/>
        <pt x="1113" y="0" on="0"/>
        <pt x="1095" y="0" on="1"/>
        <pt x="1077" y="0" on="0"/>
        <pt x="1041" y="17" on="0"/>
        <pt x="1026" y="35" on="1"/>
        <pt x="381" y="733" on="1"/>
      </contour>
    </TTGlyph>
    <TTGlyph name="L" xMin="195" yMin="0" xMax="1094" yMax="1426">
      <contour>
        <pt x="285" y="0" on="1"/>
        <pt x="267" y="0" on="0"/>
        <pt x="234" y="13" on="0"/>
        <pt x="210" y="37" on="0"/>
        <pt x="195" y="69" on="0"/>
        <pt x="195" y="87" on="1"/>
        <pt x="195" y="1342" on="1"/>
        <pt x="195" y="1363" on="0"/>
        <pt x="210" y="1394" on="0"/>
        <pt x="236" y="1415" on="0"/>
        <pt x="268" y="1426" on="0"/>
        <pt x="285" y="1426" on="1"/>
        <pt x="318" y="1426" on="0"/>
        <pt x="373" y="1384" on="0"/>
        <pt x="373" y="1342" on="1"/>
        <pt x="373" y="146" on="1"/>
        <pt x="1020" y="146" on="1"/>
        <pt x="1058" y="146" on="0"/>
        <pt x="1094" y="101" on="0"/>
        <pt x="1094" y="73" on="1"/>
        <pt x="1094" y="46" on="0"/>
        <pt x="1057" y="0" on="0"/>
        <pt x="1020" y="0" on="1"/>
      </contour>
    </TTGlyph>
    <TTGlyph name="Lslash" xMin="-6" yMin="0" xMax="1094" yMax="1424">
      <contour>
        <pt x="285" y="0" on="1"/>
        <pt x="267" y="0" on="0"/>
        <pt x="234" y="13" on="0"/>
        <pt x="210" y="37" on="0"/>
        <pt x="195" y="69" on="0"/>
        <pt x="195" y="87" on="1"/>
        <pt x="195" y="727" on="1"/>
        <pt x="82" y="690" on="1"/>
        <pt x="71" y="686" on="0"/>
        <pt x="59" y="686" on="1"/>
        <pt x="29" y="686" on="0"/>
        <pt x="-6" y="731" on="0"/>
        <pt x="-6" y="757" on="1"/>
        <pt x="-6" y="777" on="0"/>
        <pt x="16" y="810" on="0"/>
        <pt x="40" y="818" on="1"/>
        <pt x="195" y="868" on="1"/>
        <pt x="195" y="1340" on="1"/>
        <pt x="195" y="1361" on="0"/>
        <pt x="210" y="1392" on="0"/>
        <pt x="236" y="1413" on="0"/>
        <pt x="268" y="1424" on="0"/>
        <pt x="285" y="1424" on="1"/>
        <pt x="318" y="1424" on="0"/>
        <pt x="373" y="1382" on="0"/>
        <pt x="373" y="1340" on="1"/>
        <pt x="373" y="927" on="1"/>
        <pt x="635" y="1012" on="1"/>
        <pt x="646" y="1016" on="0"/>
        <pt x="658" y="1016" on="1"/>
        <pt x="673" y="1016" on="0"/>
        <pt x="697" y="1004" on="0"/>
        <pt x="714" y="984" on="0"/>
        <pt x="723" y="959" on="0"/>
        <pt x="723" y="946" on="1"/>
        <pt x="723" y="926" on="0"/>
        <pt x="701" y="893" on="0"/>
        <pt x="677" y="885" on="1"/>
        <pt x="373" y="785" on="1"/>
        <pt x="373" y="146" on="1"/>
        <pt x="1020" y="146" on="1"/>
        <pt x="1058" y="146" on="0"/>
        <pt x="1094" y="101" on="0"/>
        <pt x="1094" y="73" on="1"/>
        <pt x="1094" y="46" on="0"/>
        <pt x="1057" y="0" on="0"/>
        <pt x="1020" y="0" on="1"/>
      </contour>
    </TTGlyph>
    <TTGlyph name="M" xMin="194" yMin="0" xMax="1765" yMax="1426">
      <contour>
        <pt x="981" y="230" on="1"/>
        <pt x="1454" y="1277" on="1"/>
        <pt x="1473" y="1322" on="0"/>
        <pt x="1508" y="1380" on="0"/>
        <pt x="1547" y="1413" on="0"/>
        <pt x="1594" y="1426" on="0"/>
        <pt x="1625" y="1426" on="1"/>
        <pt x="1654" y="1426" on="0"/>
        <pt x="1705" y="1408" on="0"/>
        <pt x="1743" y="1370" on="0"/>
        <pt x="1765" y="1311" on="0"/>
        <pt x="1765" y="1271" on="1"/>
        <pt x="1765" y="79" on="1"/>
        <pt x="1765" y="40" on="0"/>
        <pt x="1713" y="0" on="0"/>
        <pt x="1682" y="0" on="1"/>
        <pt x="1652" y="0" on="0"/>
        <pt x="1602" y="39" on="0"/>
        <pt x="1602" y="79" on="1"/>
        <pt x="1602" y="1253" on="1"/>
        <pt x="1085" y="110" on="1"/>
        <pt x="1069" y="72" on="0"/>
        <pt x="1010" y="33" on="0"/>
        <pt x="977" y="33" on="1"/>
        <pt x="945" y="33" on="0"/>
        <pt x="889" y="70" on="0"/>
        <pt x="872" y="110" on="1"/>
        <pt x="357" y="1245" on="1"/>
        <pt x="357" y="79" on="1"/>
        <pt x="357" y="40" on="0"/>
        <pt x="305" y="0" on="0"/>
        <pt x="274" y="0" on="1"/>
        <pt x="244" y="0" on="0"/>
        <pt x="194" y="39" on="0"/>
        <pt x="194" y="79" on="1"/>
        <pt x="194" y="1271" on="1"/>
        <pt x="194" y="1311" on="0"/>
        <pt x="216" y="1370" on="0"/>
        <pt x="254" y="1408" on="0"/>
        <pt x="305" y="1426" on="0"/>
        <pt x="334" y="1426" on="1"/>
        <pt x="365" y="1426" on="0"/>
        <pt x="414" y="1413" on="0"/>
        <pt x="456" y="1379" on="0"/>
        <pt x="493" y="1320" on="0"/>
        <pt x="513" y="1275" on="1"/>
        <pt x="976" y="230" on="1"/>
      </contour>
    </TTGlyph>
    <TTGlyph name="N" xMin="180" yMin="0" xMax="1323" yMax="1426">
      <contour>
        <pt x="180" y="1308" on="1"/>
        <pt x="180" y="1336" on="0"/>
        <pt x="199" y="1380" on="0"/>
        <pt x="230" y="1410" on="0"/>
        <pt x="271" y="1426" on="0"/>
        <pt x="293" y="1426" on="1"/>
        <pt x="322" y="1426" on="0"/>
        <pt x="377" y="1398" on="0"/>
        <pt x="399" y="1368" on="1"/>
        <pt x="1156" y="227" on="1"/>
        <pt x="1156" y="1346" on="1"/>
        <pt x="1156" y="1366" on="0"/>
        <pt x="1170" y="1396" on="0"/>
        <pt x="1194" y="1416" on="0"/>
        <pt x="1224" y="1426" on="0"/>
        <pt x="1240" y="1426" on="1"/>
        <pt x="1255" y="1426" on="0"/>
        <pt x="1285" y="1416" on="0"/>
        <pt x="1309" y="1396" on="0"/>
        <pt x="1323" y="1366" on="0"/>
        <pt x="1323" y="1346" on="1"/>
        <pt x="1323" y="118" on="1"/>
        <pt x="1323" y="90" on="0"/>
        <pt x="1303" y="46" on="0"/>
        <pt x="1269" y="16" on="0"/>
        <pt x="1226" y="0" on="0"/>
        <pt x="1202" y="0" on="1"/>
        <pt x="1173" y="0" on="0"/>
        <pt x="1115" y="28" on="0"/>
        <pt x="1093" y="58" on="1"/>
        <pt x="348" y="1183" on="1"/>
        <pt x="348" y="79" on="1"/>
        <pt x="348" y="59" on="0"/>
        <pt x="333" y="30" on="0"/>
        <pt x="309" y="10" on="0"/>
        <pt x="279" y="0" on="0"/>
        <pt x="263" y="0" on="1"/>
        <pt x="231" y="0" on="0"/>
        <pt x="180" y="39" on="0"/>
        <pt x="180" y="79" on="1"/>
      </contour>
    </TTGlyph>
    <TTGlyph name="Ntilde" xMin="180" yMin="0" xMax="1323" yMax="1807">
      <component glyphName="N" x="0" y="0" flags="0x1204"/>
      <component glyphName="tilde" x="472" y="439" flags="0x1004"/>
    </TTGlyph>
    <TTGlyph name="O" xMin="128" yMin="-22" xMax="1468" yMax="1438">
      <contour>
        <pt x="319" y="708" on="1"/>
        <pt x="319" y="604" on="0"/>
        <pt x="373" y="387" on="0"/>
        <pt x="489" y="222" on="0"/>
        <pt x="671" y="123" on="0"/>
        <pt x="799" y="123" on="1"/>
        <pt x="926" y="123" on="0"/>
        <pt x="1108" y="222" on="0"/>
        <pt x="1225" y="387" on="0"/>
        <pt x="1279" y="604" on="0"/>
        <pt x="1279" y="708" on="1"/>
        <pt x="1279" y="811" on="0"/>
        <pt x="1225" y="1028" on="0"/>
        <pt x="1108" y="1194" on="0"/>
        <pt x="926" y="1293" on="0"/>
        <pt x="799" y="1293" on="1"/>
        <pt x="671" y="1293" on="0"/>
        <pt x="489" y="1194" on="0"/>
        <pt x="373" y="1028" on="0"/>
        <pt x="319" y="811" on="0"/>
      </contour>
      <contour>
        <pt x="128" y="708" on="1"/>
        <pt x="128" y="861" on="0"/>
        <pt x="216" y="1135" on="0"/>
        <pt x="386" y="1331" on="0"/>
        <pt x="637" y="1438" on="0"/>
        <pt x="799" y="1438" on="1"/>
        <pt x="961" y="1438" on="0"/>
        <pt x="1211" y="1331" on="0"/>
        <pt x="1380" y="1135" on="0"/>
        <pt x="1468" y="861" on="0"/>
        <pt x="1468" y="708" on="1"/>
        <pt x="1468" y="555" on="0"/>
        <pt x="1380" y="281" on="0"/>
        <pt x="1211" y="86" on="0"/>
        <pt x="961" y="-22" on="0"/>
        <pt x="799" y="-22" on="1"/>
        <pt x="637" y="-22" on="0"/>
        <pt x="386" y="86" on="0"/>
        <pt x="216" y="281" on="0"/>
        <pt x="128" y="555" on="0"/>
      </contour>
    </TTGlyph>
    <TTGlyph name="OE" xMin="118" yMin="-29" xMax="1872" yMax="1453">
      <contour>
        <pt x="1075" y="1290" on="1"/>
        <pt x="1074" y="1290" on="0"/>
        <pt x="1028" y="1298" on="0"/>
        <pt x="940" y="1305" on="0"/>
        <pt x="811" y="1312" on="0"/>
        <pt x="727" y="1312" on="1"/>
        <pt x="652" y="1312" on="0"/>
        <pt x="532" y="1267" on="0"/>
        <pt x="436" y="1185" on="0"/>
        <pt x="366" y="1073" on="0"/>
        <pt x="320" y="940" on="0"/>
        <pt x="297" y="790" on="0"/>
        <pt x="297" y="713" on="1"/>
        <pt x="297" y="635" on="0"/>
        <pt x="320" y="486" on="0"/>
        <pt x="366" y="352" on="0"/>
        <pt x="435" y="239" on="0"/>
        <pt x="531" y="158" on="0"/>
        <pt x="652" y="112" on="0"/>
        <pt x="727" y="112" on="1"/>
        <pt x="806" y="113" on="0"/>
        <pt x="934" y="122" on="0"/>
        <pt x="1025" y="131" on="0"/>
        <pt x="1074" y="139" on="0"/>
        <pt x="1075" y="140" on="1"/>
      </contour>
      <contour>
        <pt x="1249" y="1282" on="1"/>
        <pt x="1249" y="806" on="1"/>
        <pt x="1740" y="806" on="1"/>
        <pt x="1778" y="806" on="0"/>
        <pt x="1817" y="761" on="0"/>
        <pt x="1817" y="733" on="1"/>
        <pt x="1817" y="706" on="0"/>
        <pt x="1778" y="662" on="0"/>
        <pt x="1740" y="662" on="1"/>
        <pt x="1249" y="662" on="1"/>
        <pt x="1249" y="143" on="1"/>
        <pt x="1798" y="143" on="1"/>
        <pt x="1834" y="143" on="0"/>
        <pt x="1872" y="98" on="0"/>
        <pt x="1872" y="70" on="1"/>
        <pt x="1872" y="43" on="0"/>
        <pt x="1834" y="-1" on="0"/>
        <pt x="1798" y="-1" on="1"/>
        <pt x="1090" y="-1" on="1"/>
        <pt x="1089" y="-1" on="0"/>
        <pt x="1050" y="-5" on="0"/>
        <pt x="989" y="-12" on="0"/>
        <pt x="912" y="-18" on="0"/>
        <pt x="832" y="-25" on="0"/>
        <pt x="753" y="-29" on="0"/>
        <pt x="721" y="-29" on="1"/>
        <pt x="582" y="-29" on="0"/>
        <pt x="358" y="77" on="0"/>
        <pt x="202" y="271" on="0"/>
        <pt x="118" y="544" on="0"/>
        <pt x="118" y="712" on="1"/>
        <pt x="118" y="880" on="0"/>
        <pt x="202" y="1154" on="0"/>
        <pt x="359" y="1348" on="0"/>
        <pt x="586" y="1453" on="0"/>
        <pt x="728" y="1453" on="1"/>
        <pt x="778" y="1453" on="0"/>
        <pt x="903" y="1444" on="0"/>
        <pt x="1016" y="1435" on="0"/>
        <pt x="1095" y="1426" on="0"/>
        <pt x="1099" y="1426" on="1"/>
        <pt x="1772" y="1426" on="1"/>
        <pt x="1809" y="1426" on="0"/>
        <pt x="1847" y="1382" on="0"/>
        <pt x="1847" y="1354" on="1"/>
        <pt x="1847" y="1327" on="0"/>
        <pt x="1809" y="1282" on="0"/>
        <pt x="1772" y="1282" on="1"/>
      </contour>
    </TTGlyph>
    <TTGlyph name="Oacute" xMin="128" yMin="-22" xMax="1468" yMax="1939">
      <component glyphName="acute" x="494" y="439" flags="0x1004"/>
      <component glyphName="O" x="0" y="0" flags="0x1004"/>
    </TTGlyph>
    <TTGlyph name="Ocircumflex" xMin="128" yMin="-22" xMax="1468" yMax="1963">
      <component glyphName="circumflex" x="514" y="439" flags="0x1004"/>
      <component glyphName="O" x="0" y="0" flags="0x1004"/>
    </TTGlyph>
    <TTGlyph name="Odieresis" xMin="128" yMin="-22" xMax="1468" yMax="1835">
      <component glyphName="dieresis" x="513" y="439" flags="0x1004"/>
      <component glyphName="O" x="0" y="0" flags="0x1004"/>
    </TTGlyph>
    <TTGlyph name="Ograve" xMin="128" yMin="-22" xMax="1468" yMax="1938">
      <component glyphName="O" x="0" y="0" flags="0x1204"/>
      <component glyphName="grave" x="538" y="439" flags="0x1004"/>
    </TTGlyph>
    <TTGlyph name="Oslash" xMin="128" yMin="-158" xMax="1468" yMax="1571">
      <contour>
        <pt x="1138" y="1373" on="1"/>
        <pt x="1219" y="1330" on="0"/>
        <pt x="1342" y="1200" on="0"/>
        <pt x="1425" y="1031" on="0"/>
        <pt x="1468" y="828" on="0"/>
        <pt x="1468" y="712" on="1"/>
        <pt x="1468" y="546" on="0"/>
        <pt x="1380" y="272" on="0"/>
        <pt x="1211" y="77" on="0"/>
        <pt x="961" y="-31" on="0"/>
        <pt x="799" y="-31" on="1"/>
        <pt x="690" y="-31" on="0"/>
        <pt x="597" y="-5" on="1"/>
        <pt x="553" y="-113" on="1"/>
        <pt x="543" y="-136" on="0"/>
        <pt x="508" y="-158" on="0"/>
        <pt x="489" y="-158" on="1"/>
        <pt x="463" y="-158" on="0"/>
        <pt x="423" y="-125" on="0"/>
        <pt x="423" y="-96" on="1"/>
        <pt x="423" y="-89" on="0"/>
        <pt x="425" y="-74" on="0"/>
        <pt x="429" y="-66" on="1"/>
        <pt x="473" y="44" on="1"/>
        <pt x="389" y="86" on="0"/>
        <pt x="260" y="217" on="0"/>
        <pt x="173" y="388" on="0"/>
        <pt x="128" y="594" on="0"/>
        <pt x="128" y="712" on="1"/>
        <pt x="128" y="879" on="0"/>
        <pt x="216" y="1153" on="0"/>
        <pt x="386" y="1349" on="0"/>
        <pt x="637" y="1456" on="0"/>
        <pt x="799" y="1456" on="1"/>
        <pt x="858" y="1456" on="0"/>
        <pt x="963" y="1441" on="0"/>
        <pt x="1011" y="1427" on="1"/>
        <pt x="1052" y="1526" on="1"/>
        <pt x="1062" y="1549" on="0"/>
        <pt x="1099" y="1571" on="0"/>
        <pt x="1119" y="1571" on="1"/>
        <pt x="1145" y="1571" on="0"/>
        <pt x="1187" y="1538" on="0"/>
        <pt x="1187" y="1509" on="1"/>
        <pt x="1187" y="1495" on="0"/>
        <pt x="1181" y="1479" on="1"/>
      </contour>
      <contour>
        <pt x="1282" y="712" on="1"/>
        <pt x="1282" y="787" on="0"/>
        <pt x="1256" y="933" on="0"/>
        <pt x="1202" y="1064" on="0"/>
        <pt x="1119" y="1173" on="0"/>
        <pt x="1061" y="1211" on="1"/>
        <pt x="659" y="133" on="1"/>
        <pt x="722" y="114" on="0"/>
        <pt x="799" y="114" on="1"/>
        <pt x="927" y="114" on="0"/>
        <pt x="1110" y="213" on="0"/>
        <pt x="1227" y="378" on="0"/>
        <pt x="1282" y="595" on="0"/>
      </contour>
      <contour>
        <pt x="316" y="712" on="1"/>
        <pt x="316" y="636" on="0"/>
        <pt x="343" y="486" on="0"/>
        <pt x="399" y="352" on="0"/>
        <pt x="487" y="241" on="0"/>
        <pt x="549" y="205" on="1"/>
        <pt x="949" y="1288" on="1"/>
        <pt x="882" y="1311" on="0"/>
        <pt x="799" y="1311" on="1"/>
        <pt x="670" y="1311" on="0"/>
        <pt x="487" y="1212" on="0"/>
        <pt x="370" y="1046" on="0"/>
        <pt x="316" y="829" on="0"/>
      </contour>
    </TTGlyph>
    <TTGlyph name="Otilde" xMin="128" yMin="-22" xMax="1468" yMax="1807">
      <component glyphName="O" x="0" y="0" flags="0x1204"/>
      <component glyphName="tilde" x="520" y="439" flags="0x1004"/>
    </TTGlyph>
    <TTGlyph name="P" xMin="195" yMin="0" xMax="1211" yMax="1426">
      <contour>
        <pt x="373" y="624" on="1"/>
        <pt x="373" y="84" on="1"/>
        <pt x="373" y="63" on="0"/>
        <pt x="358" y="31" on="0"/>
        <pt x="332" y="10" on="0"/>
        <pt x="300" y="0" on="0"/>
        <pt x="284" y="0" on="1"/>
        <pt x="250" y="0" on="0"/>
        <pt x="195" y="42" on="0"/>
        <pt x="195" y="84" on="1"/>
        <pt x="195" y="1339" on="1"/>
        <pt x="195" y="1357" on="0"/>
        <pt x="209" y="1389" on="0"/>
        <pt x="233" y="1412" on="0"/>
        <pt x="266" y="1426" on="0"/>
        <pt x="285" y="1426" on="1"/>
        <pt x="644" y="1426" on="1"/>
        <pt x="715" y="1426" on="0"/>
        <pt x="854" y="1410" on="0"/>
        <pt x="980" y="1372" on="0"/>
        <pt x="1087" y="1310" on="0"/>
        <pt x="1166" y="1219" on="0"/>
        <pt x="1211" y="1096" on="0"/>
        <pt x="1211" y="1026" on="1"/>
        <pt x="1211" y="954" on="0"/>
        <pt x="1166" y="831" on="0"/>
        <pt x="1086" y="739" on="0"/>
        <pt x="977" y="678" on="0"/>
        <pt x="849" y="640" on="0"/>
        <pt x="708" y="624" on="0"/>
        <pt x="636" y="624" on="1"/>
      </contour>
      <contour>
        <pt x="668" y="764" on="1"/>
        <pt x="740" y="764" on="0"/>
        <pt x="870" y="789" on="0"/>
        <pt x="968" y="851" on="0"/>
        <pt x="1025" y="956" on="0"/>
        <pt x="1025" y="1026" on="1"/>
        <pt x="1025" y="1095" on="0"/>
        <pt x="968" y="1199" on="0"/>
        <pt x="871" y="1261" on="0"/>
        <pt x="743" y="1286" on="0"/>
        <pt x="671" y="1286" on="1"/>
        <pt x="373" y="1286" on="1"/>
        <pt x="373" y="764" on="1"/>
      </contour>
    </TTGlyph>
    <TTGlyph name="Q" xMin="128" yMin="-22" xMax="1521" yMax="1438">
      <contour>
        <pt x="128" y="702" on="1"/>
        <pt x="128" y="861" on="0"/>
        <pt x="216" y="1135" on="0"/>
        <pt x="386" y="1331" on="0"/>
        <pt x="637" y="1438" on="0"/>
        <pt x="799" y="1438" on="1"/>
        <pt x="961" y="1438" on="0"/>
        <pt x="1210" y="1331" on="0"/>
        <pt x="1380" y="1136" on="0"/>
        <pt x="1467" y="863" on="0"/>
        <pt x="1467" y="704" on="1"/>
        <pt x="1467" y="627" on="0"/>
        <pt x="1432" y="462" on="0"/>
        <pt x="1369" y="318" on="0"/>
        <pt x="1278" y="195" on="0"/>
        <pt x="1223" y="142" on="1"/>
        <pt x="1449" y="142" on="1"/>
        <pt x="1485" y="142" on="0"/>
        <pt x="1521" y="98" on="0"/>
        <pt x="1521" y="72" on="1"/>
        <pt x="1521" y="44" on="0"/>
        <pt x="1485" y="1" on="0"/>
        <pt x="1449" y="0" on="1"/>
        <pt x="979" y="0" on="1"/>
        <pt x="927" y="-11" on="0"/>
        <pt x="844" y="-22" on="0"/>
        <pt x="799" y="-22" on="1"/>
        <pt x="637" y="-22" on="0"/>
        <pt x="386" y="82" on="0"/>
        <pt x="216" y="277" on="0"/>
        <pt x="128" y="551" on="0"/>
      </contour>
      <contour>
        <pt x="319" y="702" on="1"/>
        <pt x="319" y="600" on="0"/>
        <pt x="373" y="383" on="0"/>
        <pt x="489" y="218" on="0"/>
        <pt x="671" y="119" on="0"/>
        <pt x="799" y="119" on="1"/>
        <pt x="926" y="119" on="0"/>
        <pt x="1108" y="218" on="0"/>
        <pt x="1225" y="383" on="0"/>
        <pt x="1279" y="600" on="0"/>
        <pt x="1279" y="702" on="1"/>
        <pt x="1279" y="811" on="0"/>
        <pt x="1225" y="1028" on="0"/>
        <pt x="1108" y="1194" on="0"/>
        <pt x="926" y="1293" on="0"/>
        <pt x="799" y="1293" on="1"/>
        <pt x="671" y="1293" on="0"/>
        <pt x="489" y="1194" on="0"/>
        <pt x="373" y="1028" on="0"/>
        <pt x="319" y="811" on="0"/>
      </contour>
    </TTGlyph>
    <TTGlyph name="R" xMin="200" yMin="0" xMax="1223" yMax="1426">
      <contour>
        <pt x="200" y="1340" on="1"/>
        <pt x="200" y="1358" on="0"/>
        <pt x="214" y="1389" on="0"/>
        <pt x="238" y="1412" on="0"/>
        <pt x="271" y="1426" on="0"/>
        <pt x="289" y="1426" on="1"/>
        <pt x="717" y="1426" on="1"/>
        <pt x="809" y="1426" on="0"/>
        <pt x="990" y="1395" on="0"/>
        <pt x="1134" y="1313" on="0"/>
        <pt x="1223" y="1169" on="0"/>
        <pt x="1223" y="1056" on="1"/>
        <pt x="1223" y="938" on="0"/>
        <pt x="1071" y="775" on="0"/>
        <pt x="931" y="744" on="1"/>
        <pt x="931" y="740" on="1"/>
        <pt x="1003" y="729" on="0"/>
        <pt x="1096" y="676" on="0"/>
        <pt x="1152" y="596" on="0"/>
        <pt x="1179" y="490" on="0"/>
        <pt x="1187" y="426" on="1"/>
        <pt x="1195" y="348" on="0"/>
        <pt x="1207" y="222" on="0"/>
        <pt x="1211" y="178" on="1"/>
        <pt x="1215" y="127" on="0"/>
        <pt x="1218" y="87" on="1"/>
        <pt x="1218" y="44" on="0"/>
        <pt x="1164" y="0" on="0"/>
        <pt x="1128" y="0" on="1"/>
        <pt x="1096" y="0" on="0"/>
        <pt x="1040" y="40" on="0"/>
        <pt x="1036" y="81" on="1"/>
        <pt x="1024" y="203" on="0"/>
        <pt x="1009" y="387" on="0"/>
        <pt x="988" y="515" on="0"/>
        <pt x="953" y="597" on="0"/>
        <pt x="889" y="644" on="0"/>
        <pt x="789" y="662" on="0"/>
        <pt x="714" y="662" on="1"/>
        <pt x="377" y="662" on="1"/>
        <pt x="377" y="84" on="1"/>
        <pt x="377" y="63" on="0"/>
        <pt x="362" y="31" on="0"/>
        <pt x="336" y="10" on="0"/>
        <pt x="304" y="0" on="0"/>
        <pt x="288" y="0" on="1"/>
        <pt x="255" y="0" on="0"/>
        <pt x="200" y="42" on="0"/>
        <pt x="200" y="84" on="1"/>
      </contour>
      <contour>
        <pt x="639" y="801" on="1"/>
        <pt x="684" y="801" on="0"/>
        <pt x="778" y="805" on="0"/>
        <pt x="867" y="821" on="0"/>
        <pt x="945" y="853" on="0"/>
        <pt x="1004" y="907" on="0"/>
        <pt x="1038" y="987" on="0"/>
        <pt x="1038" y="1044" on="1"/>
        <pt x="1038" y="1100" on="0"/>
        <pt x="1008" y="1180" on="0"/>
        <pt x="958" y="1234" on="0"/>
        <pt x="891" y="1265" on="0"/>
        <pt x="816" y="1281" on="0"/>
        <pt x="739" y="1286" on="0"/>
        <pt x="703" y="1286" on="1"/>
        <pt x="377" y="1286" on="1"/>
        <pt x="377" y="801" on="1"/>
      </contour>
    </TTGlyph>
    <TTGlyph name="S" xMin="121" yMin="-22" xMax="1164" yMax="1438">
      <contour>
        <pt x="328" y="1074" on="1"/>
        <pt x="328" y="1010" on="0"/>
        <pt x="398" y="916" on="0"/>
        <pt x="513" y="850" on="0"/>
        <pt x="659" y="803" on="0"/>
        <pt x="736" y="779" on="1"/>
        <pt x="821" y="752" on="0"/>
        <pt x="976" y="690" on="0"/>
        <pt x="1094" y="597" on="0"/>
        <pt x="1164" y="464" on="0"/>
        <pt x="1164" y="366" on="1"/>
        <pt x="1164" y="283" on="0"/>
        <pt x="1083" y="134" on="0"/>
        <pt x="939" y="31" on="0"/>
        <pt x="743" y="-22" on="0"/>
        <pt x="629" y="-22" on="1"/>
        <pt x="547" y="-22" on="0"/>
        <pt x="401" y="7" on="0"/>
        <pt x="277" y="58" on="0"/>
        <pt x="175" y="126" on="0"/>
        <pt x="136" y="166" on="1"/>
        <pt x="128" y="174" on="0"/>
        <pt x="121" y="195" on="0"/>
        <pt x="121" y="206" on="1"/>
        <pt x="121" y="220" on="0"/>
        <pt x="132" y="249" on="0"/>
        <pt x="150" y="272" on="0"/>
        <pt x="172" y="287" on="0"/>
        <pt x="183" y="287" on="1"/>
        <pt x="201" y="287" on="0"/>
        <pt x="238" y="261" on="0"/>
        <pt x="256" y="248" on="1"/>
        <pt x="288" y="225" on="0"/>
        <pt x="364" y="180" on="0"/>
        <pt x="457" y="145" on="0"/>
        <pt x="568" y="124" on="0"/>
        <pt x="635" y="124" on="1"/>
        <pt x="708" y="124" on="0"/>
        <pt x="834" y="154" on="0"/>
        <pt x="926" y="214" on="0"/>
        <pt x="979" y="304" on="0"/>
        <pt x="979" y="355" on="1"/>
        <pt x="979" y="426" on="0"/>
        <pt x="909" y="524" on="0"/>
        <pt x="795" y="590" on="0"/>
        <pt x="649" y="637" on="0"/>
        <pt x="573" y="661" on="1"/>
        <pt x="490" y="688" on="0"/>
        <pt x="335" y="754" on="0"/>
        <pt x="216" y="848" on="0"/>
        <pt x="145" y="979" on="0"/>
        <pt x="145" y="1064" on="1"/>
        <pt x="145" y="1147" on="0"/>
        <pt x="227" y="1290" on="0"/>
        <pt x="364" y="1388" on="0"/>
        <pt x="543" y="1438" on="0"/>
        <pt x="640" y="1438" on="1"/>
        <pt x="789" y="1438" on="0"/>
        <pt x="1024" y="1344" on="0"/>
        <pt x="1115" y="1247" on="1"/>
        <pt x="1123" y="1238" on="0"/>
        <pt x="1128" y="1216" on="0"/>
        <pt x="1128" y="1203" on="1"/>
        <pt x="1128" y="1192" on="0"/>
        <pt x="1121" y="1166" on="0"/>
        <pt x="1104" y="1145" on="0"/>
        <pt x="1078" y="1131" on="0"/>
        <pt x="1060" y="1131" on="1"/>
        <pt x="1031" y="1131" on="0"/>
        <pt x="995" y="1167" on="1"/>
        <pt x="963" y="1191" on="0"/>
        <pt x="892" y="1236" on="0"/>
        <pt x="808" y="1269" on="0"/>
        <pt x="712" y="1289" on="0"/>
        <pt x="656" y="1289" on="1"/>
        <pt x="600" y="1289" on="0"/>
        <pt x="483" y="1263" on="0"/>
        <pt x="388" y="1209" on="0"/>
        <pt x="328" y="1123" on="0"/>
      </contour>
    </TTGlyph>
    <TTGlyph name="Scaron" xMin="120" yMin="-33" xMax="1163" yMax="1970">
      <component glyphName="caron" x="353" y="438" flags="0x1004"/>
      <component glyphName="S" x="-1" y="-11" flags="0x1004"/>
    </TTGlyph>
    <TTGlyph name="T" xMin="27" yMin="0" xMax="1131" yMax="1426">
      <contour>
        <pt x="101" y="1280" on="1"/>
        <pt x="64" y="1280" on="0"/>
        <pt x="27" y="1326" on="0"/>
        <pt x="27" y="1353" on="1"/>
        <pt x="27" y="1381" on="0"/>
        <pt x="64" y="1426" on="0"/>
        <pt x="101" y="1426" on="1"/>
        <pt x="1056" y="1426" on="1"/>
        <pt x="1094" y="1426" on="0"/>
        <pt x="1131" y="1381" on="0"/>
        <pt x="1131" y="1353" on="1"/>
        <pt x="1131" y="1326" on="0"/>
        <pt x="1093" y="1280" on="0"/>
        <pt x="1056" y="1280" on="1"/>
        <pt x="671" y="1280" on="1"/>
        <pt x="671" y="85" on="1"/>
        <pt x="671" y="64" on="0"/>
        <pt x="656" y="32" on="0"/>
        <pt x="630" y="11" on="0"/>
        <pt x="598" y="0" on="0"/>
        <pt x="582" y="0" on="1"/>
        <pt x="548" y="0" on="0"/>
        <pt x="493" y="43" on="0"/>
        <pt x="493" y="85" on="1"/>
        <pt x="493" y="1280" on="1"/>
      </contour>
    </TTGlyph>
    <TTGlyph name="Thorn" xMin="195" yMin="-1" xMax="1211" yMax="1434">
      <contour>
        <pt x="373" y="410" on="1"/>
        <pt x="373" y="83" on="1"/>
        <pt x="373" y="62" on="0"/>
        <pt x="358" y="30" on="0"/>
        <pt x="332" y="9" on="0"/>
        <pt x="300" y="-1" on="0"/>
        <pt x="284" y="-1" on="1"/>
        <pt x="250" y="-1" on="0"/>
        <pt x="195" y="41" on="0"/>
        <pt x="195" y="83" on="1"/>
        <pt x="195" y="1350" on="1"/>
        <pt x="195" y="1392" on="0"/>
        <pt x="250" y="1434" on="0"/>
        <pt x="283" y="1434" on="1"/>
        <pt x="300" y="1434" on="0"/>
        <pt x="332" y="1423" on="0"/>
        <pt x="358" y="1402" on="0"/>
        <pt x="373" y="1371" on="0"/>
        <pt x="373" y="1350" on="1"/>
        <pt x="373" y="1231" on="1"/>
        <pt x="644" y="1231" on="1"/>
        <pt x="715" y="1231" on="0"/>
        <pt x="854" y="1215" on="0"/>
        <pt x="980" y="1177" on="0"/>
        <pt x="1087" y="1115" on="0"/>
        <pt x="1166" y="1024" on="0"/>
        <pt x="1211" y="901" on="0"/>
        <pt x="1211" y="821" on="1"/>
        <pt x="1211" y="740" on="0"/>
        <pt x="1166" y="616" on="0"/>
        <pt x="1086" y="525" on="0"/>
        <pt x="977" y="463" on="0"/>
        <pt x="849" y="426" on="0"/>
        <pt x="708" y="410" on="0"/>
        <pt x="636" y="410" on="1"/>
      </contour>
      <contour>
        <pt x="668" y="550" on="1"/>
        <pt x="740" y="550" on="0"/>
        <pt x="870" y="575" on="0"/>
        <pt x="968" y="637" on="0"/>
        <pt x="1025" y="742" on="0"/>
        <pt x="1025" y="821" on="1"/>
        <pt x="1025" y="900" on="0"/>
        <pt x="968" y="1004" on="0"/>
        <pt x="871" y="1066" on="0"/>
        <pt x="743" y="1091" on="0"/>
        <pt x="671" y="1091" on="1"/>
        <pt x="373" y="1091" on="1"/>
        <pt x="373" y="550" on="1"/>
      </contour>
    </TTGlyph>
    <TTGlyph name="U" xMin="189" yMin="-22" xMax="1302" yMax="1426">
      <contour>
        <pt x="189" y="1341" on="1"/>
        <pt x="189" y="1362" on="0"/>
        <pt x="204" y="1394" on="0"/>
        <pt x="229" y="1415" on="0"/>
        <pt x="262" y="1426" on="0"/>
        <pt x="279" y="1426" on="1"/>
        <pt x="312" y="1426" on="0"/>
        <pt x="367" y="1384" on="0"/>
        <pt x="367" y="1341" on="1"/>
        <pt x="367" y="500" on="1"/>
        <pt x="367" y="403" on="0"/>
        <pt x="432" y="262" on="0"/>
        <pt x="538" y="169" on="0"/>
        <pt x="674" y="124" on="0"/>
        <pt x="745" y="124" on="1"/>
        <pt x="816" y="124" on="0"/>
        <pt x="952" y="169" on="0"/>
        <pt x="1059" y="262" on="0"/>
        <pt x="1124" y="403" on="0"/>
        <pt x="1124" y="500" on="1"/>
        <pt x="1124" y="1341" on="1"/>
        <pt x="1124" y="1362" on="0"/>
        <pt x="1139" y="1394" on="0"/>
        <pt x="1164" y="1415" on="0"/>
        <pt x="1197" y="1426" on="0"/>
        <pt x="1214" y="1426" on="1"/>
        <pt x="1247" y="1426" on="0"/>
        <pt x="1302" y="1384" on="0"/>
        <pt x="1302" y="1341" on="1"/>
        <pt x="1302" y="496" on="1"/>
        <pt x="1302" y="364" on="0"/>
        <pt x="1209" y="170" on="0"/>
        <pt x="1054" y="41" on="0"/>
        <pt x="853" y="-22" on="0"/>
        <pt x="745" y="-22" on="1"/>
        <pt x="637" y="-22" on="0"/>
        <pt x="436" y="41" on="0"/>
        <pt x="282" y="170" on="0"/>
        <pt x="189" y="364" on="0"/>
        <pt x="189" y="496" on="1"/>
      </contour>
    </TTGlyph>
    <TTGlyph name="Uacute" xMin="189" yMin="-22" xMax="1302" yMax="1939">
      <component glyphName="acute" x="441" y="439" flags="0x1004"/>
      <component glyphName="U" x="0" y="0" flags="0x1004"/>
    </TTGlyph>
    <TTGlyph name="Ucircumflex" xMin="189" yMin="-22" xMax="1302" yMax="1963">
      <component glyphName="circumflex" x="461" y="439" flags="0x1004"/>
      <component glyphName="U" x="0" y="0" flags="0x1004"/>
    </TTGlyph>
    <TTGlyph name="Udieresis" xMin="189" yMin="-22" xMax="1302" yMax="1835">
      <component glyphName="dieresis" x="460" y="439" flags="0x1004"/>
      <component glyphName="U" x="0" y="0" flags="0x1004"/>
    </TTGlyph>
    <TTGlyph name="Ugrave" xMin="189" yMin="-22" xMax="1302" yMax="1938">
      <component glyphName="U" x="0" y="0" flags="0x1204"/>
      <component glyphName="grave" x="485" y="439" flags="0x1004"/>
    </TTGlyph>
    <TTGlyph name="V" xMin="43" yMin="0" xMax="1244" yMax="1427">
      <contour>
        <pt x="649" y="153" on="1"/>
        <pt x="652" y="153" on="1"/>
        <pt x="1080" y="1366" on="1"/>
        <pt x="1091" y="1395" on="0"/>
        <pt x="1135" y="1426" on="0"/>
        <pt x="1161" y="1426" on="1"/>
        <pt x="1177" y="1426" on="0"/>
        <pt x="1207" y="1415" on="0"/>
        <pt x="1230" y="1395" on="0"/>
        <pt x="1244" y="1367" on="0"/>
        <pt x="1244" y="1351" on="1"/>
        <pt x="1244" y="1344" on="0"/>
        <pt x="1242" y="1332" on="0"/>
        <pt x="1239" y="1324" on="1"/>
        <pt x="791" y="107" on="1"/>
        <pt x="771" y="47" on="0"/>
        <pt x="695" y="0" on="0"/>
        <pt x="644" y="0" on="1"/>
        <pt x="597" y="0" on="0"/>
        <pt x="523" y="45" on="0"/>
        <pt x="501" y="107" on="1"/>
        <pt x="48" y="1318" on="1"/>
        <pt x="45" y="1324" on="0"/>
        <pt x="43" y="1338" on="0"/>
        <pt x="43" y="1344" on="1"/>
        <pt x="43" y="1362" on="0"/>
        <pt x="59" y="1392" on="0"/>
        <pt x="85" y="1415" on="0"/>
        <pt x="118" y="1427" on="0"/>
        <pt x="135" y="1427" on="1"/>
        <pt x="161" y="1427" on="0"/>
        <pt x="204" y="1398" on="0"/>
        <pt x="214" y="1370" on="1"/>
      </contour>
    </TTGlyph>
    <TTGlyph name="W" xMin="39" yMin="0" xMax="2021" yMax="1426">
      <contour>
        <pt x="1024" y="1254" on="1"/>
        <pt x="658" y="112" on="1"/>
        <pt x="642" y="58" on="0"/>
        <pt x="554" y="0" on="0"/>
        <pt x="505" y="0" on="1"/>
        <pt x="459" y="0" on="0"/>
        <pt x="382" y="54" on="0"/>
        <pt x="366" y="112" on="1"/>
        <pt x="43" y="1318" on="1"/>
        <pt x="39" y="1329" on="0"/>
        <pt x="39" y="1341" on="1"/>
        <pt x="39" y="1360" on="0"/>
        <pt x="57" y="1391" on="0"/>
        <pt x="85" y="1413" on="0"/>
        <pt x="120" y="1426" on="0"/>
        <pt x="137" y="1426" on="1"/>
        <pt x="161" y="1426" on="0"/>
        <pt x="199" y="1400" on="0"/>
        <pt x="207" y="1371" on="1"/>
        <pt x="519" y="153" on="1"/>
        <pt x="900" y="1322" on="1"/>
        <pt x="914" y="1374" on="0"/>
        <pt x="985" y="1426" on="0"/>
        <pt x="1026" y="1426" on="1"/>
        <pt x="1067" y="1426" on="0"/>
        <pt x="1139" y="1374" on="0"/>
        <pt x="1155" y="1322" on="1"/>
        <pt x="1551" y="154" on="1"/>
        <pt x="1860" y="1366" on="1"/>
        <pt x="1868" y="1398" on="0"/>
        <pt x="1909" y="1426" on="0"/>
        <pt x="1934" y="1426" on="1"/>
        <pt x="1950" y="1426" on="0"/>
        <pt x="1981" y="1415" on="0"/>
        <pt x="2006" y="1395" on="0"/>
        <pt x="2021" y="1367" on="0"/>
        <pt x="2021" y="1350" on="1"/>
        <pt x="2021" y="1345" on="0"/>
        <pt x="2019" y="1333" on="0"/>
        <pt x="2017" y="1327" on="1"/>
        <pt x="1689" y="113" on="1"/>
        <pt x="1681" y="85" on="0"/>
        <pt x="1652" y="42" on="0"/>
        <pt x="1614" y="14" on="0"/>
        <pt x="1569" y="0" on="0"/>
        <pt x="1545" y="0" on="1"/>
        <pt x="1498" y="0" on="0"/>
        <pt x="1416" y="56" on="0"/>
        <pt x="1399" y="113" on="1"/>
      </contour>
    </TTGlyph>
    <TTGlyph name="X" xMin="68" yMin="0" xMax="1200" yMax="1426">
      <contour>
        <pt x="222" y="41" on="1"/>
        <pt x="207" y="19" on="0"/>
        <pt x="170" y="0" on="0"/>
        <pt x="151" y="0" on="1"/>
        <pt x="135" y="0" on="0"/>
        <pt x="105" y="12" on="0"/>
        <pt x="82" y="33" on="0"/>
        <pt x="68" y="61" on="0"/>
        <pt x="68" y="76" on="1"/>
        <pt x="68" y="99" on="0"/>
        <pt x="84" y="121" on="1"/>
        <pt x="529" y="734" on="1"/>
        <pt x="114" y="1303" on="1"/>
        <pt x="100" y="1321" on="0"/>
        <pt x="100" y="1343" on="1"/>
        <pt x="100" y="1360" on="0"/>
        <pt x="117" y="1390" on="0"/>
        <pt x="144" y="1413" on="0"/>
        <pt x="179" y="1426" on="0"/>
        <pt x="197" y="1426" on="1"/>
        <pt x="218" y="1426" on="0"/>
        <pt x="257" y="1407" on="0"/>
        <pt x="272" y="1385" on="1"/>
        <pt x="648" y="844" on="1"/>
        <pt x="1037" y="1385" on="1"/>
        <pt x="1053" y="1407" on="0"/>
        <pt x="1090" y="1426" on="0"/>
        <pt x="1110" y="1426" on="1"/>
        <pt x="1126" y="1426" on="0"/>
        <pt x="1155" y="1414" on="0"/>
        <pt x="1177" y="1395" on="0"/>
        <pt x="1190" y="1368" on="0"/>
        <pt x="1190" y="1353" on="1"/>
        <pt x="1190" y="1342" on="0"/>
        <pt x="1183" y="1321" on="0"/>
        <pt x="1175" y="1310" on="1"/>
        <pt x="746" y="734" on="1"/>
        <pt x="1186" y="126" on="1"/>
        <pt x="1200" y="106" on="0"/>
        <pt x="1200" y="85" on="1"/>
        <pt x="1200" y="68" on="0"/>
        <pt x="1183" y="37" on="0"/>
        <pt x="1156" y="14" on="0"/>
        <pt x="1122" y="0" on="0"/>
        <pt x="1104" y="0" on="1"/>
        <pt x="1062" y="0" on="0"/>
        <pt x="1033" y="40" on="1"/>
        <pt x="628" y="618" on="1"/>
      </contour>
    </TTGlyph>
    <TTGlyph name="Y" xMin="75" yMin="0" xMax="1212" yMax="1426">
      <contour>
        <pt x="730" y="607" on="1"/>
        <pt x="730" y="85" on="1"/>
        <pt x="730" y="64" on="0"/>
        <pt x="715" y="32" on="0"/>
        <pt x="689" y="11" on="0"/>
        <pt x="657" y="0" on="0"/>
        <pt x="640" y="0" on="1"/>
        <pt x="606" y="0" on="0"/>
        <pt x="551" y="43" on="0"/>
        <pt x="551" y="85" on="1"/>
        <pt x="551" y="602" on="1"/>
        <pt x="87" y="1307" on="1"/>
        <pt x="81" y="1316" on="0"/>
        <pt x="76" y="1335" on="0"/>
        <pt x="75" y="1344" on="1"/>
        <pt x="75" y="1361" on="0"/>
        <pt x="92" y="1391" on="0"/>
        <pt x="121" y="1413" on="0"/>
        <pt x="156" y="1426" on="0"/>
        <pt x="174" y="1426" on="1"/>
        <pt x="196" y="1426" on="0"/>
        <pt x="236" y="1405" on="0"/>
        <pt x="249" y="1382" on="1"/>
        <pt x="652" y="746" on="1"/>
        <pt x="654" y="746" on="1"/>
        <pt x="1058" y="1383" on="1"/>
        <pt x="1071" y="1406" on="0"/>
        <pt x="1109" y="1426" on="0"/>
        <pt x="1130" y="1426" on="1"/>
        <pt x="1145" y="1426" on="0"/>
        <pt x="1175" y="1416" on="0"/>
        <pt x="1198" y="1398" on="0"/>
        <pt x="1212" y="1373" on="0"/>
        <pt x="1212" y="1358" on="1"/>
        <pt x="1211" y="1349" on="0"/>
        <pt x="1206" y="1330" on="0"/>
        <pt x="1200" y="1320" on="1"/>
      </contour>
    </TTGlyph>
    <TTGlyph name="Yacute" xMin="75" yMin="0" xMax="1212" yMax="1938">
      <component glyphName="Y" x="0" y="0" flags="0x1204"/>
      <component glyphName="acute" x="331" y="438" flags="0x1004"/>
    </TTGlyph>
    <TTGlyph name="Ydieresis" xMin="75" yMin="0" xMax="1212" yMax="1835">
      <component glyphName="Y" x="0" y="0" flags="0x1204"/>
      <component glyphName="dieresis" x="353" y="439" flags="0x1004"/>
    </TTGlyph>
    <TTGlyph name="Z" xMin="71" yMin="0" xMax="1097" yMax="1426">
      <contour>
        <pt x="179" y="0" on="1"/>
        <pt x="150" y="0" on="0"/>
        <pt x="110" y="15" on="0"/>
        <pt x="83" y="40" on="0"/>
        <pt x="71" y="73" on="0"/>
        <pt x="71" y="90" on="1"/>
        <pt x="71" y="124" on="0"/>
        <pt x="91" y="153" on="1"/>
        <pt x="876" y="1281" on="1"/>
        <pt x="152" y="1281" on="1"/>
        <pt x="116" y="1281" on="0"/>
        <pt x="79" y="1326" on="0"/>
        <pt x="79" y="1354" on="1"/>
        <pt x="79" y="1381" on="0"/>
        <pt x="115" y="1426" on="0"/>
        <pt x="152" y="1426" on="1"/>
        <pt x="1006" y="1426" on="1"/>
        <pt x="1048" y="1426" on="0"/>
        <pt x="1097" y="1379" on="0"/>
        <pt x="1097" y="1343" on="1"/>
        <pt x="1097" y="1327" on="0"/>
        <pt x="1086" y="1291" on="0"/>
        <pt x="1073" y="1273" on="1"/>
        <pt x="285" y="145" on="1"/>
        <pt x="1014" y="145" on="1"/>
        <pt x="1051" y="145" on="0"/>
        <pt x="1088" y="100" on="0"/>
        <pt x="1088" y="73" on="1"/>
        <pt x="1088" y="45" on="0"/>
        <pt x="1051" y="0" on="0"/>
        <pt x="1014" y="0" on="1"/>
      </contour>
    </TTGlyph>
    <TTGlyph name="Zcaron" xMin="71" yMin="0" xMax="1097" yMax="1970">
      <component glyphName="caron" x="299" y="438" flags="0x1004"/>
      <component glyphName="Z" x="0" y="0" flags="0x1004"/>
    </TTGlyph>
    <TTGlyph name="a" xMin="70" yMin="-22" xMax="894" yMax="1013">
      <contour>
        <pt x="739" y="688" on="1"/>
        <pt x="739" y="745" on="0"/>
        <pt x="706" y="823" on="0"/>
        <pt x="646" y="869" on="0"/>
        <pt x="562" y="889" on="0"/>
        <pt x="511" y="889" on="1"/>
        <pt x="460" y="889" on="0"/>
        <pt x="379" y="878" on="0"/>
        <pt x="311" y="852" on="0"/>
        <pt x="252" y="823" on="0"/>
        <pt x="222" y="805" on="1"/>
        <pt x="205" y="795" on="0"/>
        <pt x="187" y="795" on="1"/>
        <pt x="162" y="795" on="0"/>
        <pt x="128" y="829" on="0"/>
        <pt x="128" y="852" on="1"/>
        <pt x="128" y="875" on="0"/>
        <pt x="148" y="894" on="1"/>
        <pt x="210" y="954" on="0"/>
        <pt x="398" y="1013" on="0"/>
        <pt x="516" y="1013" on="1"/>
        <pt x="603" y="1013" on="0"/>
        <pt x="742" y="974" on="0"/>
        <pt x="841" y="891" on="0"/>
        <pt x="894" y="763" on="0"/>
        <pt x="894" y="673" on="1"/>
        <pt x="893" y="71" on="1"/>
        <pt x="893" y="36" on="0"/>
        <pt x="844" y="0" on="0"/>
        <pt x="815" y="0" on="1"/>
        <pt x="787" y="0" on="0"/>
        <pt x="740" y="33" on="0"/>
        <pt x="740" y="68" on="1"/>
        <pt x="740" y="160" on="1"/>
        <pt x="719" y="116" on="0"/>
        <pt x="650" y="48" on="0"/>
        <pt x="563" y="2" on="0"/>
        <pt x="462" y="-22" on="0"/>
        <pt x="411" y="-22" on="1"/>
        <pt x="339" y="-22" on="0"/>
        <pt x="215" y="17" on="0"/>
        <pt x="123" y="94" on="0"/>
        <pt x="70" y="205" on="0"/>
        <pt x="70" y="276" on="1"/>
        <pt x="70" y="368" on="0"/>
        <pt x="151" y="493" on="0"/>
        <pt x="297" y="570" on="0"/>
        <pt x="502" y="604" on="0"/>
        <pt x="626" y="604" on="1"/>
        <pt x="652" y="604" on="0"/>
        <pt x="711" y="602" on="0"/>
        <pt x="739" y="601" on="1"/>
      </contour>
      <contour>
        <pt x="738" y="484" on="1"/>
        <pt x="693" y="482" on="0"/>
        <pt x="584" y="483" on="0"/>
        <pt x="471" y="477" on="0"/>
        <pt x="365" y="457" on="0"/>
        <pt x="282" y="413" on="0"/>
        <pt x="232" y="338" on="0"/>
        <pt x="232" y="280" on="1"/>
        <pt x="232" y="234" on="0"/>
        <pt x="266" y="169" on="0"/>
        <pt x="324" y="125" on="0"/>
        <pt x="403" y="103" on="0"/>
        <pt x="447" y="102" on="1"/>
        <pt x="506" y="103" on="0"/>
        <pt x="610" y="141" on="0"/>
        <pt x="688" y="211" on="0"/>
        <pt x="735" y="321" on="0"/>
        <pt x="738" y="397" on="1"/>
      </contour>
    </TTGlyph>
    <TTGlyph name="aacute" xMin="70" yMin="-22" xMax="894" yMax="1500">
      <component glyphName="a" x="0" y="0" flags="0x1204"/>
      <component glyphName="acute" x="228" y="0" flags="0x1004"/>
    </TTGlyph>
    <TTGlyph name="acircumflex" xMin="70" yMin="-22" xMax="894" yMax="1524">
      <component glyphName="a" x="0" y="0" flags="0x1204"/>
      <component glyphName="circumflex" x="236" y="0" flags="0x1004"/>
    </TTGlyph>
    <TTGlyph name="acute" xMin="83" yMin="1103" xMax="505" yMax="1500">
      <contour>
        <pt x="161" y="1120" on="1"/>
        <pt x="140" y="1103" on="0"/>
        <pt x="120" y="1103" on="1"/>
        <pt x="103" y="1103" on="0"/>
        <pt x="83" y="1125" on="0"/>
        <pt x="83" y="1141" on="1"/>
        <pt x="83" y="1148" on="0"/>
        <pt x="88" y="1165" on="0"/>
        <pt x="95" y="1173" on="1"/>
        <pt x="364" y="1474" on="1"/>
        <pt x="387" y="1500" on="0"/>
        <pt x="415" y="1499" on="1"/>
        <pt x="432" y="1499" on="0"/>
        <pt x="464" y="1484" on="0"/>
        <pt x="490" y="1459" on="0"/>
        <pt x="505" y="1428" on="0"/>
        <pt x="505" y="1412" on="1"/>
        <pt x="505" y="1400" on="0"/>
        <pt x="495" y="1376" on="0"/>
        <pt x="483" y="1367" on="1"/>
      </contour>
    </TTGlyph>
    <TTGlyph name="adieresis" xMin="70" yMin="-22" xMax="894" yMax="1396">
      <component glyphName="a" x="0" y="0" flags="0x1204"/>
      <component glyphName="dieresis" x="236" y="0" flags="0x1004"/>
    </TTGlyph>
    <TTGlyph name="ae" xMin="70" yMin="-28" xMax="1592" yMax="1020">
      <contour>
        <pt x="739" y="690" on="1"/>
        <pt x="739" y="747" on="0"/>
        <pt x="706" y="825" on="0"/>
        <pt x="646" y="871" on="0"/>
        <pt x="562" y="891" on="0"/>
        <pt x="511" y="891" on="1"/>
        <pt x="460" y="891" on="0"/>
        <pt x="379" y="878" on="0"/>
        <pt x="311" y="855" on="0"/>
        <pt x="252" y="823" on="0"/>
        <pt x="222" y="805" on="1"/>
        <pt x="203" y="794" on="0"/>
        <pt x="187" y="794" on="1"/>
        <pt x="163" y="794" on="0"/>
        <pt x="129" y="829" on="0"/>
        <pt x="129" y="852" on="1"/>
        <pt x="129" y="875" on="0"/>
        <pt x="148" y="894" on="1"/>
        <pt x="209" y="955" on="0"/>
        <pt x="398" y="1020" on="0"/>
        <pt x="516" y="1020" on="1"/>
        <pt x="638" y="1020" on="0"/>
        <pt x="803" y="934" on="0"/>
        <pt x="841" y="840" on="1"/>
        <pt x="896" y="921" on="0"/>
        <pt x="1062" y="1020" on="0"/>
        <pt x="1174" y="1020" on="1"/>
        <pt x="1281" y="1020" on="0"/>
        <pt x="1437" y="944" on="0"/>
        <pt x="1539" y="811" on="0"/>
        <pt x="1589" y="630" on="0"/>
        <pt x="1592" y="526" on="1"/>
        <pt x="1592" y="503" on="0"/>
        <pt x="1563" y="463" on="0"/>
        <pt x="1529" y="463" on="1"/>
        <pt x="904" y="463" on="1"/>
        <pt x="905" y="388" on="0"/>
        <pt x="938" y="255" on="0"/>
        <pt x="1008" y="157" on="0"/>
        <pt x="1119" y="100" on="0"/>
        <pt x="1199" y="100" on="1"/>
        <pt x="1236" y="100" on="0"/>
        <pt x="1311" y="117" on="0"/>
        <pt x="1379" y="146" on="0"/>
        <pt x="1439" y="181" on="0"/>
        <pt x="1463" y="199" on="1"/>
        <pt x="1474" y="207" on="0"/>
        <pt x="1495" y="214" on="0"/>
        <pt x="1504" y="214" on="1"/>
        <pt x="1526" y="214" on="0"/>
        <pt x="1553" y="184" on="0"/>
        <pt x="1553" y="163" on="1"/>
        <pt x="1553" y="138" on="0"/>
        <pt x="1533" y="115" on="1"/>
        <pt x="1509" y="86" on="0"/>
        <pt x="1433" y="34" on="0"/>
        <pt x="1336" y="-5" on="0"/>
        <pt x="1221" y="-28" on="0"/>
        <pt x="1157" y="-28" on="1"/>
        <pt x="1095" y="-28" on="0"/>
        <pt x="990" y="5" on="0"/>
        <pt x="905" y="65" on="0"/>
        <pt x="839" y="148" on="0"/>
        <pt x="815" y="199" on="1"/>
        <pt x="786" y="137" on="0"/>
        <pt x="696" y="51" on="0"/>
        <pt x="589" y="-3" on="0"/>
        <pt x="473" y="-28" on="0"/>
        <pt x="419" y="-28" on="1"/>
        <pt x="344" y="-28" on="0"/>
        <pt x="217" y="13" on="0"/>
        <pt x="123" y="91" on="0"/>
        <pt x="70" y="204" on="0"/>
        <pt x="70" y="276" on="1"/>
        <pt x="70" y="368" on="0"/>
        <pt x="151" y="496" on="0"/>
        <pt x="297" y="575" on="0"/>
        <pt x="502" y="611" on="0"/>
        <pt x="626" y="611" on="1"/>
        <pt x="652" y="611" on="0"/>
        <pt x="711" y="609" on="0"/>
        <pt x="739" y="608" on="1"/>
      </contour>
      <contour>
        <pt x="1436" y="579" on="1"/>
        <pt x="1431" y="648" on="0"/>
        <pt x="1396" y="765" on="0"/>
        <pt x="1332" y="850" on="0"/>
        <pt x="1239" y="898" on="0"/>
        <pt x="1176" y="898" on="1"/>
        <pt x="1113" y="898" on="0"/>
        <pt x="1017" y="846" on="0"/>
        <pt x="950" y="758" on="0"/>
        <pt x="912" y="642" on="0"/>
        <pt x="907" y="579" on="1"/>
      </contour>
      <contour>
        <pt x="738" y="491" on="1"/>
        <pt x="693" y="489" on="0"/>
        <pt x="584" y="489" on="0"/>
        <pt x="471" y="481" on="0"/>
        <pt x="365" y="460" on="0"/>
        <pt x="282" y="414" on="0"/>
        <pt x="232" y="338" on="0"/>
        <pt x="232" y="280" on="1"/>
        <pt x="232" y="233" on="0"/>
        <pt x="266" y="163" on="0"/>
        <pt x="324" y="116" on="0"/>
        <pt x="403" y="93" on="0"/>
        <pt x="447" y="92" on="1"/>
        <pt x="506" y="93" on="0"/>
        <pt x="610" y="132" on="0"/>
        <pt x="688" y="208" on="0"/>
        <pt x="735" y="321" on="0"/>
        <pt x="738" y="397" on="1"/>
      </contour>
    </TTGlyph>
    <TTGlyph name="agrave" xMin="70" yMin="-22" xMax="894" yMax="1499">
      <component glyphName="a" x="0" y="0" flags="0x1204"/>
      <component glyphName="grave" x="249" y="0" flags="0x1004"/>
    </TTGlyph>
    <TTGlyph name="ampersand" xMin="104" yMin="-29" xMax="1403" yMax="1509">
      <contour>
        <pt x="1215" y="881" on="1"/>
        <pt x="1218" y="916" on="0"/>
        <pt x="1262" y="948" on="0"/>
        <pt x="1288" y="948" on="1"/>
        <pt x="1303" y="948" on="0"/>
        <pt x="1331" y="938" on="0"/>
        <pt x="1354" y="919" on="0"/>
        <pt x="1368" y="892" on="0"/>
        <pt x="1368" y="874" on="1"/>
        <pt x="1368" y="867" on="1"/>
        <pt x="1368" y="864" on="0"/>
        <pt x="1367" y="861" on="1"/>
        <pt x="1362" y="809" on="0"/>
        <pt x="1347" y="672" on="0"/>
        <pt x="1315" y="524" on="0"/>
        <pt x="1263" y="373" on="0"/>
        <pt x="1223" y="306" on="1"/>
        <pt x="1382" y="134" on="1"/>
        <pt x="1393" y="121" on="0"/>
        <pt x="1403" y="94" on="0"/>
        <pt x="1403" y="80" on="1"/>
        <pt x="1403" y="63" on="0"/>
        <pt x="1389" y="32" on="0"/>
        <pt x="1366" y="8" on="0"/>
        <pt x="1335" y="-6" on="0"/>
        <pt x="1319" y="-6" on="1"/>
        <pt x="1304" y="-6" on="0"/>
        <pt x="1274" y="7" on="0"/>
        <pt x="1260" y="22" on="1"/>
        <pt x="1111" y="186" on="1"/>
        <pt x="1020" y="83" on="0"/>
        <pt x="800" y="-29" on="0"/>
        <pt x="656" y="-29" on="1"/>
        <pt x="543" y="-29" on="0"/>
        <pt x="342" y="30" on="0"/>
        <pt x="192" y="141" on="0"/>
        <pt x="104" y="303" on="0"/>
        <pt x="104" y="406" on="1"/>
        <pt x="104" y="491" on="0"/>
        <pt x="170" y="623" on="0"/>
        <pt x="275" y="729" on="0"/>
        <pt x="407" y="820" on="0"/>
        <pt x="473" y="865" on="1"/>
        <pt x="437" y="904" on="0"/>
        <pt x="366" y="988" on="0"/>
        <pt x="309" y="1079" on="0"/>
        <pt x="274" y="1178" on="0"/>
        <pt x="274" y="1232" on="1"/>
        <pt x="274" y="1302" on="0"/>
        <pt x="334" y="1407" on="0"/>
        <pt x="433" y="1475" on="0"/>
        <pt x="558" y="1509" on="0"/>
        <pt x="624" y="1509" on="1"/>
        <pt x="689" y="1509" on="0"/>
        <pt x="816" y="1477" on="0"/>
        <pt x="917" y="1411" on="0"/>
        <pt x="979" y="1309" on="0"/>
        <pt x="979" y="1239" on="1"/>
        <pt x="979" y="1175" on="0"/>
        <pt x="933" y="1065" on="0"/>
        <pt x="856" y="970" on="0"/>
        <pt x="758" y="887" on="0"/>
        <pt x="707" y="849" on="1"/>
        <pt x="1115" y="415" on="1"/>
        <pt x="1138" y="464" on="0"/>
        <pt x="1174" y="581" on="0"/>
        <pt x="1199" y="703" on="0"/>
        <pt x="1214" y="825" on="0"/>
      </contour>
      <contour>
        <pt x="576" y="758" on="1"/>
        <pt x="539" y="735" on="0"/>
        <pt x="438" y="662" on="0"/>
        <pt x="346" y="573" on="0"/>
        <pt x="282" y="476" on="0"/>
        <pt x="282" y="431" on="1"/>
        <pt x="282" y="355" on="0"/>
        <pt x="343" y="236" on="0"/>
        <pt x="444" y="153" on="0"/>
        <pt x="576" y="110" on="0"/>
        <pt x="647" y="110" on="1"/>
        <pt x="705" y="110" on="0"/>
        <pt x="806" y="135" on="0"/>
        <pt x="895" y="180" on="0"/>
        <pt x="977" y="245" on="0"/>
        <pt x="1017" y="286" on="1"/>
      </contour>
      <contour>
        <pt x="449" y="1230" on="1"/>
        <pt x="449" y="1193" on="0"/>
        <pt x="478" y="1116" on="0"/>
        <pt x="524" y="1042" on="0"/>
        <pt x="580" y="975" on="0"/>
        <pt x="606" y="948" on="1"/>
        <pt x="638" y="978" on="0"/>
        <pt x="708" y="1040" on="0"/>
        <pt x="767" y="1108" on="0"/>
        <pt x="806" y="1185" on="0"/>
        <pt x="806" y="1230" on="1"/>
        <pt x="806" y="1266" on="0"/>
        <pt x="776" y="1320" on="0"/>
        <pt x="726" y="1356" on="0"/>
        <pt x="663" y="1373" on="0"/>
        <pt x="630" y="1373" on="1"/>
        <pt x="595" y="1373" on="0"/>
        <pt x="530" y="1357" on="0"/>
        <pt x="479" y="1323" on="0"/>
        <pt x="449" y="1269" on="0"/>
      </contour>
    </TTGlyph>
    <TTGlyph name="aring" xMin="70" yMin="-22" xMax="894" yMax="1470">
      <component glyphName="a" x="0" y="0" flags="0x1204"/>
      <component glyphName="ring" x="236" y="0" flags="0x1004"/>
    </TTGlyph>
    <TTGlyph name="asciicircum" xMin="187" yMin="492" xMax="1148" yMax="1395">
      <contour>
        <pt x="668" y="1235" on="1"/>
        <pt x="319" y="534" on="1"/>
        <pt x="309" y="511" on="0"/>
        <pt x="275" y="492" on="0"/>
        <pt x="257" y="492" on="1"/>
        <pt x="231" y="492" on="0"/>
        <pt x="187" y="527" on="0"/>
        <pt x="187" y="556" on="1"/>
        <pt x="187" y="569" on="0"/>
        <pt x="193" y="584" on="1"/>
        <pt x="584" y="1340" on="1"/>
        <pt x="598" y="1367" on="0"/>
        <pt x="643" y="1395" on="0"/>
        <pt x="668" y="1395" on="1"/>
        <pt x="694" y="1395" on="0"/>
        <pt x="739" y="1367" on="0"/>
        <pt x="753" y="1340" on="1"/>
        <pt x="1142" y="584" on="1"/>
        <pt x="1148" y="569" on="0"/>
        <pt x="1148" y="557" on="1"/>
        <pt x="1148" y="543" on="0"/>
        <pt x="1136" y="519" on="0"/>
        <pt x="1116" y="502" on="0"/>
        <pt x="1090" y="492" on="0"/>
        <pt x="1077" y="492" on="1"/>
        <pt x="1058" y="492" on="0"/>
        <pt x="1026" y="512" on="0"/>
        <pt x="1015" y="534" on="1"/>
      </contour>
    </TTGlyph>
    <TTGlyph name="asciitilde" xMin="360" yMin="1180" xMax="937" yMax="1363">
      <contour>
        <pt x="779" y="1297" on="1"/>
        <pt x="798" y="1297" on="0"/>
        <pt x="829" y="1313" on="0"/>
        <pt x="842" y="1332" on="1"/>
        <pt x="853" y="1349" on="0"/>
        <pt x="879" y="1363" on="0"/>
        <pt x="891" y="1363" on="1"/>
        <pt x="910" y="1363" on="0"/>
        <pt x="937" y="1334" on="0"/>
        <pt x="937" y="1315" on="1"/>
        <pt x="937" y="1310" on="0"/>
        <pt x="935" y="1301" on="0"/>
        <pt x="933" y="1296" on="1"/>
        <pt x="912" y="1243" on="0"/>
        <pt x="833" y="1180" on="0"/>
        <pt x="767" y="1180" on="1"/>
        <pt x="738" y="1180" on="0"/>
        <pt x="675" y="1202" on="0"/>
        <pt x="613" y="1227" on="0"/>
        <pt x="554" y="1249" on="0"/>
        <pt x="527" y="1249" on="1"/>
        <pt x="505" y="1249" on="0"/>
        <pt x="468" y="1230" on="0"/>
        <pt x="451" y="1209" on="1"/>
        <pt x="432" y="1186" on="0"/>
        <pt x="407" y="1186" on="1"/>
        <pt x="388" y="1186" on="0"/>
        <pt x="360" y="1211" on="0"/>
        <pt x="360" y="1230" on="1"/>
        <pt x="360" y="1240" on="0"/>
        <pt x="366" y="1252" on="1"/>
        <pt x="392" y="1306" on="0"/>
        <pt x="472" y="1363" on="0"/>
        <pt x="533" y="1363" on="1"/>
        <pt x="567" y="1363" on="0"/>
        <pt x="634" y="1342" on="0"/>
        <pt x="697" y="1318" on="0"/>
        <pt x="754" y="1297" on="0"/>
      </contour>
    </TTGlyph>
    <TTGlyph name="asterisk" xMin="143" yMin="737" xMax="962" yMax="1437">
      <contour>
        <pt x="654" y="1139" on="1"/>
        <pt x="898" y="1148" on="1"/>
        <pt x="925" y="1148" on="0"/>
        <pt x="962" y="1113" on="0"/>
        <pt x="962" y="1086" on="1"/>
        <pt x="962" y="1061" on="0"/>
        <pt x="925" y="1025" on="0"/>
        <pt x="898" y="1025" on="1"/>
        <pt x="652" y="1034" on="1"/>
        <pt x="778" y="830" on="1"/>
        <pt x="787" y="813" on="0"/>
        <pt x="787" y="797" on="1"/>
        <pt x="787" y="775" on="0"/>
        <pt x="753" y="737" on="0"/>
        <pt x="724" y="737" on="1"/>
        <pt x="707" y="737" on="0"/>
        <pt x="677" y="753" on="0"/>
        <pt x="669" y="768" on="1"/>
        <pt x="551" y="979" on="1"/>
        <pt x="434" y="768" on="1"/>
        <pt x="426" y="753" on="0"/>
        <pt x="395" y="738" on="0"/>
        <pt x="378" y="737" on="1"/>
        <pt x="363" y="737" on="0"/>
        <pt x="340" y="748" on="0"/>
        <pt x="324" y="766" on="0"/>
        <pt x="315" y="787" on="0"/>
        <pt x="315" y="797" on="1"/>
        <pt x="315" y="813" on="0"/>
        <pt x="324" y="830" on="1"/>
        <pt x="451" y="1034" on="1"/>
        <pt x="207" y="1025" on="1"/>
        <pt x="181" y="1025" on="0"/>
        <pt x="143" y="1061" on="0"/>
        <pt x="143" y="1086" on="1"/>
        <pt x="143" y="1113" on="0"/>
        <pt x="180" y="1148" on="0"/>
        <pt x="207" y="1148" on="1"/>
        <pt x="448" y="1139" on="1"/>
        <pt x="322" y="1343" on="1"/>
        <pt x="313" y="1358" on="0"/>
        <pt x="313" y="1375" on="1"/>
        <pt x="313" y="1398" on="0"/>
        <pt x="348" y="1437" on="0"/>
        <pt x="376" y="1437" on="1"/>
        <pt x="393" y="1437" on="0"/>
        <pt x="423" y="1421" on="0"/>
        <pt x="432" y="1405" on="1"/>
        <pt x="551" y="1189" on="1"/>
        <pt x="670" y="1405" on="1"/>
        <pt x="691" y="1437" on="0"/>
        <pt x="726" y="1437" on="1"/>
        <pt x="754" y="1437" on="0"/>
        <pt x="789" y="1398" on="0"/>
        <pt x="789" y="1374" on="1"/>
        <pt x="789" y="1356" on="0"/>
        <pt x="781" y="1343" on="1"/>
      </contour>
    </TTGlyph>
    <TTGlyph name="at" xMin="58" yMin="-25" xMax="1549" yMax="1512">
      <contour>
        <pt x="538" y="604" on="1"/>
        <pt x="538" y="567" on="0"/>
        <pt x="559" y="498" on="0"/>
        <pt x="600" y="446" on="0"/>
        <pt x="658" y="414" on="0"/>
        <pt x="695" y="414" on="1"/>
        <pt x="732" y="414" on="0"/>
        <pt x="812" y="437" on="0"/>
        <pt x="884" y="483" on="0"/>
        <pt x="941" y="551" on="0"/>
        <pt x="956" y="596" on="1"/>
        <pt x="1037" y="844" on="1"/>
        <pt x="1046" y="872" on="0"/>
        <pt x="1046" y="898" on="1"/>
        <pt x="1046" y="935" on="0"/>
        <pt x="1013" y="994" on="0"/>
        <pt x="964" y="1035" on="0"/>
        <pt x="904" y="1057" on="0"/>
        <pt x="877" y="1057" on="1"/>
        <pt x="826" y="1057" on="0"/>
        <pt x="736" y="1015" on="0"/>
        <pt x="661" y="944" on="0"/>
        <pt x="601" y="851" on="0"/>
        <pt x="560" y="750" on="0"/>
        <pt x="538" y="648" on="0"/>
      </contour>
      <contour>
        <pt x="1087" y="123" on="1"/>
        <pt x="1099" y="127" on="0"/>
        <pt x="1113" y="127" on="1"/>
        <pt x="1139" y="127" on="0"/>
        <pt x="1165" y="95" on="0"/>
        <pt x="1165" y="75" on="1"/>
        <pt x="1165" y="59" on="0"/>
        <pt x="1148" y="31" on="0"/>
        <pt x="1130" y="26" on="1"/>
        <pt x="963" y="-25" on="0"/>
        <pt x="807" y="-25" on="1"/>
        <pt x="647" y="-25" on="0"/>
        <pt x="373" y="79" on="0"/>
        <pt x="172" y="276" on="0"/>
        <pt x="58" y="560" on="0"/>
        <pt x="58" y="740" on="1"/>
        <pt x="58" y="864" on="0"/>
        <pt x="126" y="1074" on="0"/>
        <pt x="244" y="1246" on="0"/>
        <pt x="405" y="1377" on="0"/>
        <pt x="590" y="1466" on="0"/>
        <pt x="791" y="1512" on="0"/>
        <pt x="891" y="1512" on="1"/>
        <pt x="1019" y="1512" on="0"/>
        <pt x="1256" y="1435" on="0"/>
        <pt x="1439" y="1277" on="0"/>
        <pt x="1549" y="1036" on="0"/>
        <pt x="1549" y="871" on="1"/>
        <pt x="1549" y="790" on="0"/>
        <pt x="1509" y="640" on="0"/>
        <pt x="1440" y="509" on="0"/>
        <pt x="1348" y="401" on="0"/>
        <pt x="1244" y="324" on="0"/>
        <pt x="1133" y="281" on="0"/>
        <pt x="1080" y="281" on="1"/>
        <pt x="1053" y="281" on="0"/>
        <pt x="1000" y="294" on="0"/>
        <pt x="953" y="319" on="0"/>
        <pt x="918" y="359" on="0"/>
        <pt x="909" y="386" on="1"/>
        <pt x="862" y="337" on="0"/>
        <pt x="728" y="283" on="0"/>
        <pt x="661" y="283" on="1"/>
        <pt x="594" y="283" on="0"/>
        <pt x="487" y="332" on="0"/>
        <pt x="413" y="417" on="0"/>
        <pt x="374" y="530" on="0"/>
        <pt x="374" y="594" on="1"/>
        <pt x="374" y="662" on="0"/>
        <pt x="406" y="803" on="0"/>
        <pt x="467" y="936" on="0"/>
        <pt x="554" y="1054" on="0"/>
        <pt x="665" y="1142" on="0"/>
        <pt x="796" y="1193" on="0"/>
        <pt x="870" y="1193" on="1"/>
        <pt x="906" y="1193" on="0"/>
        <pt x="974" y="1176" on="0"/>
        <pt x="1035" y="1143" on="0"/>
        <pt x="1084" y="1094" on="0"/>
        <pt x="1100" y="1061" on="1"/>
        <pt x="1109" y="1091" on="1"/>
        <pt x="1117" y="1117" on="0"/>
        <pt x="1161" y="1143" on="0"/>
        <pt x="1184" y="1143" on="1"/>
        <pt x="1208" y="1143" on="0"/>
        <pt x="1246" y="1115" on="0"/>
        <pt x="1246" y="1088" on="1"/>
        <pt x="1246" y="1075" on="0"/>
        <pt x="1242" y="1063" on="1"/>
        <pt x="1078" y="558" on="1"/>
        <pt x="1067" y="526" on="0"/>
        <pt x="1054" y="470" on="0"/>
        <pt x="1054" y="449" on="1"/>
        <pt x="1054" y="425" on="0"/>
        <pt x="1078" y="398" on="0"/>
        <pt x="1110" y="398" on="1"/>
        <pt x="1169" y="398" on="0"/>
        <pt x="1280" y="483" on="0"/>
        <pt x="1365" y="619" on="0"/>
        <pt x="1417" y="787" on="0"/>
        <pt x="1417" y="870" on="1"/>
        <pt x="1417" y="1006" on="0"/>
        <pt x="1331" y="1206" on="0"/>
        <pt x="1186" y="1336" on="0"/>
        <pt x="997" y="1399" on="0"/>
        <pt x="894" y="1399" on="1"/>
        <pt x="811" y="1399" on="0"/>
        <pt x="642" y="1359" on="0"/>
        <pt x="486" y="1281" on="0"/>
        <pt x="350" y="1166" on="0"/>
        <pt x="250" y="1017" on="0"/>
        <pt x="192" y="835" on="0"/>
        <pt x="192" y="728" on="1"/>
        <pt x="192" y="567" on="0"/>
        <pt x="294" y="325" on="0"/>
        <pt x="467" y="163" on="0"/>
        <pt x="697" y="82" on="0"/>
        <pt x="825" y="82" on="1"/>
        <pt x="953" y="82" on="0"/>
      </contour>
    </TTGlyph>
    <TTGlyph name="atilde" xMin="70" yMin="-22" xMax="894" yMax="1368">
      <component glyphName="a" x="0" y="0" flags="0x1204"/>
      <component glyphName="tilde" x="242" y="0" flags="0x1004"/>
    </TTGlyph>
    <TTGlyph name="b" xMin="138" yMin="-22" xMax="1071" yMax="1425">
      <contour>
        <pt x="292" y="71" on="1"/>
        <pt x="290" y="36" on="0"/>
        <pt x="242" y="0" on="0"/>
        <pt x="214" y="0" on="1"/>
        <pt x="185" y="0" on="0"/>
        <pt x="138" y="37" on="0"/>
        <pt x="138" y="75" on="1"/>
        <pt x="138" y="1352" on="1"/>
        <pt x="138" y="1388" on="0"/>
        <pt x="189" y="1425" on="0"/>
        <pt x="219" y="1425" on="1"/>
        <pt x="249" y="1425" on="0"/>
        <pt x="298" y="1389" on="0"/>
        <pt x="298" y="1352" on="1"/>
        <pt x="298" y="830" on="1"/>
        <pt x="325" y="877" on="0"/>
        <pt x="404" y="946" on="0"/>
        <pt x="497" y="991" on="0"/>
        <pt x="600" y="1013" on="0"/>
        <pt x="651" y="1013" on="1"/>
        <pt x="761" y="1013" on="0"/>
        <pt x="920" y="928" on="0"/>
        <pt x="1022" y="786" on="0"/>
        <pt x="1071" y="601" on="0"/>
        <pt x="1071" y="500" on="1"/>
        <pt x="1071" y="404" on="0"/>
        <pt x="1023" y="216" on="0"/>
        <pt x="923" y="69" on="0"/>
        <pt x="766" y="-22" on="0"/>
        <pt x="657" y="-22" on="1"/>
        <pt x="545" y="-22" on="0"/>
        <pt x="359" y="71" on="0"/>
        <pt x="292" y="173" on="1"/>
      </contour>
      <contour>
        <pt x="298" y="514" on="1"/>
        <pt x="298" y="429" on="0"/>
        <pt x="330" y="279" on="0"/>
        <pt x="405" y="168" on="0"/>
        <pt x="530" y="102" on="0"/>
        <pt x="624" y="102" on="1"/>
        <pt x="680" y="102" on="0"/>
        <pt x="764" y="137" on="0"/>
        <pt x="826" y="198" on="0"/>
        <pt x="867" y="278" on="0"/>
        <pt x="891" y="367" on="0"/>
        <pt x="901" y="462" on="0"/>
        <pt x="901" y="508" on="1"/>
        <pt x="901" y="578" on="0"/>
        <pt x="871" y="716" on="0"/>
        <pt x="803" y="823" on="0"/>
        <pt x="690" y="889" on="0"/>
        <pt x="608" y="889" on="1"/>
        <pt x="523" y="889" on="0"/>
        <pt x="405" y="828" on="0"/>
        <pt x="331" y="725" on="0"/>
        <pt x="298" y="588" on="0"/>
      </contour>
    </TTGlyph>
    <TTGlyph name="backslash" xMin="-20" yMin="-106" xMax="607" yMax="1499">
      <contour>
        <pt x="-15" y="1407" on="1"/>
        <pt x="-20" y="1424" on="0"/>
        <pt x="-20" y="1434" on="1"/>
        <pt x="-20" y="1465" on="0"/>
        <pt x="24" y="1499" on="0"/>
        <pt x="51" y="1499" on="1"/>
        <pt x="72" y="1499" on="0"/>
        <pt x="112" y="1475" on="0"/>
        <pt x="120" y="1449" on="1"/>
        <pt x="603" y="-14" on="1"/>
        <pt x="607" y="-27" on="0"/>
        <pt x="607" y="-41" on="1"/>
        <pt x="607" y="-72" on="0"/>
        <pt x="565" y="-106" on="0"/>
        <pt x="539" y="-106" on="1"/>
        <pt x="518" y="-106" on="0"/>
        <pt x="480" y="-82" on="0"/>
        <pt x="472" y="-56" on="1"/>
      </contour>
    </TTGlyph>
    <TTGlyph name="bar" xMin="158" yMin="-447" xMax="297" yMax="1478">
      <contour>
        <pt x="158" y="1409" on="1"/>
        <pt x="158" y="1444" on="0"/>
        <pt x="202" y="1478" on="0"/>
        <pt x="228" y="1478" on="1"/>
        <pt x="254" y="1478" on="0"/>
        <pt x="297" y="1444" on="0"/>
        <pt x="297" y="1409" on="1"/>
        <pt x="297" y="-377" on="1"/>
        <pt x="297" y="-412" on="0"/>
        <pt x="253" y="-447" on="0"/>
        <pt x="227" y="-447" on="1"/>
        <pt x="201" y="-447" on="0"/>
        <pt x="158" y="-412" on="0"/>
        <pt x="158" y="-377" on="1"/>
      </contour>
    </TTGlyph>
    <TTGlyph name="braceleft" xMin="16" yMin="-207" xMax="594" yMax="1479">
      <contour>
        <pt x="537" y="-81" on="1"/>
        <pt x="566" y="-81" on="0"/>
        <pt x="594" y="-121" on="0"/>
        <pt x="594" y="-144" on="1"/>
        <pt x="594" y="-168" on="0"/>
        <pt x="566" y="-207" on="0"/>
        <pt x="537" y="-207" on="1"/>
        <pt x="419" y="-207" on="1"/>
        <pt x="384" y="-207" on="0"/>
        <pt x="316" y="-174" on="0"/>
        <pt x="262" y="-114" on="0"/>
        <pt x="228" y="-30" on="0"/>
        <pt x="228" y="21" on="1"/>
        <pt x="228" y="318" on="1"/>
        <pt x="228" y="373" on="0"/>
        <pt x="218" y="460" on="0"/>
        <pt x="186" y="523" on="0"/>
        <pt x="129" y="561" on="0"/>
        <pt x="83" y="566" on="1"/>
        <pt x="49" y="566" on="0"/>
        <pt x="16" y="608" on="0"/>
        <pt x="16" y="633" on="1"/>
        <pt x="16" y="659" on="0"/>
        <pt x="49" y="701" on="0"/>
        <pt x="83" y="701" on="1"/>
        <pt x="129" y="706" on="0"/>
        <pt x="186" y="744" on="0"/>
        <pt x="218" y="808" on="0"/>
        <pt x="228" y="897" on="0"/>
        <pt x="228" y="952" on="1"/>
        <pt x="228" y="1252" on="1"/>
        <pt x="228" y="1303" on="0"/>
        <pt x="262" y="1386" on="0"/>
        <pt x="316" y="1446" on="0"/>
        <pt x="384" y="1479" on="0"/>
        <pt x="419" y="1479" on="1"/>
        <pt x="537" y="1479" on="1"/>
        <pt x="566" y="1479" on="0"/>
        <pt x="594" y="1439" on="0"/>
        <pt x="594" y="1416" on="1"/>
        <pt x="594" y="1392" on="0"/>
        <pt x="566" y="1353" on="0"/>
        <pt x="537" y="1353" on="1"/>
        <pt x="474" y="1353" on="1"/>
        <pt x="431" y="1353" on="0"/>
        <pt x="391" y="1275" on="0"/>
        <pt x="391" y="1203" on="1"/>
        <pt x="391" y="915" on="1"/>
        <pt x="391" y="842" on="0"/>
        <pt x="354" y="744" on="0"/>
        <pt x="305" y="679" on="0"/>
        <pt x="258" y="644" on="0"/>
        <pt x="248" y="634" on="1"/>
        <pt x="258" y="629" on="0"/>
        <pt x="305" y="594" on="0"/>
        <pt x="354" y="527" on="0"/>
        <pt x="391" y="426" on="0"/>
        <pt x="391" y="355" on="1"/>
        <pt x="391" y="70" on="1"/>
        <pt x="391" y="-2" on="0"/>
        <pt x="431" y="-81" on="0"/>
        <pt x="474" y="-81" on="1"/>
      </contour>
    </TTGlyph>
    <TTGlyph name="braceright" xMin="15" yMin="-207" xMax="593" yMax="1479">
      <contour>
        <pt x="135" y="-81" on="1"/>
        <pt x="178" y="-81" on="0"/>
        <pt x="218" y="-2" on="0"/>
        <pt x="218" y="70" on="1"/>
        <pt x="218" y="355" on="1"/>
        <pt x="218" y="426" on="0"/>
        <pt x="255" y="527" on="0"/>
        <pt x="304" y="594" on="0"/>
        <pt x="351" y="629" on="0"/>
        <pt x="360" y="634" on="1"/>
        <pt x="351" y="643" on="0"/>
        <pt x="304" y="678" on="0"/>
        <pt x="256" y="743" on="0"/>
        <pt x="218" y="842" on="0"/>
        <pt x="218" y="915" on="1"/>
        <pt x="218" y="1203" on="1"/>
        <pt x="218" y="1275" on="0"/>
        <pt x="178" y="1353" on="0"/>
        <pt x="135" y="1353" on="1"/>
        <pt x="72" y="1353" on="1"/>
        <pt x="43" y="1353" on="0"/>
        <pt x="15" y="1392" on="0"/>
        <pt x="15" y="1416" on="1"/>
        <pt x="15" y="1439" on="0"/>
        <pt x="43" y="1479" on="0"/>
        <pt x="72" y="1479" on="1"/>
        <pt x="189" y="1479" on="1"/>
        <pt x="224" y="1479" on="0"/>
        <pt x="293" y="1446" on="0"/>
        <pt x="347" y="1386" on="0"/>
        <pt x="381" y="1303" on="0"/>
        <pt x="381" y="1252" on="1"/>
        <pt x="381" y="952" on="1"/>
        <pt x="381" y="897" on="0"/>
        <pt x="391" y="808" on="0"/>
        <pt x="423" y="744" on="0"/>
        <pt x="479" y="706" on="0"/>
        <pt x="526" y="701" on="1"/>
        <pt x="559" y="701" on="0"/>
        <pt x="593" y="659" on="0"/>
        <pt x="593" y="633" on="1"/>
        <pt x="593" y="608" on="0"/>
        <pt x="559" y="566" on="0"/>
        <pt x="526" y="566" on="1"/>
        <pt x="479" y="561" on="0"/>
        <pt x="423" y="523" on="0"/>
        <pt x="391" y="460" on="0"/>
        <pt x="381" y="373" on="0"/>
        <pt x="381" y="318" on="1"/>
        <pt x="381" y="21" on="1"/>
        <pt x="381" y="-30" on="0"/>
        <pt x="347" y="-114" on="0"/>
        <pt x="293" y="-174" on="0"/>
        <pt x="224" y="-207" on="0"/>
        <pt x="189" y="-207" on="1"/>
        <pt x="72" y="-207" on="1"/>
        <pt x="43" y="-207" on="0"/>
        <pt x="15" y="-168" on="0"/>
        <pt x="15" y="-144" on="1"/>
        <pt x="15" y="-121" on="0"/>
        <pt x="43" y="-81" on="0"/>
        <pt x="72" y="-81" on="1"/>
      </contour>
    </TTGlyph>
    <TTGlyph name="bracketleft" xMin="173" yMin="-200" xMax="501" yMax="1426">
      <contour>
        <pt x="173" y="1346" on="1"/>
        <pt x="173" y="1379" on="0"/>
        <pt x="220" y="1426" on="0"/>
        <pt x="255" y="1426" on="1"/>
        <pt x="438" y="1426" on="1"/>
        <pt x="470" y="1426" on="0"/>
        <pt x="500" y="1388" on="0"/>
        <pt x="500" y="1365" on="1"/>
        <pt x="500" y="1342" on="0"/>
        <pt x="469" y="1303" on="0"/>
        <pt x="438" y="1303" on="1"/>
        <pt x="336" y="1303" on="1"/>
        <pt x="336" y="-76" on="1"/>
        <pt x="438" y="-76" on="1"/>
        <pt x="470" y="-76" on="0"/>
        <pt x="501" y="-114" on="0"/>
        <pt x="501" y="-137" on="1"/>
        <pt x="501" y="-160" on="0"/>
        <pt x="469" y="-200" on="0"/>
        <pt x="438" y="-200" on="1"/>
        <pt x="255" y="-200" on="1"/>
        <pt x="220" y="-200" on="0"/>
        <pt x="173" y="-153" on="0"/>
        <pt x="173" y="-120" on="1"/>
      </contour>
    </TTGlyph>
    <TTGlyph name="bracketright" xMin="109" yMin="-200" xMax="437" yMax="1426">
      <contour>
        <pt x="437" y="-120" on="1"/>
        <pt x="437" y="-153" on="0"/>
        <pt x="389" y="-200" on="0"/>
        <pt x="355" y="-200" on="1"/>
        <pt x="171" y="-200" on="1"/>
        <pt x="140" y="-200" on="0"/>
        <pt x="109" y="-160" on="0"/>
        <pt x="109" y="-137" on="1"/>
        <pt x="109" y="-114" on="0"/>
        <pt x="140" y="-76" on="0"/>
        <pt x="171" y="-76" on="1"/>
        <pt x="274" y="-76" on="1"/>
        <pt x="274" y="1303" on="1"/>
        <pt x="171" y="1303" on="1"/>
        <pt x="140" y="1303" on="0"/>
        <pt x="109" y="1342" on="0"/>
        <pt x="109" y="1365" on="1"/>
        <pt x="109" y="1388" on="0"/>
        <pt x="139" y="1426" on="0"/>
        <pt x="171" y="1426" on="1"/>
        <pt x="355" y="1426" on="1"/>
        <pt x="389" y="1426" on="0"/>
        <pt x="437" y="1379" on="0"/>
        <pt x="437" y="1346" on="1"/>
      </contour>
    </TTGlyph>
    <TTGlyph name="breve" xMin="14" yMin="1249" xMax="556" yMax="1471">
      <contour>
        <pt x="285" y="1249" on="1"/>
        <pt x="190" y="1249" on="0"/>
        <pt x="52" y="1329" on="0"/>
        <pt x="20" y="1401" on="1"/>
        <pt x="14" y="1414" on="0"/>
        <pt x="14" y="1426" on="1"/>
        <pt x="14" y="1447" on="0"/>
        <pt x="44" y="1471" on="0"/>
        <pt x="64" y="1471" on="1"/>
        <pt x="93" y="1471" on="0"/>
        <pt x="112" y="1445" on="1"/>
        <pt x="128" y="1422" on="0"/>
        <pt x="161" y="1390" on="0"/>
        <pt x="202" y="1371" on="0"/>
        <pt x="252" y="1362" on="0"/>
        <pt x="285" y="1362" on="1"/>
        <pt x="318" y="1362" on="0"/>
        <pt x="367" y="1371" on="0"/>
        <pt x="408" y="1390" on="0"/>
        <pt x="441" y="1422" on="0"/>
        <pt x="458" y="1445" on="1"/>
        <pt x="477" y="1471" on="0"/>
        <pt x="506" y="1471" on="1"/>
        <pt x="526" y="1471" on="0"/>
        <pt x="556" y="1447" on="0"/>
        <pt x="556" y="1426" on="1"/>
        <pt x="556" y="1414" on="0"/>
        <pt x="550" y="1401" on="1"/>
        <pt x="518" y="1329" on="0"/>
        <pt x="380" y="1249" on="0"/>
      </contour>
    </TTGlyph>
    <TTGlyph name="brokenbar" xMin="158" yMin="-117" xMax="297" yMax="1361">
      <contour>
        <pt x="158" y="1291" on="1"/>
        <pt x="158" y="1326" on="0"/>
        <pt x="202" y="1361" on="0"/>
        <pt x="228" y="1361" on="1"/>
        <pt x="254" y="1361" on="0"/>
        <pt x="297" y="1326" on="0"/>
        <pt x="297" y="1291" on="1"/>
        <pt x="297" y="705" on="1"/>
        <pt x="297" y="670" on="0"/>
        <pt x="275" y="652" on="1"/>
        <pt x="258" y="639" on="0"/>
        <pt x="240" y="636" on="1"/>
        <pt x="259" y="633" on="0"/>
        <pt x="275" y="619" on="1"/>
        <pt x="297" y="602" on="0"/>
        <pt x="297" y="567" on="1"/>
        <pt x="297" y="-47" on="1"/>
        <pt x="297" y="-82" on="0"/>
        <pt x="253" y="-117" on="0"/>
        <pt x="227" y="-117" on="1"/>
        <pt x="201" y="-117" on="0"/>
        <pt x="158" y="-82" on="0"/>
        <pt x="158" y="-47" on="1"/>
        <pt x="158" y="567" on="1"/>
        <pt x="158" y="602" on="0"/>
        <pt x="180" y="619" on="1"/>
        <pt x="196" y="632" on="0"/>
        <pt x="214" y="636" on="1"/>
        <pt x="196" y="639" on="0"/>
        <pt x="179" y="652" on="1"/>
        <pt x="158" y="670" on="0"/>
        <pt x="158" y="705" on="1"/>
      </contour>
    </TTGlyph>
    <TTGlyph name="bullet" xMin="143" yMin="357" xMax="881" yMax="1068">
      <contour>
        <pt x="881" y="712" on="1"/>
        <pt x="881" y="640" on="0"/>
        <pt x="823" y="511" on="0"/>
        <pt x="722" y="414" on="0"/>
        <pt x="587" y="357" on="0"/>
        <pt x="510" y="357" on="1"/>
        <pt x="435" y="357" on="0"/>
        <pt x="301" y="414" on="0"/>
        <pt x="201" y="511" on="0"/>
        <pt x="143" y="640" on="0"/>
        <pt x="143" y="712" on="1"/>
        <pt x="143" y="786" on="0"/>
        <pt x="201" y="916" on="0"/>
        <pt x="301" y="1012" on="0"/>
        <pt x="435" y="1068" on="0"/>
        <pt x="510" y="1068" on="1"/>
        <pt x="587" y="1068" on="0"/>
        <pt x="722" y="1012" on="0"/>
        <pt x="823" y="916" on="0"/>
        <pt x="881" y="786" on="0"/>
      </contour>
    </TTGlyph>
    <TTGlyph name="c" xMin="90" yMin="-22" xMax="883" yMax="1013">
      <contour>
        <pt x="90" y="496" on="1"/>
        <pt x="90" y="601" on="0"/>
        <pt x="153" y="788" on="0"/>
        <pt x="274" y="930" on="0"/>
        <pt x="450" y="1013" on="0"/>
        <pt x="563" y="1013" on="1"/>
        <pt x="610" y="1013" on="0"/>
        <pt x="717" y="995" on="0"/>
        <pt x="807" y="961" on="0"/>
        <pt x="866" y="913" on="0"/>
        <pt x="866" y="883" on="1"/>
        <pt x="866" y="860" on="0"/>
        <pt x="836" y="824" on="0"/>
        <pt x="810" y="824" on="1"/>
        <pt x="798" y="824" on="0"/>
        <pt x="783" y="830" on="1"/>
        <pt x="683" y="888" on="0"/>
        <pt x="577" y="888" on="1"/>
        <pt x="506" y="888" on="0"/>
        <pt x="389" y="833" on="0"/>
        <pt x="305" y="732" on="0"/>
        <pt x="259" y="589" on="0"/>
        <pt x="259" y="498" on="1"/>
        <pt x="259" y="426" on="0"/>
        <pt x="290" y="287" on="0"/>
        <pt x="363" y="170" on="0"/>
        <pt x="488" y="102" on="0"/>
        <pt x="576" y="102" on="1"/>
        <pt x="631" y="102" on="0"/>
        <pt x="741" y="136" on="0"/>
        <pt x="802" y="167" on="1"/>
        <pt x="817" y="173" on="0"/>
        <pt x="830" y="173" on="1"/>
        <pt x="854" y="173" on="0"/>
        <pt x="883" y="139" on="0"/>
        <pt x="883" y="116" on="1"/>
        <pt x="883" y="86" on="0"/>
        <pt x="817" y="34" on="0"/>
        <pt x="719" y="-1" on="0"/>
        <pt x="603" y="-22" on="0"/>
        <pt x="554" y="-22" on="1"/>
        <pt x="440" y="-22" on="0"/>
        <pt x="267" y="60" on="0"/>
        <pt x="150" y="202" on="0"/>
        <pt x="90" y="391" on="0"/>
      </contour>
    </TTGlyph>
    <TTGlyph name="caron" xMin="-7" yMin="1115" xMax="574" yMax="1532">
      <contour>
        <pt x="10" y="1432" on="1"/>
        <pt x="-7" y="1457" on="0"/>
        <pt x="-6" y="1477" on="1"/>
        <pt x="-6" y="1500" on="0"/>
        <pt x="27" y="1532" on="0"/>
        <pt x="50" y="1532" on="1"/>
        <pt x="65" y="1532" on="0"/>
        <pt x="97" y="1516" on="0"/>
        <pt x="111" y="1497" on="1"/>
        <pt x="285" y="1264" on="1"/>
        <pt x="458" y="1497" on="1"/>
        <pt x="472" y="1516" on="0"/>
        <pt x="503" y="1532" on="0"/>
        <pt x="518" y="1532" on="1"/>
        <pt x="541" y="1532" on="0"/>
        <pt x="574" y="1500" on="0"/>
        <pt x="574" y="1477" on="1"/>
        <pt x="574" y="1455" on="0"/>
        <pt x="558" y="1432" on="1"/>
        <pt x="370" y="1165" on="1"/>
        <pt x="352" y="1139" on="0"/>
        <pt x="307" y="1115" on="0"/>
        <pt x="285" y="1115" on="1"/>
        <pt x="262" y="1115" on="0"/>
        <pt x="216" y="1140" on="0"/>
        <pt x="199" y="1165" on="1"/>
      </contour>
    </TTGlyph>
    <TTGlyph name="ccedilla" xMin="90" yMin="-392" xMax="883" yMax="1013">
      <component glyphName="c" x="0" y="0" flags="0x1004"/>
      <component glyphName="cedilla" x="244" y="0" flags="0x1004"/>
    </TTGlyph>
    <TTGlyph name="cedilla" xMin="69" yMin="-392" xMax="489" yMax="9">
      <contour>
        <pt x="252" y="9" on="1"/>
        <pt x="311" y="9" on="1"/>
        <pt x="277" y="-103" on="1"/>
        <pt x="316" y="-101" on="0"/>
        <pt x="392" y="-110" on="0"/>
        <pt x="452" y="-140" on="0"/>
        <pt x="489" y="-197" on="0"/>
        <pt x="489" y="-244" on="1"/>
        <pt x="489" y="-282" on="0"/>
        <pt x="456" y="-337" on="0"/>
        <pt x="402" y="-374" on="0"/>
        <pt x="334" y="-392" on="0"/>
        <pt x="300" y="-392" on="1"/>
        <pt x="258" y="-392" on="0"/>
        <pt x="176" y="-381" on="0"/>
        <pt x="110" y="-361" on="0"/>
        <pt x="69" y="-334" on="0"/>
        <pt x="69" y="-318" on="1"/>
        <pt x="69" y="-306" on="0"/>
        <pt x="83" y="-286" on="0"/>
        <pt x="95" y="-286" on="1"/>
        <pt x="100" y="-286" on="0"/>
        <pt x="108" y="-289" on="1"/>
        <pt x="146" y="-303" on="0"/>
        <pt x="224" y="-324" on="0"/>
        <pt x="269" y="-324" on="1"/>
        <pt x="323" y="-324" on="0"/>
        <pt x="363" y="-281" on="0"/>
        <pt x="363" y="-241" on="1"/>
        <pt x="363" y="-221" on="0"/>
        <pt x="344" y="-193" on="0"/>
        <pt x="312" y="-176" on="0"/>
        <pt x="273" y="-168" on="0"/>
        <pt x="252" y="-168" on="1"/>
        <pt x="249" y="-168" on="0"/>
        <pt x="242" y="-169" on="0"/>
        <pt x="239" y="-169" on="1"/>
        <pt x="221" y="-169" on="0"/>
        <pt x="204" y="-152" on="0"/>
        <pt x="204" y="-139" on="1"/>
        <pt x="204" y="-132" on="0"/>
        <pt x="207" y="-123" on="1"/>
      </contour>
    </TTGlyph>
    <TTGlyph name="cent" xMin="83" yMin="-291" xMax="909" yMax="1291">
      <contour>
        <pt x="83" y="496" on="1"/>
        <pt x="83" y="593" on="0"/>
        <pt x="142" y="771" on="0"/>
        <pt x="250" y="912" on="0"/>
        <pt x="402" y="1004" on="0"/>
        <pt x="495" y="1016" on="1"/>
        <pt x="495" y="1227" on="1"/>
        <pt x="495" y="1259" on="0"/>
        <pt x="535" y="1291" on="0"/>
        <pt x="559" y="1291" on="1"/>
        <pt x="583" y="1291" on="0"/>
        <pt x="622" y="1259" on="0"/>
        <pt x="622" y="1227" on="1"/>
        <pt x="622" y="1017" on="1"/>
        <pt x="659" y="1014" on="0"/>
        <pt x="749" y="997" on="0"/>
        <pt x="828" y="968" on="0"/>
        <pt x="882" y="929" on="0"/>
        <pt x="882" y="905" on="1"/>
        <pt x="882" y="883" on="0"/>
        <pt x="854" y="843" on="0"/>
        <pt x="832" y="843" on="1"/>
        <pt x="826" y="843" on="0"/>
        <pt x="823" y="844" on="1"/>
        <pt x="759" y="866" on="0"/>
        <pt x="651" y="892" on="0"/>
        <pt x="597" y="892" on="1"/>
        <pt x="525" y="892" on="0"/>
        <pt x="399" y="844" on="0"/>
        <pt x="306" y="746" on="0"/>
        <pt x="252" y="598" on="0"/>
        <pt x="252" y="498" on="1"/>
        <pt x="252" y="408" on="0"/>
        <pt x="298" y="263" on="0"/>
        <pt x="385" y="161" on="0"/>
        <pt x="511" y="106" on="0"/>
        <pt x="591" y="106" on="1"/>
        <pt x="646" y="106" on="0"/>
        <pt x="773" y="130" on="0"/>
        <pt x="842" y="158" on="1"/>
        <pt x="846" y="159" on="0"/>
        <pt x="852" y="160" on="0"/>
        <pt x="856" y="160" on="1"/>
        <pt x="879" y="160" on="0"/>
        <pt x="909" y="122" on="0"/>
        <pt x="909" y="99" on="1"/>
        <pt x="909" y="70" on="0"/>
        <pt x="849" y="27" on="0"/>
        <pt x="761" y="-5" on="0"/>
        <pt x="662" y="-23" on="0"/>
        <pt x="622" y="-26" on="1"/>
        <pt x="622" y="-227" on="1"/>
        <pt x="622" y="-259" on="0"/>
        <pt x="582" y="-291" on="0"/>
        <pt x="558" y="-291" on="1"/>
        <pt x="534" y="-291" on="0"/>
        <pt x="495" y="-259" on="0"/>
        <pt x="495" y="-227" on="1"/>
        <pt x="495" y="-25" on="1"/>
        <pt x="393" y="-15" on="0"/>
        <pt x="239" y="76" on="0"/>
        <pt x="136" y="217" on="0"/>
        <pt x="83" y="397" on="0"/>
      </contour>
    </TTGlyph>
    <TTGlyph name="circumflex" xMin="-6" yMin="1108" xMax="576" yMax="1524">
      <contour>
        <pt x="199" y="1474" on="1"/>
        <pt x="235" y="1524" on="0"/>
        <pt x="284" y="1524" on="1"/>
        <pt x="307" y="1524" on="0"/>
        <pt x="350" y="1500" on="0"/>
        <pt x="370" y="1474" on="1"/>
        <pt x="558" y="1207" on="1"/>
        <pt x="566" y="1195" on="0"/>
        <pt x="576" y="1173" on="0"/>
        <pt x="575" y="1162" on="1"/>
        <pt x="575" y="1139" on="0"/>
        <pt x="543" y="1109" on="0"/>
        <pt x="520" y="1109" on="1"/>
        <pt x="505" y="1109" on="0"/>
        <pt x="473" y="1125" on="0"/>
        <pt x="458" y="1143" on="1"/>
        <pt x="285" y="1376" on="1"/>
        <pt x="111" y="1143" on="1"/>
        <pt x="96" y="1124" on="0"/>
        <pt x="63" y="1108" on="0"/>
        <pt x="48" y="1108" on="1"/>
        <pt x="25" y="1108" on="0"/>
        <pt x="-6" y="1138" on="0"/>
        <pt x="-6" y="1161" on="1"/>
        <pt x="-6" y="1172" on="0"/>
        <pt x="1" y="1195" on="0"/>
        <pt x="10" y="1207" on="1"/>
      </contour>
    </TTGlyph>
    <TTGlyph name="colon" xMin="184" yMin="-1" xMax="399" yMax="1000">
      <contour>
        <pt x="184" y="902" on="1"/>
        <pt x="184" y="921" on="0"/>
        <pt x="198" y="956" on="0"/>
        <pt x="226" y="983" on="0"/>
        <pt x="266" y="1000" on="0"/>
        <pt x="292" y="1000" on="1"/>
        <pt x="317" y="1000" on="0"/>
        <pt x="357" y="983" on="0"/>
        <pt x="385" y="956" on="0"/>
        <pt x="399" y="921" on="0"/>
        <pt x="399" y="902" on="1"/>
        <pt x="399" y="883" on="0"/>
        <pt x="385" y="848" on="0"/>
        <pt x="357" y="821" on="0"/>
        <pt x="317" y="805" on="0"/>
        <pt x="292" y="805" on="1"/>
        <pt x="266" y="805" on="0"/>
        <pt x="226" y="821" on="0"/>
        <pt x="198" y="848" on="0"/>
        <pt x="184" y="883" on="0"/>
      </contour>
      <contour>
        <pt x="184" y="97" on="1"/>
        <pt x="184" y="115" on="0"/>
        <pt x="198" y="150" on="0"/>
        <pt x="226" y="177" on="0"/>
        <pt x="266" y="194" on="0"/>
        <pt x="292" y="194" on="1"/>
        <pt x="317" y="194" on="0"/>
        <pt x="357" y="177" on="0"/>
        <pt x="385" y="150" on="0"/>
        <pt x="399" y="115" on="0"/>
        <pt x="399" y="97" on="1"/>
        <pt x="399" y="78" on="0"/>
        <pt x="385" y="43" on="0"/>
        <pt x="357" y="16" on="0"/>
        <pt x="317" y="-1" on="0"/>
        <pt x="292" y="-1" on="1"/>
        <pt x="266" y="-1" on="0"/>
        <pt x="226" y="16" on="0"/>
        <pt x="198" y="43" on="0"/>
        <pt x="184" y="78" on="0"/>
      </contour>
    </TTGlyph>
    <TTGlyph name="comma" xMin="111" yMin="-240" xMax="401" yMax="185">
      <contour>
        <pt x="249" y="-240" on="1"/>
        <pt x="111" y="-240" on="1"/>
        <pt x="204" y="185" on="1"/>
        <pt x="401" y="185" on="1"/>
      </contour>
    </TTGlyph>
    <TTGlyph name="copyright" xMin="144" yMin="127" xMax="1526" yMax="1453">
      <contour>
        <pt x="837" y="127" on="1"/>
        <pt x="741" y="127" on="0"/>
        <pt x="564" y="174" on="0"/>
        <pt x="410" y="261" on="0"/>
        <pt x="284" y="382" on="0"/>
        <pt x="193" y="529" on="0"/>
        <pt x="144" y="699" on="0"/>
        <pt x="144" y="790" on="1"/>
        <pt x="144" y="881" on="0"/>
        <pt x="193" y="1050" on="0"/>
        <pt x="284" y="1198" on="0"/>
        <pt x="410" y="1319" on="0"/>
        <pt x="564" y="1405" on="0"/>
        <pt x="741" y="1453" on="0"/>
        <pt x="837" y="1453" on="1"/>
        <pt x="932" y="1453" on="0"/>
        <pt x="1108" y="1405" on="0"/>
        <pt x="1261" y="1319" on="0"/>
        <pt x="1387" y="1198" on="0"/>
        <pt x="1477" y="1050" on="0"/>
        <pt x="1526" y="881" on="0"/>
        <pt x="1526" y="790" on="1"/>
        <pt x="1526" y="698" on="0"/>
        <pt x="1477" y="529" on="0"/>
        <pt x="1387" y="382" on="0"/>
        <pt x="1261" y="261" on="0"/>
        <pt x="1108" y="174" on="0"/>
        <pt x="932" y="127" on="0"/>
      </contour>
      <contour>
        <pt x="263" y="790" on="1"/>
        <pt x="263" y="670" on="0"/>
        <pt x="349" y="468" on="0"/>
        <pt x="502" y="321" on="0"/>
        <pt x="712" y="239" on="0"/>
        <pt x="837" y="239" on="1"/>
        <pt x="961" y="239" on="0"/>
        <pt x="1169" y="321" on="0"/>
        <pt x="1321" y="468" on="0"/>
        <pt x="1406" y="670" on="0"/>
        <pt x="1406" y="790" on="1"/>
        <pt x="1406" y="909" on="0"/>
        <pt x="1321" y="1111" on="0"/>
        <pt x="1169" y="1258" on="0"/>
        <pt x="961" y="1340" on="0"/>
        <pt x="837" y="1340" on="1"/>
        <pt x="712" y="1340" on="0"/>
        <pt x="502" y="1258" on="0"/>
        <pt x="349" y="1111" on="0"/>
        <pt x="263" y="909" on="0"/>
      </contour>
      <contour>
        <pt x="1043" y="547" on="1"/>
        <pt x="1050" y="552" on="0"/>
        <pt x="1063" y="552" on="1"/>
        <pt x="1080" y="552" on="0"/>
        <pt x="1104" y="526" on="0"/>
        <pt x="1104" y="508" on="1"/>
        <pt x="1104" y="490" on="0"/>
        <pt x="1077" y="460" on="0"/>
        <pt x="1034" y="436" on="0"/>
        <pt x="978" y="417" on="0"/>
        <pt x="921" y="405" on="0"/>
        <pt x="868" y="399" on="0"/>
        <pt x="848" y="399" on="1"/>
        <pt x="773" y="399" on="0"/>
        <pt x="633" y="450" on="0"/>
        <pt x="525" y="551" on="0"/>
        <pt x="460" y="699" on="0"/>
        <pt x="460" y="796" on="1"/>
        <pt x="460" y="893" on="0"/>
        <pt x="523" y="1039" on="0"/>
        <pt x="629" y="1137" on="0"/>
        <pt x="768" y="1186" on="0"/>
        <pt x="845" y="1186" on="1"/>
        <pt x="873" y="1186" on="0"/>
        <pt x="964" y="1173" on="0"/>
        <pt x="1052" y="1147" on="0"/>
        <pt x="1116" y="1108" on="0"/>
        <pt x="1116" y="1083" on="1"/>
        <pt x="1116" y="1064" on="0"/>
        <pt x="1091" y="1032" on="0"/>
        <pt x="1071" y="1032" on="1"/>
        <pt x="1064" y="1032" on="0"/>
        <pt x="1052" y="1037" on="1"/>
        <pt x="1006" y="1062" on="0"/>
        <pt x="905" y="1087" on="0"/>
        <pt x="857" y="1087" on="1"/>
        <pt x="801" y="1087" on="0"/>
        <pt x="701" y="1053" on="0"/>
        <pt x="626" y="982" on="0"/>
        <pt x="582" y="873" on="0"/>
        <pt x="582" y="798" on="1"/>
        <pt x="582" y="725" on="0"/>
        <pt x="629" y="613" on="0"/>
        <pt x="707" y="536" on="0"/>
        <pt x="810" y="497" on="0"/>
        <pt x="867" y="497" on="1"/>
        <pt x="912" y="497" on="0"/>
        <pt x="999" y="523" on="0"/>
      </contour>
    </TTGlyph>
    <TTGlyph name="currency" xMin="148" yMin="158" xMax="1025" yMax="1037">
      <contour>
        <pt x="586" y="183" on="1"/>
        <pt x="505" y="183" on="0"/>
        <pt x="373" y="225" on="0"/>
        <pt x="322" y="262" on="1"/>
        <pt x="235" y="175" on="1"/>
        <pt x="219" y="159" on="0"/>
        <pt x="199" y="159" on="1"/>
        <pt x="179" y="159" on="0"/>
        <pt x="148" y="190" on="0"/>
        <pt x="148" y="211" on="1"/>
        <pt x="148" y="231" on="0"/>
        <pt x="164" y="247" on="1"/>
        <pt x="249" y="332" on="1"/>
        <pt x="203" y="389" on="0"/>
        <pt x="158" y="528" on="0"/>
        <pt x="158" y="601" on="1"/>
        <pt x="158" y="673" on="0"/>
        <pt x="202" y="809" on="0"/>
        <pt x="247" y="866" on="1"/>
        <pt x="164" y="950" on="1"/>
        <pt x="148" y="966" on="0"/>
        <pt x="148" y="986" on="1"/>
        <pt x="148" y="1006" on="0"/>
        <pt x="179" y="1037" on="0"/>
        <pt x="199" y="1037" on="1"/>
        <pt x="218" y="1037" on="0"/>
        <pt x="235" y="1021" on="1"/>
        <pt x="318" y="937" on="1"/>
        <pt x="369" y="975" on="0"/>
        <pt x="502" y="1020" on="0"/>
        <pt x="586" y="1020" on="1"/>
        <pt x="669" y="1020" on="0"/>
        <pt x="803" y="975" on="0"/>
        <pt x="854" y="937" on="1"/>
        <pt x="938" y="1021" on="1"/>
        <pt x="954" y="1037" on="0"/>
        <pt x="974" y="1037" on="1"/>
        <pt x="994" y="1037" on="0"/>
        <pt x="1025" y="1006" on="0"/>
        <pt x="1025" y="985" on="1"/>
        <pt x="1025" y="977" on="0"/>
        <pt x="1018" y="958" on="0"/>
        <pt x="1010" y="950" on="1"/>
        <pt x="925" y="866" on="1"/>
        <pt x="970" y="809" on="0"/>
        <pt x="1014" y="672" on="0"/>
        <pt x="1014" y="601" on="1"/>
        <pt x="1014" y="528" on="0"/>
        <pt x="968" y="389" on="0"/>
        <pt x="923" y="332" on="1"/>
        <pt x="1010" y="247" on="1"/>
        <pt x="1018" y="239" on="0"/>
        <pt x="1025" y="220" on="0"/>
        <pt x="1025" y="211" on="1"/>
        <pt x="1025" y="191" on="0"/>
        <pt x="994" y="159" on="0"/>
        <pt x="974" y="159" on="1"/>
        <pt x="956" y="158" on="0"/>
        <pt x="939" y="175" on="1"/>
        <pt x="850" y="263" on="1"/>
        <pt x="799" y="225" on="0"/>
        <pt x="668" y="183" on="0"/>
      </contour>
      <contour>
        <pt x="586" y="918" on="1"/>
        <pt x="510" y="918" on="0"/>
        <pt x="396" y="863" on="0"/>
        <pt x="319" y="774" on="0"/>
        <pt x="281" y="660" on="0"/>
        <pt x="281" y="601" on="1"/>
        <pt x="281" y="542" on="0"/>
        <pt x="319" y="428" on="0"/>
        <pt x="396" y="339" on="0"/>
        <pt x="510" y="285" on="0"/>
        <pt x="586" y="285" on="1"/>
        <pt x="662" y="285" on="0"/>
        <pt x="776" y="339" on="0"/>
        <pt x="853" y="428" on="0"/>
        <pt x="891" y="542" on="0"/>
        <pt x="891" y="601" on="1"/>
        <pt x="891" y="660" on="0"/>
        <pt x="853" y="774" on="0"/>
        <pt x="776" y="863" on="0"/>
        <pt x="662" y="918" on="0"/>
      </contour>
    </TTGlyph>
    <TTGlyph name="d" xMin="91" yMin="-22" xMax="1024" yMax="1425">
      <contour>
        <pt x="1024" y="75" on="1"/>
        <pt x="1024" y="37" on="0"/>
        <pt x="975" y="0" on="0"/>
        <pt x="945" y="0" on="1"/>
        <pt x="930" y="0" on="0"/>
        <pt x="902" y="9" on="0"/>
        <pt x="879" y="28" on="0"/>
        <pt x="865" y="55" on="0"/>
        <pt x="864" y="73" on="1"/>
        <pt x="864" y="118" on="1"/>
        <pt x="864" y="136" on="0"/>
        <pt x="863" y="150" on="1"/>
        <pt x="863" y="165" on="1"/>
        <pt x="794" y="65" on="0"/>
        <pt x="616" y="-22" on="0"/>
        <pt x="505" y="-22" on="1"/>
        <pt x="396" y="-22" on="0"/>
        <pt x="239" y="68" on="0"/>
        <pt x="139" y="216" on="0"/>
        <pt x="91" y="404" on="0"/>
        <pt x="91" y="500" on="1"/>
        <pt x="91" y="601" on="0"/>
        <pt x="139" y="786" on="0"/>
        <pt x="241" y="928" on="0"/>
        <pt x="400" y="1013" on="0"/>
        <pt x="511" y="1013" on="1"/>
        <pt x="562" y="1013" on="0"/>
        <pt x="665" y="991" on="0"/>
        <pt x="758" y="946" on="0"/>
        <pt x="837" y="878" on="0"/>
        <pt x="864" y="831" on="1"/>
        <pt x="864" y="1352" on="1"/>
        <pt x="864" y="1389" on="0"/>
        <pt x="913" y="1425" on="0"/>
        <pt x="943" y="1425" on="1"/>
        <pt x="973" y="1425" on="0"/>
        <pt x="1024" y="1388" on="0"/>
        <pt x="1024" y="1352" on="1"/>
      </contour>
      <contour>
        <pt x="554" y="889" on="1"/>
        <pt x="471" y="889" on="0"/>
        <pt x="359" y="823" on="0"/>
        <pt x="290" y="714" on="0"/>
        <pt x="260" y="578" on="0"/>
        <pt x="260" y="508" on="1"/>
        <pt x="260" y="468" on="0"/>
        <pt x="270" y="368" on="0"/>
        <pt x="295" y="278" on="0"/>
        <pt x="336" y="198" on="0"/>
        <pt x="398" y="137" on="0"/>
        <pt x="482" y="102" on="0"/>
        <pt x="538" y="102" on="1"/>
        <pt x="632" y="102" on="0"/>
        <pt x="756" y="168" on="0"/>
        <pt x="830" y="280" on="0"/>
        <pt x="860" y="430" on="0"/>
        <pt x="860" y="514" on="1"/>
        <pt x="860" y="588" on="0"/>
        <pt x="828" y="723" on="0"/>
        <pt x="756" y="828" on="0"/>
        <pt x="639" y="889" on="0"/>
      </contour>
    </TTGlyph>
    <TTGlyph name="dagger" xMin="157" yMin="0" xMax="1009" yMax="1478">
      <contour>
        <pt x="661" y="982" on="1"/>
        <pt x="661" y="74" on="1"/>
        <pt x="661" y="37" on="0"/>
        <pt x="613" y="0" on="0"/>
        <pt x="584" y="0" on="1"/>
        <pt x="555" y="0" on="0"/>
        <pt x="508" y="37" on="0"/>
        <pt x="508" y="74" on="1"/>
        <pt x="508" y="982" on="1"/>
        <pt x="219" y="982" on="1"/>
        <pt x="188" y="982" on="0"/>
        <pt x="157" y="1023" on="0"/>
        <pt x="157" y="1049" on="1"/>
        <pt x="157" y="1075" on="0"/>
        <pt x="188" y="1117" on="0"/>
        <pt x="219" y="1117" on="1"/>
        <pt x="508" y="1117" on="1"/>
        <pt x="508" y="1403" on="1"/>
        <pt x="508" y="1441" on="0"/>
        <pt x="555" y="1478" on="0"/>
        <pt x="584" y="1478" on="1"/>
        <pt x="613" y="1478" on="0"/>
        <pt x="661" y="1440" on="0"/>
        <pt x="661" y="1403" on="1"/>
        <pt x="661" y="1117" on="1"/>
        <pt x="945" y="1117" on="1"/>
        <pt x="977" y="1117" on="0"/>
        <pt x="1009" y="1075" on="0"/>
        <pt x="1009" y="1050" on="1"/>
        <pt x="1009" y="1024" on="0"/>
        <pt x="977" y="982" on="0"/>
        <pt x="945" y="982" on="1"/>
      </contour>
    </TTGlyph>
    <TTGlyph name="daggerdbl" xMin="158" yMin="-1" xMax="1008" yMax="1478">
      <contour>
        <pt x="660" y="350" on="1"/>
        <pt x="660" y="73" on="1"/>
        <pt x="660" y="36" on="0"/>
        <pt x="613" y="-1" on="0"/>
        <pt x="584" y="-1" on="1"/>
        <pt x="556" y="-1" on="0"/>
        <pt x="509" y="36" on="0"/>
        <pt x="509" y="73" on="1"/>
        <pt x="509" y="350" on="1"/>
        <pt x="222" y="350" on="1"/>
        <pt x="190" y="350" on="0"/>
        <pt x="158" y="391" on="0"/>
        <pt x="158" y="416" on="1"/>
        <pt x="158" y="441" on="0"/>
        <pt x="190" y="483" on="0"/>
        <pt x="222" y="483" on="1"/>
        <pt x="509" y="483" on="1"/>
        <pt x="509" y="990" on="1"/>
        <pt x="222" y="990" on="1"/>
        <pt x="190" y="990" on="0"/>
        <pt x="158" y="1031" on="0"/>
        <pt x="158" y="1056" on="1"/>
        <pt x="158" y="1081" on="0"/>
        <pt x="190" y="1123" on="0"/>
        <pt x="222" y="1123" on="1"/>
        <pt x="509" y="1123" on="1"/>
        <pt x="509" y="1403" on="1"/>
        <pt x="509" y="1441" on="0"/>
        <pt x="556" y="1478" on="0"/>
        <pt x="584" y="1478" on="1"/>
        <pt x="613" y="1478" on="0"/>
        <pt x="660" y="1441" on="0"/>
        <pt x="660" y="1403" on="1"/>
        <pt x="660" y="1123" on="1"/>
        <pt x="942" y="1123" on="1"/>
        <pt x="975" y="1123" on="0"/>
        <pt x="1008" y="1082" on="0"/>
        <pt x="1008" y="1057" on="1"/>
        <pt x="1008" y="1031" on="0"/>
        <pt x="975" y="990" on="0"/>
        <pt x="942" y="990" on="1"/>
        <pt x="660" y="990" on="1"/>
        <pt x="660" y="483" on="1"/>
        <pt x="942" y="483" on="1"/>
        <pt x="975" y="483" on="0"/>
        <pt x="1008" y="442" on="0"/>
        <pt x="1008" y="417" on="1"/>
        <pt x="1008" y="391" on="0"/>
        <pt x="975" y="350" on="0"/>
        <pt x="942" y="350" on="1"/>
      </contour>
    </TTGlyph>
    <TTGlyph name="degree" xMin="104" yMin="814" xMax="716" yMax="1403">
      <contour>
        <pt x="716" y="1108" on="1"/>
        <pt x="716" y="1047" on="0"/>
        <pt x="667" y="940" on="0"/>
        <pt x="584" y="860" on="0"/>
        <pt x="473" y="814" on="0"/>
        <pt x="410" y="814" on="1"/>
        <pt x="347" y="814" on="0"/>
        <pt x="235" y="860" on="0"/>
        <pt x="152" y="940" on="0"/>
        <pt x="104" y="1047" on="0"/>
        <pt x="104" y="1108" on="1"/>
        <pt x="104" y="1169" on="0"/>
        <pt x="152" y="1276" on="0"/>
        <pt x="234" y="1356" on="0"/>
        <pt x="346" y="1403" on="0"/>
        <pt x="410" y="1403" on="1"/>
        <pt x="473" y="1403" on="0"/>
        <pt x="584" y="1356" on="0"/>
        <pt x="667" y="1276" on="0"/>
        <pt x="716" y="1169" on="0"/>
      </contour>
      <contour>
        <pt x="205" y="1108" on="1"/>
        <pt x="205" y="1065" on="0"/>
        <pt x="236" y="993" on="0"/>
        <pt x="290" y="940" on="0"/>
        <pt x="365" y="911" on="0"/>
        <pt x="410" y="911" on="1"/>
        <pt x="453" y="911" on="0"/>
        <pt x="528" y="940" on="0"/>
        <pt x="584" y="993" on="0"/>
        <pt x="615" y="1065" on="0"/>
        <pt x="615" y="1108" on="1"/>
        <pt x="615" y="1150" on="0"/>
        <pt x="583" y="1222" on="0"/>
        <pt x="528" y="1276" on="0"/>
        <pt x="452" y="1306" on="0"/>
        <pt x="408" y="1306" on="1"/>
        <pt x="364" y="1306" on="0"/>
        <pt x="289" y="1276" on="0"/>
        <pt x="235" y="1222" on="0"/>
        <pt x="205" y="1150" on="0"/>
      </contour>
    </TTGlyph>
    <TTGlyph name="dieresis" xMin="-7" yMin="1208" xMax="577" yMax="1396">
      <contour>
        <pt x="96" y="1208" on="1"/>
        <pt x="71" y="1208" on="0"/>
        <pt x="33" y="1224" on="0"/>
        <pt x="7" y="1251" on="0"/>
        <pt x="-7" y="1285" on="0"/>
        <pt x="-7" y="1303" on="1"/>
        <pt x="-7" y="1321" on="0"/>
        <pt x="7" y="1354" on="0"/>
        <pt x="33" y="1380" on="0"/>
        <pt x="71" y="1396" on="0"/>
        <pt x="96" y="1396" on="1"/>
        <pt x="121" y="1396" on="0"/>
        <pt x="160" y="1380" on="0"/>
        <pt x="186" y="1354" on="0"/>
        <pt x="200" y="1321" on="0"/>
        <pt x="200" y="1303" on="1"/>
        <pt x="200" y="1285" on="0"/>
        <pt x="186" y="1251" on="0"/>
        <pt x="160" y="1224" on="0"/>
        <pt x="121" y="1208" on="0"/>
      </contour>
      <contour>
        <pt x="474" y="1208" on="1"/>
        <pt x="449" y="1208" on="0"/>
        <pt x="410" y="1224" on="0"/>
        <pt x="384" y="1251" on="0"/>
        <pt x="370" y="1285" on="0"/>
        <pt x="370" y="1303" on="1"/>
        <pt x="370" y="1321" on="0"/>
        <pt x="384" y="1354" on="0"/>
        <pt x="410" y="1380" on="0"/>
        <pt x="449" y="1396" on="0"/>
        <pt x="474" y="1396" on="1"/>
        <pt x="499" y="1396" on="0"/>
        <pt x="537" y="1380" on="0"/>
        <pt x="563" y="1354" on="0"/>
        <pt x="577" y="1321" on="0"/>
        <pt x="577" y="1303" on="1"/>
        <pt x="577" y="1285" on="0"/>
        <pt x="563" y="1251" on="0"/>
        <pt x="537" y="1224" on="0"/>
        <pt x="499" y="1208" on="0"/>
      </contour>
    </TTGlyph>
    <TTGlyph name="divide" xMin="151" yMin="-9" xMax="1196" yMax="1039">
      <contour>
        <pt x="215" y="446" on="1"/>
        <pt x="183" y="446" on="0"/>
        <pt x="151" y="488" on="0"/>
        <pt x="151" y="514" on="1"/>
        <pt x="151" y="540" on="0"/>
        <pt x="183" y="583" on="0"/>
        <pt x="215" y="583" on="1"/>
        <pt x="1132" y="583" on="1"/>
        <pt x="1164" y="583" on="0"/>
        <pt x="1196" y="540" on="0"/>
        <pt x="1196" y="514" on="1"/>
        <pt x="1196" y="488" on="0"/>
        <pt x="1164" y="446" on="0"/>
        <pt x="1132" y="446" on="1"/>
      </contour>
      <contour>
        <pt x="568" y="84" on="1"/>
        <pt x="568" y="101" on="0"/>
        <pt x="582" y="134" on="0"/>
        <pt x="608" y="160" on="0"/>
        <pt x="646" y="176" on="0"/>
        <pt x="671" y="176" on="1"/>
        <pt x="696" y="176" on="0"/>
        <pt x="734" y="160" on="0"/>
        <pt x="760" y="134" on="0"/>
        <pt x="773" y="101" on="0"/>
        <pt x="773" y="84" on="1"/>
        <pt x="773" y="48" on="0"/>
        <pt x="721" y="-9" on="0"/>
        <pt x="671" y="-9" on="1"/>
        <pt x="621" y="-9" on="0"/>
        <pt x="568" y="48" on="0"/>
      </contour>
      <contour>
        <pt x="568" y="947" on="1"/>
        <pt x="568" y="965" on="0"/>
        <pt x="582" y="998" on="0"/>
        <pt x="608" y="1023" on="0"/>
        <pt x="646" y="1039" on="0"/>
        <pt x="671" y="1039" on="1"/>
        <pt x="696" y="1039" on="0"/>
        <pt x="734" y="1023" on="0"/>
        <pt x="760" y="998" on="0"/>
        <pt x="773" y="965" on="0"/>
        <pt x="773" y="947" on="1"/>
        <pt x="773" y="911" on="0"/>
        <pt x="721" y="854" on="0"/>
        <pt x="671" y="854" on="1"/>
        <pt x="621" y="854" on="0"/>
        <pt x="568" y="911" on="0"/>
      </contour>
    </TTGlyph>
    <TTGlyph name="dollar" xMin="91" yMin="-231" xMax="1109" yMax="1590">
      <contour>
        <pt x="530" y="-41" on="1"/>
        <pt x="480" y="-40" on="0"/>
        <pt x="381" y="-25" on="0"/>
        <pt x="290" y="-5" on="0"/>
        <pt x="210" y="18" on="0"/>
        <pt x="179" y="29" on="1"/>
        <pt x="148" y="40" on="0"/>
        <pt x="121" y="80" on="0"/>
        <pt x="121" y="101" on="1"/>
        <pt x="121" y="127" on="0"/>
        <pt x="154" y="166" on="0"/>
        <pt x="183" y="166" on="1"/>
        <pt x="196" y="166" on="0"/>
        <pt x="208" y="162" on="1"/>
        <pt x="248" y="150" on="0"/>
        <pt x="322" y="127" on="0"/>
        <pt x="406" y="109" on="0"/>
        <pt x="510" y="99" on="0"/>
        <pt x="580" y="99" on="1"/>
        <pt x="645" y="99" on="0"/>
        <pt x="769" y="130" on="0"/>
        <pt x="865" y="191" on="0"/>
        <pt x="924" y="282" on="0"/>
        <pt x="924" y="342" on="1"/>
        <pt x="924" y="385" on="0"/>
        <pt x="895" y="453" on="0"/>
        <pt x="844" y="506" on="0"/>
        <pt x="773" y="548" on="0"/>
        <pt x="732" y="565" on="1"/>
        <pt x="663" y="593" on="0"/>
        <pt x="514" y="638" on="0"/>
        <pt x="372" y="685" on="0"/>
        <pt x="244" y="744" on="0"/>
        <pt x="148" y="830" on="0"/>
        <pt x="91" y="951" on="0"/>
        <pt x="91" y="1037" on="1"/>
        <pt x="91" y="1120" on="0"/>
        <pt x="162" y="1253" on="0"/>
        <pt x="282" y="1348" on="0"/>
        <pt x="441" y="1404" on="0"/>
        <pt x="530" y="1411" on="1"/>
        <pt x="530" y="1535" on="1"/>
        <pt x="530" y="1562" on="0"/>
        <pt x="564" y="1590" on="0"/>
        <pt x="585" y="1590" on="1"/>
        <pt x="605" y="1590" on="0"/>
        <pt x="639" y="1563" on="0"/>
        <pt x="639" y="1535" on="1"/>
        <pt x="639" y="1411" on="1"/>
        <pt x="721" y="1407" on="0"/>
        <pt x="895" y="1379" on="0"/>
        <pt x="968" y="1351" on="1"/>
        <pt x="997" y="1342" on="0"/>
        <pt x="1024" y="1302" on="0"/>
        <pt x="1024" y="1280" on="1"/>
        <pt x="1024" y="1255" on="0"/>
        <pt x="990" y="1216" on="0"/>
        <pt x="961" y="1216" on="1"/>
        <pt x="948" y="1216" on="0"/>
        <pt x="936" y="1220" on="1"/>
        <pt x="897" y="1229" on="0"/>
        <pt x="810" y="1247" on="0"/>
        <pt x="722" y="1261" on="0"/>
        <pt x="636" y="1269" on="0"/>
        <pt x="598" y="1269" on="1"/>
        <pt x="543" y="1269" on="0"/>
        <pt x="428" y="1244" on="0"/>
        <pt x="333" y="1193" on="0"/>
        <pt x="273" y="1112" on="0"/>
        <pt x="273" y="1057" on="1"/>
        <pt x="273" y="985" on="0"/>
        <pt x="345" y="889" on="0"/>
        <pt x="462" y="822" on="0"/>
        <pt x="613" y="773" on="0"/>
        <pt x="769" y="724" on="0"/>
        <pt x="920" y="665" on="0"/>
        <pt x="1037" y="577" on="0"/>
        <pt x="1109" y="451" on="0"/>
        <pt x="1109" y="359" on="1"/>
        <pt x="1109" y="270" on="0"/>
        <pt x="1033" y="129" on="0"/>
        <pt x="904" y="28" on="0"/>
        <pt x="733" y="-32" on="0"/>
        <pt x="639" y="-40" on="1"/>
        <pt x="639" y="-176" on="1"/>
        <pt x="639" y="-203" on="0"/>
        <pt x="603" y="-231" on="0"/>
        <pt x="582" y="-231" on="1"/>
        <pt x="562" y="-231" on="0"/>
        <pt x="530" y="-205" on="0"/>
        <pt x="530" y="-176" on="1"/>
      </contour>
    </TTGlyph>
    <TTGlyph name="dotaccent" xMin="177" yMin="1263" xMax="392" yMax="1458">
      <contour>
        <pt x="177" y="1361" on="1"/>
        <pt x="177" y="1379" on="0"/>
        <pt x="191" y="1414" on="0"/>
        <pt x="218" y="1441" on="0"/>
        <pt x="258" y="1458" on="0"/>
        <pt x="284" y="1458" on="1"/>
        <pt x="310" y="1458" on="0"/>
        <pt x="350" y="1441" on="0"/>
        <pt x="378" y="1414" on="0"/>
        <pt x="392" y="1379" on="0"/>
        <pt x="392" y="1361" on="1"/>
        <pt x="392" y="1342" on="0"/>
        <pt x="378" y="1306" on="0"/>
        <pt x="350" y="1279" on="0"/>
        <pt x="310" y="1263" on="0"/>
        <pt x="284" y="1263" on="1"/>
        <pt x="258" y="1263" on="0"/>
        <pt x="218" y="1279" on="0"/>
        <pt x="191" y="1306" on="0"/>
        <pt x="177" y="1342" on="0"/>
      </contour>
    </TTGlyph>
    <TTGlyph name="dotlessi" xMin="157" yMin="0" xMax="317" yMax="991">
      <contour>
        <pt x="157" y="911" on="1"/>
        <pt x="157" y="951" on="0"/>
        <pt x="208" y="991" on="0"/>
        <pt x="238" y="991" on="1"/>
        <pt x="253" y="991" on="0"/>
        <pt x="281" y="981" on="0"/>
        <pt x="303" y="961" on="0"/>
        <pt x="317" y="931" on="0"/>
        <pt x="317" y="911" on="1"/>
        <pt x="317" y="81" on="1"/>
        <pt x="317" y="41" on="0"/>
        <pt x="265" y="0" on="0"/>
        <pt x="235" y="0" on="1"/>
        <pt x="205" y="0" on="0"/>
        <pt x="157" y="39" on="0"/>
        <pt x="157" y="81" on="1"/>
      </contour>
    </TTGlyph>
    <TTGlyph name="e" xMin="94" yMin="-22" xMax="1041" yMax="1013">
      <contour>
        <pt x="1041" y="526" on="1"/>
        <pt x="1041" y="503" on="0"/>
        <pt x="1012" y="468" on="0"/>
        <pt x="977" y="468" on="1"/>
        <pt x="262" y="468" on="1"/>
        <pt x="265" y="372" on="0"/>
        <pt x="314" y="237" on="0"/>
        <pt x="411" y="147" on="0"/>
        <pt x="528" y="102" on="0"/>
        <pt x="597" y="102" on="1"/>
        <pt x="670" y="102" on="0"/>
        <pt x="820" y="155" on="0"/>
        <pt x="894" y="206" on="1"/>
        <pt x="905" y="214" on="0"/>
        <pt x="926" y="220" on="0"/>
        <pt x="935" y="220" on="1"/>
        <pt x="958" y="220" on="0"/>
        <pt x="986" y="190" on="0"/>
        <pt x="986" y="169" on="1"/>
        <pt x="986" y="158" on="0"/>
        <pt x="976" y="133" on="0"/>
        <pt x="964" y="122" on="1"/>
        <pt x="923" y="83" on="0"/>
        <pt x="830" y="28" on="0"/>
        <pt x="732" y="-6" on="0"/>
        <pt x="632" y="-22" on="0"/>
        <pt x="584" y="-22" on="1"/>
        <pt x="483" y="-22" on="0"/>
        <pt x="304" y="49" on="0"/>
        <pt x="171" y="183" on="0"/>
        <pt x="94" y="376" on="0"/>
        <pt x="94" y="496" on="1"/>
        <pt x="94" y="599" on="0"/>
        <pt x="155" y="786" on="0"/>
        <pt x="275" y="929" on="0"/>
        <pt x="452" y="1013" on="0"/>
        <pt x="568" y="1013" on="1"/>
        <pt x="689" y="1013" on="0"/>
        <pt x="866" y="939" on="0"/>
        <pt x="981" y="809" on="0"/>
        <pt x="1038" y="631" on="0"/>
      </contour>
      <contour>
        <pt x="884" y="574" on="1"/>
        <pt x="879" y="644" on="0"/>
        <pt x="836" y="760" on="0"/>
        <pt x="758" y="844" on="0"/>
        <pt x="645" y="889" on="0"/>
        <pt x="570" y="889" on="1"/>
        <pt x="505" y="889" on="0"/>
        <pt x="397" y="839" on="0"/>
        <pt x="319" y="752" on="0"/>
        <pt x="271" y="638" on="0"/>
        <pt x="266" y="574" on="1"/>
      </contour>
    </TTGlyph>
    <TTGlyph name="eacute" xMin="97" yMin="-22" xMax="1044" yMax="1500">
      <component glyphName="acute" x="279" y="0" flags="0x1004"/>
      <component glyphName="e" x="3" y="0" flags="0x1004"/>
    </TTGlyph>
    <TTGlyph name="ecircumflex" xMin="97" yMin="-22" xMax="1044" yMax="1524">
      <component glyphName="circumflex" x="291" y="0" flags="0x1004"/>
      <component glyphName="e" x="3" y="0" flags="0x1004"/>
    </TTGlyph>
    <TTGlyph name="edieresis" xMin="97" yMin="-22" xMax="1044" yMax="1396">
      <component glyphName="dieresis" x="291" y="0" flags="0x1004"/>
      <component glyphName="e" x="3" y="0" flags="0x1004"/>
    </TTGlyph>
    <TTGlyph name="egrave" xMin="97" yMin="-22" xMax="1044" yMax="1499">
      <component glyphName="e" x="3" y="0" flags="0x1004"/>
      <component glyphName="grave" x="325" y="0" flags="0x1004"/>
    </TTGlyph>
    <TTGlyph name="eight" xMin="85" yMin="-22" xMax="1084" yMax="1438">
      <contour>
        <pt x="392" y="737" on="1"/>
        <pt x="330" y="744" on="0"/>
        <pt x="226" y="810" on="0"/>
        <pt x="150" y="894" on="0"/>
        <pt x="107" y="1003" on="0"/>
        <pt x="107" y="1064" on="1"/>
        <pt x="107" y="1159" on="0"/>
        <pt x="187" y="1299" on="0"/>
        <pt x="320" y="1392" on="0"/>
        <pt x="492" y="1438" on="0"/>
        <pt x="584" y="1438" on="1"/>
        <pt x="677" y="1438" on="0"/>
        <pt x="850" y="1392" on="0"/>
        <pt x="982" y="1299" on="0"/>
        <pt x="1062" y="1159" on="0"/>
        <pt x="1062" y="1064" on="1"/>
        <pt x="1062" y="1001" on="0"/>
        <pt x="1019" y="897" on="0"/>
        <pt x="944" y="817" on="0"/>
        <pt x="840" y="750" on="0"/>
        <pt x="779" y="737" on="1"/>
        <pt x="779" y="735" on="1"/>
        <pt x="922" y="695" on="0"/>
        <pt x="1084" y="512" on="0"/>
        <pt x="1084" y="377" on="1"/>
        <pt x="1084" y="280" on="0"/>
        <pt x="1002" y="128" on="0"/>
        <pt x="864" y="28" on="0"/>
        <pt x="683" y="-22" on="0"/>
        <pt x="584" y="-22" on="1"/>
        <pt x="485" y="-22" on="0"/>
        <pt x="304" y="28" on="0"/>
        <pt x="167" y="128" on="0"/>
        <pt x="85" y="280" on="0"/>
        <pt x="85" y="377" on="1"/>
        <pt x="85" y="442" on="0"/>
        <pt x="128" y="553" on="0"/>
        <pt x="208" y="640" on="0"/>
        <pt x="322" y="719" on="0"/>
        <pt x="392" y="733" on="1"/>
      </contour>
      <contour>
        <pt x="279" y="1061" on="1"/>
        <pt x="279" y="1000" on="0"/>
        <pt x="325" y="909" on="0"/>
        <pt x="406" y="848" on="0"/>
        <pt x="518" y="818" on="0"/>
        <pt x="584" y="818" on="1"/>
        <pt x="651" y="818" on="0"/>
        <pt x="763" y="848" on="0"/>
        <pt x="844" y="909" on="0"/>
        <pt x="890" y="1000" on="0"/>
        <pt x="890" y="1061" on="1"/>
        <pt x="890" y="1127" on="0"/>
        <pt x="837" y="1220" on="0"/>
        <pt x="750" y="1279" on="0"/>
        <pt x="640" y="1307" on="0"/>
        <pt x="584" y="1307" on="1"/>
        <pt x="528" y="1307" on="0"/>
        <pt x="419" y="1279" on="0"/>
        <pt x="333" y="1220" on="0"/>
        <pt x="279" y="1127" on="0"/>
      </contour>
      <contour>
        <pt x="267" y="383" on="1"/>
        <pt x="267" y="317" on="0"/>
        <pt x="320" y="215" on="0"/>
        <pt x="408" y="149" on="0"/>
        <pt x="522" y="118" on="0"/>
        <pt x="584" y="118" on="1"/>
        <pt x="646" y="118" on="0"/>
        <pt x="761" y="149" on="0"/>
        <pt x="849" y="215" on="0"/>
        <pt x="901" y="317" on="0"/>
        <pt x="901" y="383" on="1"/>
        <pt x="901" y="453" on="0"/>
        <pt x="849" y="554" on="0"/>
        <pt x="761" y="620" on="0"/>
        <pt x="646" y="664" on="0"/>
        <pt x="584" y="664" on="1"/>
        <pt x="522" y="664" on="0"/>
        <pt x="408" y="620" on="0"/>
        <pt x="320" y="554" on="0"/>
        <pt x="267" y="453" on="0"/>
      </contour>
    </TTGlyph>
    <TTGlyph name="ellipsis" xMin="184" yMin="-1" xMax="1567" yMax="194">
      <contour>
        <pt x="184" y="97" on="1"/>
        <pt x="184" y="115" on="0"/>
        <pt x="198" y="150" on="0"/>
        <pt x="226" y="177" on="0"/>
        <pt x="266" y="194" on="0"/>
        <pt x="292" y="194" on="1"/>
        <pt x="317" y="194" on="0"/>
        <pt x="357" y="177" on="0"/>
        <pt x="385" y="150" on="0"/>
        <pt x="399" y="115" on="0"/>
        <pt x="399" y="97" on="1"/>
        <pt x="399" y="78" on="0"/>
        <pt x="385" y="43" on="0"/>
        <pt x="357" y="16" on="0"/>
        <pt x="317" y="-1" on="0"/>
        <pt x="292" y="-1" on="1"/>
        <pt x="266" y="-1" on="0"/>
        <pt x="226" y="16" on="0"/>
        <pt x="198" y="43" on="0"/>
        <pt x="184" y="78" on="0"/>
      </contour>
      <contour>
        <pt x="768" y="97" on="1"/>
        <pt x="768" y="115" on="0"/>
        <pt x="782" y="150" on="0"/>
        <pt x="810" y="177" on="0"/>
        <pt x="850" y="194" on="0"/>
        <pt x="876" y="194" on="1"/>
        <pt x="902" y="194" on="0"/>
        <pt x="942" y="177" on="0"/>
        <pt x="969" y="150" on="0"/>
        <pt x="983" y="115" on="0"/>
        <pt x="983" y="97" on="1"/>
        <pt x="983" y="78" on="0"/>
        <pt x="969" y="43" on="0"/>
        <pt x="942" y="16" on="0"/>
        <pt x="902" y="-1" on="0"/>
        <pt x="876" y="-1" on="1"/>
        <pt x="850" y="-1" on="0"/>
        <pt x="810" y="16" on="0"/>
        <pt x="782" y="43" on="0"/>
        <pt x="768" y="78" on="0"/>
      </contour>
      <contour>
        <pt x="1353" y="97" on="1"/>
        <pt x="1353" y="115" on="0"/>
        <pt x="1367" y="150" on="0"/>
        <pt x="1394" y="177" on="0"/>
        <pt x="1434" y="194" on="0"/>
        <pt x="1460" y="194" on="1"/>
        <pt x="1486" y="194" on="0"/>
        <pt x="1526" y="177" on="0"/>
        <pt x="1553" y="150" on="0"/>
        <pt x="1567" y="115" on="0"/>
        <pt x="1567" y="97" on="1"/>
        <pt x="1567" y="78" on="0"/>
        <pt x="1553" y="43" on="0"/>
        <pt x="1526" y="16" on="0"/>
        <pt x="1486" y="-1" on="0"/>
        <pt x="1460" y="-1" on="1"/>
        <pt x="1434" y="-1" on="0"/>
        <pt x="1394" y="16" on="0"/>
        <pt x="1367" y="43" on="0"/>
        <pt x="1353" y="78" on="0"/>
      </contour>
    </TTGlyph>
    <TTGlyph name="emdash" xMin="2" yMin="457" xMax="2046" yMax="598">
      <contour>
        <pt x="71" y="457" on="1"/>
        <pt x="36" y="457" on="0"/>
        <pt x="2" y="501" on="0"/>
        <pt x="2" y="528" on="1"/>
        <pt x="2" y="554" on="0"/>
        <pt x="36" y="598" on="0"/>
        <pt x="71" y="598" on="1"/>
        <pt x="1977" y="598" on="1"/>
        <pt x="2012" y="598" on="0"/>
        <pt x="2046" y="553" on="0"/>
        <pt x="2046" y="527" on="1"/>
        <pt x="2046" y="501" on="0"/>
        <pt x="2012" y="457" on="0"/>
        <pt x="1977" y="457" on="1"/>
      </contour>
    </TTGlyph>
    <TTGlyph name="endash" xMin="2" yMin="457" xMax="1021" yMax="598">
      <contour>
        <pt x="71" y="457" on="1"/>
        <pt x="36" y="457" on="0"/>
        <pt x="2" y="501" on="0"/>
        <pt x="2" y="528" on="1"/>
        <pt x="2" y="554" on="0"/>
        <pt x="36" y="598" on="0"/>
        <pt x="71" y="598" on="1"/>
        <pt x="952" y="598" on="1"/>
        <pt x="987" y="598" on="0"/>
        <pt x="1021" y="553" on="0"/>
        <pt x="1021" y="527" on="1"/>
        <pt x="1021" y="501" on="0"/>
        <pt x="987" y="457" on="0"/>
        <pt x="952" y="457" on="1"/>
      </contour>
    </TTGlyph>
    <TTGlyph name="equal" xMin="157" yMin="233" xMax="1182" yMax="760">
      <contour>
        <pt x="227" y="233" on="1"/>
        <pt x="198" y="233" on="0"/>
        <pt x="157" y="272" on="0"/>
        <pt x="157" y="299" on="1"/>
        <pt x="157" y="328" on="0"/>
        <pt x="198" y="367" on="0"/>
        <pt x="227" y="367" on="1"/>
        <pt x="1113" y="367" on="1"/>
        <pt x="1142" y="367" on="0"/>
        <pt x="1182" y="328" on="0"/>
        <pt x="1182" y="299" on="1"/>
        <pt x="1182" y="272" on="0"/>
        <pt x="1142" y="233" on="0"/>
        <pt x="1113" y="233" on="1"/>
      </contour>
      <contour>
        <pt x="227" y="625" on="1"/>
        <pt x="198" y="625" on="0"/>
        <pt x="157" y="665" on="0"/>
        <pt x="157" y="692" on="1"/>
        <pt x="157" y="721" on="0"/>
        <pt x="198" y="760" on="0"/>
        <pt x="227" y="760" on="1"/>
        <pt x="1113" y="760" on="1"/>
        <pt x="1142" y="760" on="0"/>
        <pt x="1182" y="721" on="0"/>
        <pt x="1182" y="692" on="1"/>
        <pt x="1182" y="665" on="0"/>
        <pt x="1142" y="625" on="0"/>
        <pt x="1113" y="625" on="1"/>
      </contour>
    </TTGlyph>
    <TTGlyph name="eth" xMin="89" yMin="-33" xMax="1230" yMax="1526">
      <contour>
        <pt x="634" y="1052" on="1"/>
        <pt x="602" y="1052" on="0"/>
        <pt x="570" y="1091" on="0"/>
        <pt x="570" y="1114" on="1"/>
        <pt x="570" y="1137" on="0"/>
        <pt x="602" y="1177" on="0"/>
        <pt x="634" y="1177" on="1"/>
        <pt x="809" y="1177" on="1"/>
        <pt x="786" y="1235" on="0"/>
        <pt x="717" y="1351" on="0"/>
        <pt x="674" y="1401" on="1"/>
        <pt x="663" y="1414" on="0"/>
        <pt x="653" y="1441" on="0"/>
        <pt x="653" y="1453" on="1"/>
        <pt x="653" y="1484" on="0"/>
        <pt x="701" y="1526" on="0"/>
        <pt x="734" y="1526" on="1"/>
        <pt x="771" y="1526" on="0"/>
        <pt x="847" y="1456" on="0"/>
        <pt x="916" y="1352" on="0"/>
        <pt x="974" y="1229" on="0"/>
        <pt x="994" y="1177" on="1"/>
        <pt x="1167" y="1177" on="1"/>
        <pt x="1199" y="1177" on="0"/>
        <pt x="1230" y="1138" on="0"/>
        <pt x="1230" y="1115" on="1"/>
        <pt x="1230" y="1092" on="0"/>
        <pt x="1198" y="1052" on="0"/>
        <pt x="1167" y="1052" on="1"/>
        <pt x="1033" y="1052" on="1"/>
        <pt x="1059" y="940" on="0"/>
        <pt x="1081" y="718" on="0"/>
        <pt x="1081" y="619" on="1"/>
        <pt x="1081" y="491" on="0"/>
        <pt x="1030" y="256" on="0"/>
        <pt x="908" y="75" on="0"/>
        <pt x="706" y="-33" on="0"/>
        <pt x="556" y="-33" on="1"/>
        <pt x="447" y="-33" on="0"/>
        <pt x="274" y="39" on="0"/>
        <pt x="153" y="165" on="0"/>
        <pt x="89" y="337" on="0"/>
        <pt x="89" y="438" on="1"/>
        <pt x="89" y="537" on="0"/>
        <pt x="148" y="703" on="0"/>
        <pt x="261" y="822" on="0"/>
        <pt x="425" y="889" on="0"/>
        <pt x="529" y="889" on="1"/>
        <pt x="589" y="889" on="0"/>
        <pt x="701" y="863" on="0"/>
        <pt x="795" y="810" on="0"/>
        <pt x="871" y="731" on="0"/>
        <pt x="895" y="677" on="1"/>
        <pt x="899" y="677" on="1"/>
        <pt x="899" y="756" on="0"/>
        <pt x="879" y="950" on="0"/>
        <pt x="852" y="1052" on="1"/>
      </contour>
      <contour>
        <pt x="572" y="107" on="1"/>
        <pt x="638" y="107" on="0"/>
        <pt x="749" y="158" on="0"/>
        <pt x="829" y="243" on="0"/>
        <pt x="874" y="357" on="0"/>
        <pt x="874" y="420" on="1"/>
        <pt x="874" y="493" on="0"/>
        <pt x="832" y="619" on="0"/>
        <pt x="749" y="711" on="0"/>
        <pt x="628" y="763" on="0"/>
        <pt x="549" y="763" on="1"/>
        <pt x="474" y="763" on="0"/>
        <pt x="368" y="708" on="0"/>
        <pt x="300" y="615" on="0"/>
        <pt x="268" y="494" on="0"/>
        <pt x="268" y="428" on="1"/>
        <pt x="268" y="358" on="0"/>
        <pt x="308" y="240" on="0"/>
        <pt x="385" y="155" on="0"/>
        <pt x="498" y="107" on="0"/>
      </contour>
    </TTGlyph>
    <TTGlyph name="exclam" xMin="283" yMin="0" xMax="500" yMax="1480">
      <contour>
        <pt x="392" y="181" on="1"/>
        <pt x="419" y="181" on="0"/>
        <pt x="459" y="166" on="0"/>
        <pt x="486" y="140" on="0"/>
        <pt x="500" y="108" on="0"/>
        <pt x="500" y="92" on="1"/>
        <pt x="500" y="74" on="0"/>
        <pt x="486" y="41" on="0"/>
        <pt x="459" y="16" on="0"/>
        <pt x="419" y="0" on="0"/>
        <pt x="392" y="0" on="1"/>
        <pt x="365" y="0" on="0"/>
        <pt x="324" y="16" on="0"/>
        <pt x="297" y="41" on="0"/>
        <pt x="283" y="74" on="0"/>
        <pt x="283" y="92" on="1"/>
        <pt x="283" y="108" on="0"/>
        <pt x="297" y="140" on="0"/>
        <pt x="324" y="166" on="0"/>
        <pt x="365" y="181" on="0"/>
      </contour>
      <contour>
        <pt x="293" y="1400" on="1"/>
        <pt x="293" y="1439" on="0"/>
        <pt x="349" y="1480" on="0"/>
        <pt x="386" y="1480" on="1"/>
        <pt x="422" y="1480" on="0"/>
        <pt x="477" y="1441" on="0"/>
        <pt x="477" y="1400" on="1"/>
        <pt x="449" y="438" on="1"/>
        <pt x="447" y="398" on="0"/>
        <pt x="409" y="358" on="0"/>
        <pt x="384" y="358" on="1"/>
        <pt x="361" y="358" on="0"/>
        <pt x="321" y="398" on="0"/>
        <pt x="320" y="438" on="1"/>
      </contour>
    </TTGlyph>
    <TTGlyph name="exclamdown" xMin="306" yMin="-370" xMax="523" yMax="1110">
      <component glyphName="exclam" x="23" y="1110" scalex="1.0" scaley="-0.999816894531" flags="0x1004"/>
    </TTGlyph>
    <TTGlyph name="f" xMin="43" yMin="0" xMax="693" yMax="1449">
      <contour>
        <pt x="402" y="874" on="1"/>
        <pt x="402" y="79" on="1"/>
        <pt x="402" y="40" on="0"/>
        <pt x="352" y="0" on="0"/>
        <pt x="321" y="0" on="1"/>
        <pt x="306" y="0" on="0"/>
        <pt x="278" y="10" on="0"/>
        <pt x="256" y="29" on="0"/>
        <pt x="242" y="59" on="0"/>
        <pt x="242" y="79" on="1"/>
        <pt x="242" y="874" on="1"/>
        <pt x="107" y="874" on="1"/>
        <pt x="75" y="874" on="0"/>
        <pt x="43" y="911" on="0"/>
        <pt x="43" y="933" on="1"/>
        <pt x="43" y="955" on="0"/>
        <pt x="75" y="991" on="0"/>
        <pt x="107" y="991" on="1"/>
        <pt x="242" y="991" on="1"/>
        <pt x="242" y="1102" on="1"/>
        <pt x="242" y="1199" on="0"/>
        <pt x="277" y="1332" on="0"/>
        <pt x="342" y="1413" on="0"/>
        <pt x="435" y="1449" on="0"/>
        <pt x="492" y="1449" on="1"/>
        <pt x="530" y="1449" on="0"/>
        <pt x="612" y="1435" on="0"/>
        <pt x="653" y="1424" on="1"/>
        <pt x="674" y="1418" on="0"/>
        <pt x="693" y="1387" on="0"/>
        <pt x="693" y="1370" on="1"/>
        <pt x="693" y="1348" on="0"/>
        <pt x="665" y="1312" on="0"/>
        <pt x="639" y="1312" on="1"/>
        <pt x="622" y="1312" on="0"/>
        <pt x="595" y="1316" on="0"/>
        <pt x="570" y="1320" on="0"/>
        <pt x="544" y="1324" on="0"/>
        <pt x="529" y="1324" on="1"/>
        <pt x="487" y="1324" on="0"/>
        <pt x="437" y="1295" on="0"/>
        <pt x="410" y="1226" on="0"/>
        <pt x="402" y="1110" on="0"/>
        <pt x="402" y="1023" on="1"/>
        <pt x="402" y="991" on="1"/>
        <pt x="574" y="991" on="1"/>
        <pt x="606" y="991" on="0"/>
        <pt x="638" y="955" on="0"/>
        <pt x="638" y="933" on="1"/>
        <pt x="638" y="910" on="0"/>
        <pt x="606" y="874" on="0"/>
        <pt x="574" y="874" on="1"/>
      </contour>
    </TTGlyph>
    <TTGlyph name="fi" xMin="35" yMin="0" xMax="1038" yMax="1449">
      <contour>
        <pt x="850" y="867" on="1"/>
        <pt x="398" y="867" on="1"/>
        <pt x="398" y="80" on="1"/>
        <pt x="398" y="41" on="0"/>
        <pt x="348" y="1" on="0"/>
        <pt x="317" y="1" on="1"/>
        <pt x="302" y="1" on="0"/>
        <pt x="274" y="11" on="0"/>
        <pt x="252" y="30" on="0"/>
        <pt x="238" y="60" on="0"/>
        <pt x="238" y="80" on="1"/>
        <pt x="238" y="867" on="1"/>
        <pt x="99" y="867" on="1"/>
        <pt x="67" y="867" on="0"/>
        <pt x="35" y="907" on="0"/>
        <pt x="35" y="930" on="1"/>
        <pt x="35" y="953" on="0"/>
        <pt x="67" y="991" on="0"/>
        <pt x="99" y="991" on="1"/>
        <pt x="238" y="991" on="1"/>
        <pt x="238" y="1102" on="1"/>
        <pt x="238" y="1199" on="0"/>
        <pt x="273" y="1332" on="0"/>
        <pt x="338" y="1413" on="0"/>
        <pt x="431" y="1449" on="0"/>
        <pt x="488" y="1449" on="1"/>
        <pt x="526" y="1449" on="0"/>
        <pt x="606" y="1437" on="0"/>
        <pt x="647" y="1426" on="1"/>
        <pt x="670" y="1420" on="0"/>
        <pt x="691" y="1387" on="0"/>
        <pt x="691" y="1368" on="1"/>
        <pt x="691" y="1344" on="0"/>
        <pt x="662" y="1304" on="0"/>
        <pt x="636" y="1304" on="1"/>
        <pt x="605" y="1304" on="0"/>
        <pt x="550" y="1317" on="0"/>
        <pt x="518" y="1317" on="1"/>
        <pt x="476" y="1317" on="0"/>
        <pt x="428" y="1290" on="0"/>
        <pt x="404" y="1224" on="0"/>
        <pt x="398" y="1110" on="0"/>
        <pt x="398" y="1023" on="1"/>
        <pt x="398" y="991" on="1"/>
        <pt x="926" y="991" on="1"/>
        <pt x="941" y="991" on="0"/>
        <pt x="971" y="982" on="0"/>
        <pt x="995" y="962" on="0"/>
        <pt x="1010" y="932" on="0"/>
        <pt x="1010" y="911" on="1"/>
        <pt x="1010" y="81" on="1"/>
        <pt x="1010" y="41" on="0"/>
        <pt x="958" y="0" on="0"/>
        <pt x="928" y="0" on="1"/>
        <pt x="898" y="0" on="0"/>
        <pt x="850" y="39" on="0"/>
        <pt x="850" y="81" on="1"/>
      </contour>
      <contour>
        <pt x="1038" y="1336" on="1"/>
        <pt x="1038" y="1299" on="0"/>
        <pt x="981" y="1244" on="0"/>
        <pt x="930" y="1244" on="1"/>
        <pt x="879" y="1244" on="0"/>
        <pt x="821" y="1299" on="0"/>
        <pt x="821" y="1336" on="1"/>
        <pt x="821" y="1373" on="0"/>
        <pt x="879" y="1428" on="0"/>
        <pt x="930" y="1428" on="1"/>
        <pt x="981" y="1428" on="0"/>
        <pt x="1038" y="1373" on="0"/>
      </contour>
    </TTGlyph>
    <TTGlyph name="five" xMin="141" yMin="-22" xMax="1072" yMax="1426">
      <contour>
        <pt x="183" y="1348" on="1"/>
        <pt x="183" y="1383" on="0"/>
        <pt x="224" y="1426" on="0"/>
        <pt x="266" y="1426" on="1"/>
        <pt x="934" y="1426" on="1"/>
        <pt x="969" y="1426" on="0"/>
        <pt x="1003" y="1382" on="0"/>
        <pt x="1003" y="1356" on="1"/>
        <pt x="1003" y="1329" on="0"/>
        <pt x="969" y="1285" on="0"/>
        <pt x="934" y="1285" on="1"/>
        <pt x="324" y="1285" on="1"/>
        <pt x="322" y="783" on="1"/>
        <pt x="384" y="850" on="0"/>
        <pt x="544" y="924" on="0"/>
        <pt x="640" y="924" on="1"/>
        <pt x="739" y="924" on="0"/>
        <pt x="899" y="851" on="0"/>
        <pt x="1011" y="726" on="0"/>
        <pt x="1072" y="558" on="0"/>
        <pt x="1072" y="457" on="1"/>
        <pt x="1072" y="351" on="0"/>
        <pt x="1003" y="177" on="0"/>
        <pt x="878" y="50" on="0"/>
        <pt x="702" y="-22" on="0"/>
        <pt x="595" y="-22" on="1"/>
        <pt x="518" y="-22" on="0"/>
        <pt x="379" y="8" on="0"/>
        <pt x="263" y="70" on="0"/>
        <pt x="176" y="165" on="0"/>
        <pt x="152" y="230" on="1"/>
        <pt x="147" y="244" on="0"/>
        <pt x="141" y="265" on="0"/>
        <pt x="141" y="276" on="1"/>
        <pt x="141" y="308" on="0"/>
        <pt x="179" y="344" on="0"/>
        <pt x="204" y="344" on="1"/>
        <pt x="222" y="344" on="0"/>
        <pt x="259" y="322" on="0"/>
        <pt x="273" y="297" on="1"/>
        <pt x="291" y="252" on="0"/>
        <pt x="352" y="184" on="0"/>
        <pt x="432" y="140" on="0"/>
        <pt x="526" y="118" on="0"/>
        <pt x="578" y="118" on="1"/>
        <pt x="657" y="118" on="0"/>
        <pt x="774" y="171" on="0"/>
        <pt x="851" y="264" on="0"/>
        <pt x="889" y="389" on="0"/>
        <pt x="889" y="464" on="1"/>
        <pt x="889" y="536" on="0"/>
        <pt x="852" y="651" on="0"/>
        <pt x="780" y="737" on="0"/>
        <pt x="676" y="787" on="0"/>
        <pt x="610" y="787" on="1"/>
        <pt x="556" y="787" on="0"/>
        <pt x="469" y="760" on="0"/>
        <pt x="402" y="718" on="0"/>
        <pt x="355" y="668" on="0"/>
        <pt x="341" y="645" on="1"/>
        <pt x="325" y="616" on="0"/>
        <pt x="277" y="588" on="0"/>
        <pt x="253" y="588" on="1"/>
        <pt x="225" y="588" on="0"/>
        <pt x="183" y="627" on="0"/>
        <pt x="183" y="665" on="1"/>
      </contour>
    </TTGlyph>
    <TTGlyph name="fl" xMin="35" yMin="0" xMax="938" yMax="1447">
      <contour>
        <pt x="398" y="867" on="1"/>
        <pt x="398" y="80" on="1"/>
        <pt x="398" y="41" on="0"/>
        <pt x="348" y="1" on="0"/>
        <pt x="317" y="1" on="1"/>
        <pt x="302" y="1" on="0"/>
        <pt x="274" y="11" on="0"/>
        <pt x="252" y="30" on="0"/>
        <pt x="238" y="60" on="0"/>
        <pt x="238" y="80" on="1"/>
        <pt x="238" y="867" on="1"/>
        <pt x="99" y="867" on="1"/>
        <pt x="67" y="867" on="0"/>
        <pt x="35" y="907" on="0"/>
        <pt x="35" y="930" on="1"/>
        <pt x="35" y="953" on="0"/>
        <pt x="67" y="991" on="0"/>
        <pt x="99" y="991" on="1"/>
        <pt x="238" y="991" on="1"/>
        <pt x="238" y="1102" on="1"/>
        <pt x="238" y="1198" on="0"/>
        <pt x="275" y="1330" on="0"/>
        <pt x="341" y="1411" on="0"/>
        <pt x="431" y="1447" on="0"/>
        <pt x="485" y="1447" on="1"/>
        <pt x="564" y="1447" on="0"/>
        <pt x="673" y="1421" on="0"/>
        <pt x="743" y="1388" on="0"/>
        <pt x="776" y="1357" on="0"/>
        <pt x="779" y="1353" on="1"/>
        <pt x="782" y="1389" on="0"/>
        <pt x="830" y="1425" on="0"/>
        <pt x="859" y="1425" on="1"/>
        <pt x="889" y="1425" on="0"/>
        <pt x="938" y="1386" on="0"/>
        <pt x="938" y="1345" on="1"/>
        <pt x="938" y="81" on="1"/>
        <pt x="938" y="41" on="0"/>
        <pt x="886" y="0" on="0"/>
        <pt x="856" y="0" on="1"/>
        <pt x="826" y="0" on="0"/>
        <pt x="778" y="39" on="0"/>
        <pt x="778" y="81" on="1"/>
        <pt x="778" y="1331" on="1"/>
        <pt x="525" y="1331" on="1"/>
        <pt x="484" y="1331" on="0"/>
        <pt x="434" y="1300" on="0"/>
        <pt x="407" y="1229" on="0"/>
        <pt x="398" y="1112" on="0"/>
        <pt x="398" y="1026" on="1"/>
        <pt x="398" y="991" on="1"/>
        <pt x="560" y="991" on="1"/>
        <pt x="592" y="991" on="0"/>
        <pt x="624" y="953" on="0"/>
        <pt x="624" y="930" on="1"/>
        <pt x="624" y="907" on="0"/>
        <pt x="592" y="867" on="0"/>
        <pt x="560" y="867" on="1"/>
      </contour>
    </TTGlyph>
    <TTGlyph name="florin" xMin="-30" yMin="-536" xMax="1071" yMax="1545">
      <contour>
        <pt x="652" y="806" on="1"/>
        <pt x="630" y="707" on="0"/>
        <pt x="587" y="498" on="0"/>
        <pt x="542" y="288" on="0"/>
        <pt x="497" y="81" on="0"/>
        <pt x="473" y="-16" on="1"/>
        <pt x="434" y="-177" on="0"/>
        <pt x="334" y="-379" on="0"/>
        <pt x="224" y="-494" on="0"/>
        <pt x="107" y="-536" on="0"/>
        <pt x="50" y="-536" on="1"/>
        <pt x="8" y="-536" on="0"/>
        <pt x="-30" y="-503" on="0"/>
        <pt x="-30" y="-481" on="1"/>
        <pt x="-30" y="-457" on="0"/>
        <pt x="18" y="-414" on="0"/>
        <pt x="65" y="-412" on="1"/>
        <pt x="92" y="-411" on="0"/>
        <pt x="159" y="-382" on="0"/>
        <pt x="230" y="-297" on="0"/>
        <pt x="301" y="-142" on="0"/>
        <pt x="332" y="-14" on="1"/>
        <pt x="356" y="83" on="0"/>
        <pt x="401" y="289" on="0"/>
        <pt x="444" y="499" on="0"/>
        <pt x="487" y="707" on="0"/>
        <pt x="509" y="806" on="1"/>
        <pt x="356" y="806" on="1"/>
        <pt x="321" y="806" on="0"/>
        <pt x="285" y="850" on="0"/>
        <pt x="285" y="877" on="1"/>
        <pt x="285" y="903" on="0"/>
        <pt x="321" y="947" on="0"/>
        <pt x="356" y="947" on="1"/>
        <pt x="538" y="947" on="1"/>
        <pt x="568" y="1109" on="0"/>
        <pt x="661" y="1336" on="0"/>
        <pt x="779" y="1480" on="0"/>
        <pt x="917" y="1545" on="0"/>
        <pt x="992" y="1545" on="1"/>
        <pt x="1031" y="1545" on="0"/>
        <pt x="1071" y="1510" on="0"/>
        <pt x="1071" y="1489" on="1"/>
        <pt x="1071" y="1466" on="0"/>
        <pt x="1024" y="1428" on="0"/>
        <pt x="975" y="1428" on="1"/>
        <pt x="924" y="1428" on="0"/>
        <pt x="842" y="1374" on="0"/>
        <pt x="772" y="1259" on="0"/>
        <pt x="711" y="1076" on="0"/>
        <pt x="682" y="947" on="1"/>
        <pt x="850" y="947" on="1"/>
        <pt x="885" y="947" on="0"/>
        <pt x="920" y="902" on="0"/>
        <pt x="920" y="876" on="1"/>
        <pt x="920" y="850" on="0"/>
        <pt x="885" y="806" on="0"/>
        <pt x="850" y="806" on="1"/>
      </contour>
    </TTGlyph>
    <TTGlyph name="four" xMin="38" yMin="0" xMax="1104" yMax="1426">
      <contour>
        <pt x="618" y="1345" on="1"/>
        <pt x="644" y="1388" on="0"/>
        <pt x="718" y="1426" on="0"/>
        <pt x="760" y="1426" on="1"/>
        <pt x="784" y="1426" on="0"/>
        <pt x="829" y="1412" on="0"/>
        <pt x="864" y="1382" on="0"/>
        <pt x="884" y="1335" on="0"/>
        <pt x="884" y="1303" on="1"/>
        <pt x="884" y="448" on="1"/>
        <pt x="1038" y="448" on="1"/>
        <pt x="1071" y="448" on="0"/>
        <pt x="1104" y="407" on="0"/>
        <pt x="1104" y="382" on="1"/>
        <pt x="1104" y="357" on="0"/>
        <pt x="1071" y="316" on="0"/>
        <pt x="1038" y="316" on="1"/>
        <pt x="883" y="316" on="1"/>
        <pt x="883" y="80" on="1"/>
        <pt x="883" y="60" on="0"/>
        <pt x="868" y="30" on="0"/>
        <pt x="844" y="10" on="0"/>
        <pt x="814" y="0" on="0"/>
        <pt x="798" y="0" on="1"/>
        <pt x="782" y="0" on="0"/>
        <pt x="751" y="10" on="0"/>
        <pt x="727" y="30" on="0"/>
        <pt x="711" y="60" on="0"/>
        <pt x="711" y="80" on="1"/>
        <pt x="711" y="316" on="1"/>
        <pt x="134" y="316" on="1"/>
        <pt x="90" y="316" on="0"/>
        <pt x="38" y="373" on="0"/>
        <pt x="38" y="411" on="1"/>
        <pt x="38" y="426" on="0"/>
        <pt x="46" y="459" on="0"/>
        <pt x="57" y="474" on="1"/>
      </contour>
      <contour>
        <pt x="191" y="448" on="1"/>
        <pt x="711" y="448" on="1"/>
        <pt x="711" y="1263" on="1"/>
      </contour>
    </TTGlyph>
    <TTGlyph name="foursuperior" xMin="33" yMin="565" xMax="665" yMax="1404">
      <contour>
        <pt x="381" y="1355" on="1"/>
        <pt x="397" y="1381" on="0"/>
        <pt x="439" y="1404" on="0"/>
        <pt x="463" y="1404" on="1"/>
        <pt x="492" y="1404" on="0"/>
        <pt x="533" y="1368" on="0"/>
        <pt x="533" y="1330" on="1"/>
        <pt x="533" y="826" on="1"/>
        <pt x="626" y="826" on="1"/>
        <pt x="645" y="826" on="0"/>
        <pt x="665" y="804" on="0"/>
        <pt x="665" y="790" on="1"/>
        <pt x="665" y="776" on="0"/>
        <pt x="646" y="754" on="0"/>
        <pt x="626" y="754" on="1"/>
        <pt x="533" y="754" on="1"/>
        <pt x="533" y="613" on="1"/>
        <pt x="533" y="589" on="0"/>
        <pt x="503" y="565" on="0"/>
        <pt x="485" y="565" on="1"/>
        <pt x="466" y="565" on="0"/>
        <pt x="436" y="589" on="0"/>
        <pt x="436" y="613" on="1"/>
        <pt x="436" y="754" on="1"/>
        <pt x="90" y="754" on="1"/>
        <pt x="64" y="754" on="0"/>
        <pt x="33" y="786" on="0"/>
        <pt x="33" y="808" on="1"/>
        <pt x="33" y="827" on="0"/>
        <pt x="45" y="845" on="1"/>
      </contour>
      <contour>
        <pt x="122" y="826" on="1"/>
        <pt x="436" y="826" on="1"/>
        <pt x="436" y="1309" on="1"/>
      </contour>
    </TTGlyph>
    <TTGlyph name="fraction" xMin="-20" yMin="-74" xMax="608" yMax="1530">
      <contour>
        <pt x="116" y="-24" on="1"/>
        <pt x="107" y="-50" on="0"/>
        <pt x="70" y="-74" on="0"/>
        <pt x="49" y="-74" on="1"/>
        <pt x="23" y="-74" on="0"/>
        <pt x="-20" y="-40" on="0"/>
        <pt x="-20" y="-9" on="1"/>
        <pt x="-20" y="1" on="0"/>
        <pt x="-15" y="18" on="1"/>
        <pt x="468" y="1480" on="1"/>
        <pt x="476" y="1506" on="0"/>
        <pt x="516" y="1530" on="0"/>
        <pt x="537" y="1530" on="1"/>
        <pt x="564" y="1530" on="0"/>
        <pt x="608" y="1496" on="0"/>
        <pt x="608" y="1465" on="1"/>
        <pt x="608" y="1455" on="0"/>
        <pt x="603" y="1438" on="1"/>
      </contour>
    </TTGlyph>
    <TTGlyph name="g" xMin="88" yMin="-419" xMax="1023" yMax="1013">
      <contour>
        <pt x="866" y="493" on="1"/>
        <pt x="866" y="566" on="0"/>
        <pt x="835" y="708" on="0"/>
        <pt x="762" y="820" on="0"/>
        <pt x="642" y="888" on="0"/>
        <pt x="554" y="888" on="1"/>
        <pt x="471" y="888" on="0"/>
        <pt x="358" y="829" on="0"/>
        <pt x="290" y="725" on="0"/>
        <pt x="261" y="581" on="0"/>
        <pt x="261" y="497" on="1"/>
        <pt x="261" y="396" on="0"/>
        <pt x="310" y="254" on="0"/>
        <pt x="392" y="161" on="0"/>
        <pt x="499" y="115" on="0"/>
        <pt x="556" y="115" on="1"/>
        <pt x="615" y="115" on="0"/>
        <pt x="727" y="163" on="0"/>
        <pt x="814" y="258" on="0"/>
        <pt x="866" y="402" on="0"/>
      </contour>
      <contour>
        <pt x="867" y="195" on="1"/>
        <pt x="839" y="141" on="0"/>
        <pt x="763" y="69" on="0"/>
        <pt x="675" y="23" on="0"/>
        <pt x="577" y="0" on="0"/>
        <pt x="528" y="0" on="1"/>
        <pt x="412" y="0" on="0"/>
        <pt x="246" y="81" on="0"/>
        <pt x="139" y="216" on="0"/>
        <pt x="88" y="391" on="0"/>
        <pt x="88" y="491" on="1"/>
        <pt x="88" y="597" on="0"/>
        <pt x="139" y="787" on="0"/>
        <pt x="244" y="929" on="0"/>
        <pt x="404" y="1013" on="0"/>
        <pt x="513" y="1013" on="1"/>
        <pt x="569" y="1013" on="0"/>
        <pt x="672" y="993" on="0"/>
        <pt x="763" y="946" on="0"/>
        <pt x="842" y="870" on="0"/>
        <pt x="873" y="815" on="1"/>
        <pt x="873" y="924" on="1"/>
        <pt x="875" y="957" on="0"/>
        <pt x="921" y="991" on="0"/>
        <pt x="948" y="991" on="1"/>
        <pt x="977" y="991" on="0"/>
        <pt x="1023" y="954" on="0"/>
        <pt x="1023" y="917" on="1"/>
        <pt x="1023" y="-21" on="1"/>
        <pt x="1023" y="-126" on="0"/>
        <pt x="956" y="-277" on="0"/>
        <pt x="833" y="-374" on="0"/>
        <pt x="660" y="-419" on="0"/>
        <pt x="553" y="-419" on="1"/>
        <pt x="485" y="-419" on="0"/>
        <pt x="376" y="-403" on="0"/>
        <pt x="290" y="-372" on="0"/>
        <pt x="223" y="-328" on="0"/>
        <pt x="196" y="-299" on="1"/>
        <pt x="176" y="-279" on="0"/>
        <pt x="176" y="-255" on="1"/>
        <pt x="176" y="-232" on="0"/>
        <pt x="211" y="-197" on="0"/>
        <pt x="237" y="-197" on="1"/>
        <pt x="253" y="-197" on="0"/>
        <pt x="271" y="-206" on="1"/>
        <pt x="299" y="-222" on="0"/>
        <pt x="355" y="-251" on="0"/>
        <pt x="420" y="-274" on="0"/>
        <pt x="497" y="-287" on="0"/>
        <pt x="546" y="-287" on="1"/>
        <pt x="618" y="-287" on="0"/>
        <pt x="736" y="-262" on="0"/>
        <pt x="821" y="-203" on="0"/>
        <pt x="867" y="-106" on="0"/>
        <pt x="867" y="-33" on="1"/>
      </contour>
    </TTGlyph>
    <TTGlyph name="germandbls" xMin="168" yMin="-28" xMax="1204" yMax="1456">
      <contour>
        <pt x="541" y="125" on="1"/>
        <pt x="531" y="144" on="0"/>
        <pt x="531" y="162" on="1"/>
        <pt x="531" y="191" on="0"/>
        <pt x="575" y="229" on="0"/>
        <pt x="601" y="229" on="1"/>
        <pt x="616" y="229" on="0"/>
        <pt x="643" y="215" on="0"/>
        <pt x="654" y="199" on="1"/>
        <pt x="684" y="151" on="0"/>
        <pt x="772" y="97" on="0"/>
        <pt x="833" y="97" on="1"/>
        <pt x="927" y="97" on="0"/>
        <pt x="1040" y="197" on="0"/>
        <pt x="1040" y="300" on="1"/>
        <pt x="1040" y="355" on="0"/>
        <pt x="975" y="433" on="0"/>
        <pt x="877" y="496" on="0"/>
        <pt x="764" y="554" on="0"/>
        <pt x="666" y="624" on="0"/>
        <pt x="601" y="715" on="0"/>
        <pt x="601" y="779" on="1"/>
        <pt x="601" y="822" on="0"/>
        <pt x="637" y="892" on="0"/>
        <pt x="690" y="952" on="0"/>
        <pt x="753" y="1005" on="0"/>
        <pt x="806" y="1058" on="0"/>
        <pt x="842" y="1115" on="0"/>
        <pt x="842" y="1149" on="1"/>
        <pt x="842" y="1196" on="0"/>
        <pt x="800" y="1266" on="0"/>
        <pt x="732" y="1311" on="0"/>
        <pt x="646" y="1333" on="0"/>
        <pt x="602" y="1333" on="1"/>
        <pt x="522" y="1333" on="0"/>
        <pt x="417" y="1267" on="0"/>
        <pt x="354" y="1160" on="0"/>
        <pt x="329" y="1028" on="0"/>
        <pt x="328" y="962" on="1"/>
        <pt x="328" y="77" on="1"/>
        <pt x="328" y="39" on="0"/>
        <pt x="277" y="0" on="0"/>
        <pt x="246" y="0" on="1"/>
        <pt x="217" y="0" on="0"/>
        <pt x="168" y="38" on="0"/>
        <pt x="168" y="77" on="1"/>
        <pt x="168" y="992" on="1"/>
        <pt x="168" y="1097" on="0"/>
        <pt x="222" y="1269" on="0"/>
        <pt x="332" y="1390" on="0"/>
        <pt x="502" y="1456" on="0"/>
        <pt x="619" y="1456" on="1"/>
        <pt x="694" y="1456" on="0"/>
        <pt x="835" y="1416" on="0"/>
        <pt x="944" y="1337" on="0"/>
        <pt x="1009" y="1221" on="0"/>
        <pt x="1009" y="1145" on="1"/>
        <pt x="1009" y="1105" on="0"/>
        <pt x="974" y="1035" on="0"/>
        <pt x="920" y="973" on="0"/>
        <pt x="859" y="917" on="0"/>
        <pt x="805" y="865" on="0"/>
        <pt x="770" y="816" on="0"/>
        <pt x="770" y="792" on="1"/>
        <pt x="770" y="746" on="0"/>
        <pt x="834" y="681" on="0"/>
        <pt x="931" y="625" on="0"/>
        <pt x="1043" y="568" on="0"/>
        <pt x="1140" y="491" on="0"/>
        <pt x="1204" y="384" on="0"/>
        <pt x="1204" y="307" on="1"/>
        <pt x="1204" y="227" on="0"/>
        <pt x="1146" y="102" on="0"/>
        <pt x="1046" y="17" on="0"/>
        <pt x="913" y="-28" on="0"/>
        <pt x="839" y="-28" on="1"/>
        <pt x="736" y="-28" on="0"/>
        <pt x="582" y="48" on="0"/>
      </contour>
    </TTGlyph>
    <TTGlyph name="grave" xMin="59" yMin="1103" xMax="482" yMax="1499">
      <contour>
        <pt x="82" y="1367" on="1"/>
        <pt x="70" y="1376" on="0"/>
        <pt x="60" y="1399" on="0"/>
        <pt x="59" y="1411" on="1"/>
        <pt x="59" y="1427" on="0"/>
        <pt x="75" y="1458" on="0"/>
        <pt x="100" y="1483" on="0"/>
        <pt x="133" y="1499" on="0"/>
        <pt x="150" y="1499" on="1"/>
        <pt x="164" y="1499" on="0"/>
        <pt x="189" y="1488" on="0"/>
        <pt x="201" y="1474" on="1"/>
        <pt x="470" y="1173" on="1"/>
        <pt x="477" y="1165" on="0"/>
        <pt x="482" y="1149" on="0"/>
        <pt x="482" y="1141" on="1"/>
        <pt x="482" y="1125" on="0"/>
        <pt x="462" y="1103" on="0"/>
        <pt x="445" y="1103" on="1"/>
        <pt x="425" y="1103" on="0"/>
        <pt x="404" y="1120" on="1"/>
      </contour>
    </TTGlyph>
    <TTGlyph name="greater" xMin="158" yMin="33" xMax="1201" yMax="974">
      <contour>
        <pt x="1142" y="571" on="1"/>
        <pt x="1173" y="557" on="0"/>
        <pt x="1201" y="515" on="0"/>
        <pt x="1201" y="495" on="1"/>
        <pt x="1201" y="472" on="0"/>
        <pt x="1171" y="430" on="0"/>
        <pt x="1139" y="416" on="1"/>
        <pt x="252" y="38" on="1"/>
        <pt x="237" y="33" on="0"/>
        <pt x="226" y="33" on="1"/>
        <pt x="196" y="33" on="0"/>
        <pt x="159" y="75" on="0"/>
        <pt x="159" y="101" on="1"/>
        <pt x="159" y="118" on="0"/>
        <pt x="178" y="148" on="0"/>
        <pt x="199" y="157" on="1"/>
        <pt x="1001" y="495" on="1"/>
        <pt x="197" y="852" on="1"/>
        <pt x="177" y="861" on="0"/>
        <pt x="158" y="891" on="0"/>
        <pt x="158" y="908" on="1"/>
        <pt x="158" y="933" on="0"/>
        <pt x="193" y="974" on="0"/>
        <pt x="221" y="974" on="1"/>
        <pt x="235" y="974" on="0"/>
        <pt x="250" y="968" on="1"/>
      </contour>
    </TTGlyph>
    <TTGlyph name="greaterequal" xMin="93" yMin="12" xMax="1136" yMax="1170">
      <contour>
        <pt x="187" y="235" on="1"/>
        <pt x="172" y="229" on="0"/>
        <pt x="159" y="229" on="1"/>
        <pt x="131" y="229" on="0"/>
        <pt x="94" y="271" on="0"/>
        <pt x="94" y="297" on="1"/>
        <pt x="94" y="314" on="0"/>
        <pt x="113" y="345" on="0"/>
        <pt x="134" y="354" on="1"/>
        <pt x="936" y="692" on="1"/>
        <pt x="132" y="1049" on="1"/>
        <pt x="112" y="1058" on="0"/>
        <pt x="93" y="1087" on="0"/>
        <pt x="93" y="1104" on="1"/>
        <pt x="93" y="1129" on="0"/>
        <pt x="128" y="1170" on="0"/>
        <pt x="156" y="1170" on="1"/>
        <pt x="170" y="1170" on="0"/>
        <pt x="185" y="1164" on="1"/>
        <pt x="1076" y="767" on="1"/>
        <pt x="1107" y="754" on="0"/>
        <pt x="1136" y="714" on="0"/>
        <pt x="1136" y="691" on="1"/>
        <pt x="1136" y="668" on="0"/>
        <pt x="1106" y="627" on="0"/>
        <pt x="1074" y="613" on="1"/>
      </contour>
      <contour>
        <pt x="163" y="12" on="1"/>
        <pt x="136" y="12" on="0"/>
        <pt x="108" y="47" on="0"/>
        <pt x="108" y="67" on="1"/>
        <pt x="108" y="88" on="0"/>
        <pt x="136" y="122" on="0"/>
        <pt x="163" y="122" on="1"/>
        <pt x="1011" y="122" on="1"/>
        <pt x="1039" y="122" on="0"/>
        <pt x="1066" y="87" on="0"/>
        <pt x="1066" y="67" on="1"/>
        <pt x="1066" y="46" on="0"/>
        <pt x="1039" y="12" on="0"/>
        <pt x="1011" y="12" on="1"/>
      </contour>
    </TTGlyph>
    <TTGlyph name="guillemotleft" xMin="192" yMin="115" xMax="915" yMax="972">
      <contour>
        <pt x="404" y="925" on="1"/>
        <pt x="418" y="950" on="0"/>
        <pt x="454" y="972" on="0"/>
        <pt x="472" y="972" on="1"/>
        <pt x="495" y="972" on="0"/>
        <pt x="528" y="941" on="0"/>
        <pt x="528" y="918" on="1"/>
        <pt x="528" y="913" on="0"/>
        <pt x="526" y="900" on="0"/>
        <pt x="523" y="894" on="1"/>
        <pt x="358" y="544" on="1"/>
        <pt x="523" y="193" on="1"/>
        <pt x="528" y="182" on="0"/>
        <pt x="528" y="168" on="1"/>
        <pt x="528" y="145" on="0"/>
        <pt x="495" y="115" on="0"/>
        <pt x="472" y="115" on="1"/>
        <pt x="454" y="115" on="0"/>
        <pt x="418" y="136" on="0"/>
        <pt x="404" y="162" on="1"/>
        <pt x="192" y="544" on="1"/>
      </contour>
      <contour>
        <pt x="790" y="925" on="1"/>
        <pt x="804" y="951" on="0"/>
        <pt x="841" y="971" on="0"/>
        <pt x="858" y="972" on="1"/>
        <pt x="881" y="972" on="0"/>
        <pt x="915" y="941" on="0"/>
        <pt x="915" y="918" on="1"/>
        <pt x="915" y="904" on="0"/>
        <pt x="910" y="894" on="1"/>
        <pt x="745" y="544" on="1"/>
        <pt x="910" y="193" on="1"/>
        <pt x="915" y="182" on="0"/>
        <pt x="915" y="169" on="1"/>
        <pt x="915" y="146" on="0"/>
        <pt x="881" y="115" on="0"/>
        <pt x="858" y="115" on="1"/>
        <pt x="841" y="115" on="0"/>
        <pt x="804" y="136" on="0"/>
        <pt x="790" y="162" on="1"/>
        <pt x="578" y="544" on="1"/>
      </contour>
    </TTGlyph>
    <TTGlyph name="guillemotright" xMin="238" yMin="115" xMax="962" yMax="972">
      <contour>
        <pt x="962" y="544" on="1"/>
        <pt x="750" y="162" on="1"/>
        <pt x="736" y="136" on="0"/>
        <pt x="699" y="115" on="0"/>
        <pt x="682" y="115" on="1"/>
        <pt x="659" y="115" on="0"/>
        <pt x="625" y="145" on="0"/>
        <pt x="625" y="168" on="1"/>
        <pt x="625" y="179" on="0"/>
        <pt x="631" y="193" on="1"/>
        <pt x="796" y="544" on="1"/>
        <pt x="631" y="894" on="1"/>
        <pt x="625" y="906" on="0"/>
        <pt x="625" y="918" on="1"/>
        <pt x="625" y="941" on="0"/>
        <pt x="659" y="972" on="0"/>
        <pt x="682" y="972" on="1"/>
        <pt x="699" y="972" on="0"/>
        <pt x="736" y="950" on="0"/>
        <pt x="750" y="925" on="1"/>
      </contour>
      <contour>
        <pt x="575" y="544" on="1"/>
        <pt x="363" y="162" on="1"/>
        <pt x="349" y="136" on="0"/>
        <pt x="312" y="115" on="0"/>
        <pt x="295" y="115" on="1"/>
        <pt x="272" y="115" on="0"/>
        <pt x="238" y="145" on="0"/>
        <pt x="238" y="168" on="1"/>
        <pt x="238" y="179" on="0"/>
        <pt x="244" y="193" on="1"/>
        <pt x="409" y="544" on="1"/>
        <pt x="244" y="894" on="1"/>
        <pt x="238" y="906" on="0"/>
        <pt x="238" y="918" on="1"/>
        <pt x="238" y="941" on="0"/>
        <pt x="272" y="972" on="0"/>
        <pt x="295" y="972" on="1"/>
        <pt x="312" y="972" on="0"/>
        <pt x="349" y="950" on="0"/>
        <pt x="363" y="925" on="1"/>
      </contour>
    </TTGlyph>
    <TTGlyph name="guilsinglleft" xMin="109" yMin="115" xMax="445" yMax="972">
      <contour>
        <pt x="321" y="925" on="1"/>
        <pt x="335" y="950" on="0"/>
        <pt x="371" y="972" on="0"/>
        <pt x="389" y="972" on="1"/>
        <pt x="412" y="972" on="0"/>
        <pt x="445" y="941" on="0"/>
        <pt x="445" y="918" on="1"/>
        <pt x="445" y="913" on="0"/>
        <pt x="443" y="900" on="0"/>
        <pt x="440" y="894" on="1"/>
        <pt x="276" y="544" on="1"/>
        <pt x="440" y="193" on="1"/>
        <pt x="445" y="182" on="0"/>
        <pt x="445" y="168" on="1"/>
        <pt x="445" y="145" on="0"/>
        <pt x="412" y="115" on="0"/>
        <pt x="389" y="115" on="1"/>
        <pt x="371" y="115" on="0"/>
        <pt x="335" y="136" on="0"/>
        <pt x="321" y="162" on="1"/>
        <pt x="109" y="544" on="1"/>
      </contour>
    </TTGlyph>
    <TTGlyph name="guilsinglright" xMin="139" yMin="115" xMax="477" yMax="972">
      <contour>
        <pt x="477" y="544" on="1"/>
        <pt x="265" y="162" on="1"/>
        <pt x="251" y="136" on="0"/>
        <pt x="213" y="115" on="0"/>
        <pt x="196" y="115" on="1"/>
        <pt x="173" y="115" on="0"/>
        <pt x="139" y="146" on="0"/>
        <pt x="139" y="169" on="1"/>
        <pt x="139" y="179" on="0"/>
        <pt x="145" y="193" on="1"/>
        <pt x="310" y="544" on="1"/>
        <pt x="145" y="894" on="1"/>
        <pt x="139" y="906" on="0"/>
        <pt x="139" y="918" on="1"/>
        <pt x="139" y="941" on="0"/>
        <pt x="173" y="972" on="0"/>
        <pt x="196" y="972" on="1"/>
        <pt x="213" y="972" on="0"/>
        <pt x="251" y="950" on="0"/>
        <pt x="265" y="925" on="1"/>
      </contour>
    </TTGlyph>
    <TTGlyph name="h" xMin="155" yMin="0" xMax="1003" yMax="1425">
      <contour>
        <pt x="843" y="645" on="1"/>
        <pt x="843" y="707" on="0"/>
        <pt x="805" y="801" on="0"/>
        <pt x="741" y="861" on="0"/>
        <pt x="659" y="889" on="0"/>
        <pt x="614" y="889" on="1"/>
        <pt x="552" y="889" on="0"/>
        <pt x="444" y="851" on="0"/>
        <pt x="362" y="773" on="0"/>
        <pt x="315" y="657" on="0"/>
        <pt x="315" y="575" on="1"/>
        <pt x="315" y="76" on="1"/>
        <pt x="315" y="38" on="0"/>
        <pt x="264" y="0" on="0"/>
        <pt x="234" y="0" on="1"/>
        <pt x="204" y="0" on="0"/>
        <pt x="155" y="38" on="0"/>
        <pt x="155" y="76" on="1"/>
        <pt x="155" y="1352" on="1"/>
        <pt x="155" y="1388" on="0"/>
        <pt x="206" y="1425" on="0"/>
        <pt x="236" y="1425" on="1"/>
        <pt x="266" y="1425" on="0"/>
        <pt x="315" y="1389" on="0"/>
        <pt x="315" y="1352" on="1"/>
        <pt x="315" y="825" on="1"/>
        <pt x="335" y="871" on="0"/>
        <pt x="405" y="941" on="0"/>
        <pt x="494" y="989" on="0"/>
        <pt x="596" y="1013" on="0"/>
        <pt x="648" y="1013" on="1"/>
        <pt x="720" y="1013" on="0"/>
        <pt x="848" y="971" on="0"/>
        <pt x="946" y="880" on="0"/>
        <pt x="1003" y="736" on="0"/>
        <pt x="1003" y="633" on="1"/>
        <pt x="1003" y="76" on="1"/>
        <pt x="1003" y="38" on="0"/>
        <pt x="952" y="0" on="0"/>
        <pt x="922" y="0" on="1"/>
        <pt x="892" y="0" on="0"/>
        <pt x="843" y="38" on="0"/>
        <pt x="843" y="76" on="1"/>
      </contour>
    </TTGlyph>
    <TTGlyph name="hungarumlaut" xMin="-22" yMin="1104" xMax="714" yMax="1500">
      <contour>
        <pt x="369" y="1120" on="1"/>
        <pt x="358" y="1111" on="0"/>
        <pt x="338" y="1104" on="0"/>
        <pt x="329" y="1104" on="1"/>
        <pt x="312" y="1104" on="0"/>
        <pt x="291" y="1126" on="0"/>
        <pt x="291" y="1141" on="1"/>
        <pt x="291" y="1149" on="0"/>
        <pt x="296" y="1165" on="0"/>
        <pt x="303" y="1173" on="1"/>
        <pt x="572" y="1474" on="1"/>
        <pt x="595" y="1500" on="0"/>
        <pt x="623" y="1499" on="1"/>
        <pt x="640" y="1499" on="0"/>
        <pt x="673" y="1484" on="0"/>
        <pt x="698" y="1459" on="0"/>
        <pt x="714" y="1428" on="0"/>
        <pt x="714" y="1412" on="1"/>
        <pt x="714" y="1400" on="0"/>
        <pt x="703" y="1376" on="0"/>
        <pt x="691" y="1367" on="1"/>
      </contour>
      <contour>
        <pt x="57" y="1120" on="1"/>
        <pt x="46" y="1111" on="0"/>
        <pt x="25" y="1104" on="0"/>
        <pt x="16" y="1104" on="1"/>
        <pt x="-1" y="1104" on="0"/>
        <pt x="-22" y="1125" on="0"/>
        <pt x="-22" y="1141" on="1"/>
        <pt x="-22" y="1149" on="0"/>
        <pt x="-16" y="1165" on="0"/>
        <pt x="-9" y="1173" on="1"/>
        <pt x="260" y="1474" on="1"/>
        <pt x="283" y="1500" on="0"/>
        <pt x="311" y="1499" on="1"/>
        <pt x="328" y="1499" on="0"/>
        <pt x="360" y="1484" on="0"/>
        <pt x="386" y="1459" on="0"/>
        <pt x="401" y="1427" on="0"/>
        <pt x="401" y="1411" on="1"/>
        <pt x="401" y="1399" on="0"/>
        <pt x="391" y="1376" on="0"/>
        <pt x="379" y="1367" on="1"/>
      </contour>
    </TTGlyph>
    <TTGlyph name="hyphen" xMin="30" yMin="457" xMax="566" yMax="598">
      <contour>
        <pt x="104" y="457" on="1"/>
        <pt x="73" y="457" on="0"/>
        <pt x="30" y="497" on="0"/>
        <pt x="30" y="526" on="1"/>
        <pt x="30" y="557" on="0"/>
        <pt x="72" y="598" on="0"/>
        <pt x="104" y="598" on="1"/>
        <pt x="493" y="598" on="1"/>
        <pt x="524" y="598" on="0"/>
        <pt x="566" y="557" on="0"/>
        <pt x="566" y="526" on="1"/>
        <pt x="566" y="497" on="0"/>
        <pt x="524" y="457" on="0"/>
        <pt x="493" y="457" on="1"/>
      </contour>
    </TTGlyph>
    <TTGlyph name="i" xMin="128" yMin="0" xMax="345" yMax="1428">
      <contour>
        <pt x="345" y="1336" on="1"/>
        <pt x="345" y="1299" on="0"/>
        <pt x="288" y="1244" on="0"/>
        <pt x="236" y="1244" on="1"/>
        <pt x="185" y="1244" on="0"/>
        <pt x="128" y="1299" on="0"/>
        <pt x="128" y="1336" on="1"/>
        <pt x="128" y="1373" on="0"/>
        <pt x="185" y="1428" on="0"/>
        <pt x="237" y="1428" on="1"/>
        <pt x="288" y="1428" on="0"/>
        <pt x="345" y="1373" on="0"/>
      </contour>
      <contour>
        <pt x="157" y="911" on="1"/>
        <pt x="157" y="951" on="0"/>
        <pt x="208" y="991" on="0"/>
        <pt x="238" y="991" on="1"/>
        <pt x="253" y="991" on="0"/>
        <pt x="281" y="981" on="0"/>
        <pt x="303" y="961" on="0"/>
        <pt x="317" y="931" on="0"/>
        <pt x="317" y="911" on="1"/>
        <pt x="317" y="81" on="1"/>
        <pt x="317" y="41" on="0"/>
        <pt x="265" y="0" on="0"/>
        <pt x="235" y="0" on="1"/>
        <pt x="205" y="0" on="0"/>
        <pt x="157" y="39" on="0"/>
        <pt x="157" y="81" on="1"/>
      </contour>
    </TTGlyph>
    <TTGlyph name="iacute" xMin="18" yMin="0" xMax="440" yMax="1500">
      <component glyphName="acute" x="-65" y="0" flags="0x1004"/>
      <component glyphName="dotlessi" x="0" y="0" flags="0x1004"/>
    </TTGlyph>
    <TTGlyph name="icircumflex" xMin="-50" yMin="0" xMax="532" yMax="1524">
      <component glyphName="circumflex" x="-44" y="0" flags="0x1004"/>
      <component glyphName="dotlessi" x="0" y="0" flags="0x1004"/>
    </TTGlyph>
    <TTGlyph name="idieresis" xMin="-52" yMin="0" xMax="532" yMax="1396">
      <component glyphName="dieresis" x="-45" y="0" flags="0x1004"/>
      <component glyphName="dotlessi" x="0" y="0" flags="0x1004"/>
    </TTGlyph>
    <TTGlyph name="igrave" xMin="38" yMin="0" xMax="461" yMax="1499">
      <component glyphName="dotlessi" x="0" y="0" flags="0x1204"/>
      <component glyphName="grave" x="-21" y="0" flags="0x1004"/>
    </TTGlyph>
    <TTGlyph name="infinity" xMin="103" yMin="265" xMax="1501" yMax="913">
      <contour>
        <pt x="1501" y="595" on="1"/>
        <pt x="1501" y="519" on="0"/>
        <pt x="1448" y="397" on="0"/>
        <pt x="1359" y="311" on="0"/>
        <pt x="1245" y="265" on="0"/>
        <pt x="1184" y="265" on="1"/>
        <pt x="1136" y="265" on="0"/>
        <pt x="1045" y="295" on="0"/>
        <pt x="954" y="357" on="0"/>
        <pt x="859" y="448" on="0"/>
        <pt x="805" y="510" on="1"/>
        <pt x="764" y="463" on="0"/>
        <pt x="679" y="375" on="0"/>
        <pt x="585" y="307" on="0"/>
        <pt x="478" y="265" on="0"/>
        <pt x="415" y="265" on="1"/>
        <pt x="352" y="265" on="0"/>
        <pt x="239" y="314" on="0"/>
        <pt x="154" y="400" on="0"/>
        <pt x="103" y="518" on="0"/>
        <pt x="103" y="586" on="1"/>
        <pt x="103" y="657" on="0"/>
        <pt x="153" y="777" on="0"/>
        <pt x="240" y="864" on="0"/>
        <pt x="360" y="913" on="0"/>
        <pt x="430" y="913" on="1"/>
        <pt x="488" y="913" on="0"/>
        <pt x="591" y="873" on="0"/>
        <pt x="685" y="805" on="0"/>
        <pt x="771" y="716" on="0"/>
        <pt x="812" y="667" on="1"/>
        <pt x="851" y="711" on="0"/>
        <pt x="932" y="799" on="0"/>
        <pt x="1023" y="869" on="0"/>
        <pt x="1130" y="913" on="0"/>
        <pt x="1195" y="913" on="1"/>
        <pt x="1263" y="913" on="0"/>
        <pt x="1375" y="867" on="0"/>
        <pt x="1456" y="784" on="0"/>
        <pt x="1501" y="667" on="0"/>
        <pt x="1501" y="597" on="1"/>
      </contour>
      <contour>
        <pt x="430" y="363" on="1"/>
        <pt x="479" y="363" on="0"/>
        <pt x="568" y="406" on="0"/>
        <pt x="647" y="472" on="0"/>
        <pt x="717" y="549" on="0"/>
        <pt x="749" y="583" on="1"/>
        <pt x="715" y="625" on="0"/>
        <pt x="644" y="709" on="0"/>
        <pt x="564" y="776" on="0"/>
        <pt x="471" y="818" on="0"/>
        <pt x="415" y="818" on="1"/>
        <pt x="367" y="818" on="0"/>
        <pt x="291" y="781" on="0"/>
        <pt x="238" y="718" on="0"/>
        <pt x="211" y="634" on="0"/>
        <pt x="211" y="588" on="1"/>
        <pt x="211" y="542" on="0"/>
        <pt x="241" y="460" on="0"/>
        <pt x="297" y="399" on="0"/>
        <pt x="378" y="363" on="0"/>
        <pt x="428" y="363" on="1"/>
      </contour>
      <contour>
        <pt x="1186" y="818" on="1"/>
        <pt x="1134" y="818" on="0"/>
        <pt x="1041" y="768" on="0"/>
        <pt x="960" y="698" on="0"/>
        <pt x="892" y="620" on="0"/>
        <pt x="865" y="592" on="1"/>
        <pt x="916" y="535" on="0"/>
        <pt x="1000" y="449" on="0"/>
        <pt x="1076" y="392" on="0"/>
        <pt x="1150" y="363" on="0"/>
        <pt x="1192" y="363" on="1"/>
        <pt x="1241" y="363" on="0"/>
        <pt x="1317" y="402" on="0"/>
        <pt x="1369" y="466" on="0"/>
        <pt x="1396" y="547" on="0"/>
        <pt x="1396" y="588" on="1"/>
        <pt x="1396" y="642" on="0"/>
        <pt x="1364" y="727" on="0"/>
        <pt x="1309" y="786" on="0"/>
        <pt x="1233" y="818" on="0"/>
        <pt x="1189" y="818" on="1"/>
      </contour>
    </TTGlyph>
    <TTGlyph name="integral" xMin="58" yMin="-332" xMax="691" yMax="1751">
      <contour>
        <pt x="595" y="1751" on="1"/>
        <pt x="645" y="1751" on="0"/>
        <pt x="691" y="1715" on="0"/>
        <pt x="691" y="1693" on="1"/>
        <pt x="691" y="1670" on="0"/>
        <pt x="647" y="1634" on="0"/>
        <pt x="607" y="1634" on="1"/>
        <pt x="560" y="1634" on="0"/>
        <pt x="493" y="1588" on="0"/>
        <pt x="451" y="1487" on="0"/>
        <pt x="431" y="1330" on="0"/>
        <pt x="431" y="1219" on="1"/>
        <pt x="431" y="1099" on="0"/>
        <pt x="440" y="841" on="0"/>
        <pt x="450" y="577" on="0"/>
        <pt x="459" y="314" on="0"/>
        <pt x="459" y="189" on="1"/>
        <pt x="459" y="28" on="0"/>
        <pt x="409" y="-175" on="0"/>
        <pt x="326" y="-290" on="0"/>
        <pt x="219" y="-332" on="0"/>
        <pt x="162" y="-332" on="1"/>
        <pt x="109" y="-332" on="0"/>
        <pt x="58" y="-291" on="0"/>
        <pt x="58" y="-267" on="1"/>
        <pt x="58" y="-244" on="0"/>
        <pt x="101" y="-207" on="0"/>
        <pt x="143" y="-207" on="1"/>
        <pt x="174" y="-207" on="0"/>
        <pt x="235" y="-181" on="0"/>
        <pt x="285" y="-98" on="0"/>
        <pt x="316" y="59" on="0"/>
        <pt x="316" y="191" on="1"/>
        <pt x="316" y="317" on="0"/>
        <pt x="307" y="584" on="0"/>
        <pt x="295" y="852" on="0"/>
        <pt x="286" y="1113" on="0"/>
        <pt x="286" y="1234" on="1"/>
        <pt x="286" y="1373" on="0"/>
        <pt x="329" y="1570" on="0"/>
        <pt x="408" y="1694" on="0"/>
        <pt x="523" y="1751" on="0"/>
      </contour>
    </TTGlyph>
    <TTGlyph name="j" xMin="-47" yMin="-373" xMax="348" yMax="1428">
      <contour>
        <pt x="320" y="-33" on="1"/>
        <pt x="320" y="-126" on="0"/>
        <pt x="306" y="-256" on="0"/>
        <pt x="252" y="-337" on="0"/>
        <pt x="145" y="-373" on="0"/>
        <pt x="52" y="-373" on="1"/>
        <pt x="45" y="-373" on="0"/>
        <pt x="26" y="-371" on="0"/>
        <pt x="8" y="-366" on="0"/>
        <pt x="-4" y="-361" on="0"/>
        <pt x="-4" y="-358" on="1"/>
        <pt x="-26" y="-356" on="0"/>
        <pt x="-47" y="-325" on="0"/>
        <pt x="-47" y="-307" on="1"/>
        <pt x="-47" y="-287" on="0"/>
        <pt x="-20" y="-251" on="0"/>
        <pt x="7" y="-251" on="1"/>
        <pt x="59" y="-251" on="0"/>
        <pt x="120" y="-241" on="0"/>
        <pt x="151" y="-205" on="0"/>
        <pt x="159" y="-134" on="0"/>
        <pt x="159" y="-72" on="1"/>
        <pt x="159" y="911" on="1"/>
        <pt x="159" y="951" on="0"/>
        <pt x="210" y="991" on="0"/>
        <pt x="241" y="991" on="1"/>
        <pt x="256" y="991" on="0"/>
        <pt x="284" y="981" on="0"/>
        <pt x="306" y="961" on="0"/>
        <pt x="320" y="931" on="0"/>
        <pt x="320" y="911" on="1"/>
      </contour>
      <contour>
        <pt x="348" y="1336" on="1"/>
        <pt x="348" y="1299" on="0"/>
        <pt x="290" y="1244" on="0"/>
        <pt x="239" y="1244" on="1"/>
        <pt x="188" y="1244" on="0"/>
        <pt x="131" y="1299" on="0"/>
        <pt x="131" y="1336" on="1"/>
        <pt x="131" y="1373" on="0"/>
        <pt x="188" y="1428" on="0"/>
        <pt x="239" y="1428" on="1"/>
        <pt x="290" y="1428" on="0"/>
        <pt x="348" y="1373" on="0"/>
      </contour>
    </TTGlyph>
</ttFont>
